<svg width="90" height="90" viewBox="0 0 90 90" fill="none" xmlns="http://www.w3.org/2000/svg">
<path d="M44.5072 23.394C38.9095 23.394 33.5382 25.6206 29.5772 29.5776C25.6202 33.5385 23.3936 38.9096 23.3936 44.5076C23.3936 50.1056 25.6202 55.4766 29.5772 59.4376C33.5381 63.3946 38.9092 65.6212 44.5072 65.6212C50.1052 65.6212 55.4762 63.3946 59.4372 59.4376C63.3942 55.4767 65.6208 50.1056 65.6208 44.5076C65.6129 38.9099 63.3864 33.5426 59.4294 29.5856C55.4724 25.6286 50.1052 23.402 44.5074 23.3942L44.5072 23.394ZM44.5072 63.617V63.6209C39.4369 63.6209 34.5775 61.6053 30.9912 58.0232C27.4092 54.4373 25.3935 49.5779 25.3935 44.5072C25.3935 39.4366 27.4091 34.5776 30.9912 30.9913C34.5771 27.4093 39.4365 25.3935 44.5072 25.3935C49.5779 25.3935 54.4369 27.4092 58.0232 30.9913C61.6052 34.5772 63.6209 39.4366 63.6209 44.5072C63.613 49.5737 61.5975 54.4331 58.0154 58.0153C54.4334 61.5973 49.574 63.6129 44.5074 63.6208L44.5072 63.617Z" fill="#0E80E1"/>
<path d="M47.6406 31.9951H46.9883V30.6396C46.9883 30.374 46.8828 30.1201 46.6953 29.9326C46.5078 29.7451 46.2539 29.6396 45.9883 29.6396H43.2539C42.8086 29.6396 42.4141 29.9365 42.293 30.3662C42.168 29.9365 41.7773 29.6396 41.332 29.6396H38.5898C38.3242 29.6396 38.0664 29.7451 37.8789 29.9326C37.6914 30.1201 37.5859 30.374 37.5898 30.6396V31.9951H34.7031C34.4375 31.9951 34.1836 32.1006 33.9961 32.2881C33.8086 32.4756 33.7031 32.7295 33.7031 32.9951V36.6513C33.7031 36.917 33.8086 37.1709 33.9961 37.3584C34.1836 37.5459 34.4375 37.6513 34.7031 37.6513H36.6719V51.3624H34.7031C34.4375 51.3624 34.1836 51.4678 33.9961 51.6553C33.8086 51.8428 33.7031 52.0967 33.7031 52.3624V56.0185C33.7031 56.2842 33.8086 56.5381 33.9961 56.7256C34.1836 56.9131 34.4375 57.0185 34.7031 57.0185H37.5859V58.3741H37.5898C37.5859 58.6397 37.6914 58.8936 37.8789 59.0811C38.0664 59.2686 38.3242 59.374 38.5898 59.374H41.332C41.7773 59.374 42.168 59.0772 42.293 58.6475C42.4141 59.0772 42.8086 59.374 43.2539 59.374H45.9883C46.2539 59.374 46.5078 59.2686 46.6953 59.0811C46.8828 58.8936 46.9883 58.6397 46.9883 58.3741V57.0185H47.6407C50.6016 57.0185 53.2969 55.3154 54.5704 52.6435C55.8399 49.9677 55.4571 46.7997 53.586 44.5068C55.4571 42.2138 55.8399 39.0459 54.5704 36.3701C53.297 33.6982 50.6016 31.9951 47.6407 31.9951H47.6406ZM51.5351 45.2332H51.5391C53.2266 46.827 53.7696 49.2878 52.9102 51.4479C52.0508 53.6041 49.9649 55.0182 47.6407 55.0182H45.9883C45.7227 55.0182 45.4688 55.1237 45.2813 55.3112C45.0938 55.4987 44.9883 55.7526 44.9883 56.0182V57.3737H44.254V56.0182C44.254 55.7526 44.1485 55.4987 43.961 55.3112C43.7735 55.1237 43.5196 55.0182 43.254 55.0182H41.3321C41.0664 55.0182 40.8086 55.1237 40.6211 55.3112C40.4336 55.4987 40.3282 55.7526 40.3321 56.0182V57.3737H39.5899V56.0182C39.5899 55.7526 39.4844 55.4987 39.2969 55.3112C39.1094 55.1237 38.8516 55.0182 38.5899 55.0182H35.7032V53.362H37.672C37.9376 53.362 38.1954 53.2566 38.3829 53.0691C38.5704 52.8816 38.6759 52.6277 38.672 52.362V36.6511C38.6759 36.3854 38.5704 36.1315 38.3829 35.944C38.1954 35.7565 37.9376 35.6511 37.672 35.6511H35.7032V33.9949H38.5899C38.8516 33.9949 39.1094 33.8894 39.2969 33.7019C39.4844 33.5144 39.5899 33.2605 39.5899 32.9949V31.6393H40.3321V32.9949C40.3282 33.2605 40.4336 33.5144 40.6211 33.7019C40.8086 33.8894 41.0664 33.9949 41.3321 33.9949H43.254C43.5196 33.9949 43.7735 33.8894 43.961 33.7019C44.1485 33.5144 44.254 33.2605 44.254 32.9949V31.6393H44.9883V32.9949C44.9883 33.2605 45.0938 33.5144 45.2813 33.7019C45.4688 33.8894 45.7227 33.9949 45.9883 33.9949H47.6407C49.9649 33.9949 52.0509 35.4089 52.9102 37.5651C53.7695 39.7253 53.2266 42.1862 51.5391 43.7799C51.3398 43.9714 51.2266 44.2331 51.2266 44.5065C51.2266 44.7799 51.3398 45.0417 51.5391 45.2331L51.5351 45.2332Z" fill="#0E80E1"/>
<path d="M47.6398 35.6523H41.3312C41.0655 35.6523 40.8077 35.7578 40.6202 35.9453C40.4327 36.1328 40.3272 36.3867 40.3312 36.6523V42.6796C40.3273 42.9453 40.4327 43.1992 40.6202 43.3867C40.8077 43.5742 41.0655 43.6796 41.3312 43.6796H47.6437H47.6397C49.8545 43.6757 51.6476 41.8788 51.6476 39.6679C51.6476 37.4531 49.8545 35.6562 47.6397 35.6523H47.6398ZM47.6398 41.6796H42.3312V37.6523H47.6437H47.6397C48.7491 37.6563 49.6476 38.5547 49.6476 39.6679C49.6476 40.7773 48.7491 41.6757 47.6397 41.6796H47.6398Z" fill="#0E80E1"/>
<path d="M47.6398 45.335H41.3312C41.0655 45.335 40.8077 45.4404 40.6202 45.6279C40.4327 45.8154 40.3272 46.0693 40.3312 46.335V52.3623C40.3273 52.6279 40.4327 52.8818 40.6202 53.0693C40.8077 53.2568 41.0655 53.3623 41.3312 53.3623H47.6437H47.6397C49.8585 53.3623 51.6554 51.5654 51.6554 49.3467C51.6554 47.1319 49.8584 45.335 47.6397 45.335H47.6398ZM47.6398 51.3623H42.3312V47.335H47.6437H47.6397C48.753 47.335 49.6554 48.2373 49.6554 49.3467C49.6554 50.46 48.753 51.3623 47.6397 51.3623H47.6398Z" fill="#0E80E1"/>
<path d="M86.2692 25.8902C85.1481 25.8941 84.1403 26.5816 83.7301 27.6285H74.0895C73.8239 27.6285 73.57 27.734 73.3825 27.9215C73.195 28.109 73.0895 28.3629 73.0895 28.6285V34.8512H68.5934C67.4996 32.1364 65.9528 29.6207 64.0231 27.4215H66.07C66.3317 27.4215 66.5895 27.316 66.777 27.1285C66.9645 26.941 67.07 26.6871 67.07 26.4215V16.3945C68.2927 15.9101 68.9997 14.6289 68.7575 13.3359C68.5114 12.0429 67.3825 11.1093 66.07 11.1093C64.7536 11.1093 63.6247 12.0429 63.3786 13.3359C63.1364 14.6289 63.8434 15.9101 65.07 16.3906V25.4179L62.0739 25.4218C60.07 23.5741 57.7887 22.0546 55.3122 20.914V13.5273C56.5349 13.0468 57.2458 11.7617 56.9997 10.4687C56.7575 9.17571 55.6247 8.24211 54.3122 8.24211C52.9958 8.24211 51.8669 9.1757 51.6208 10.4687C51.3786 11.7617 52.0856 13.0468 53.3122 13.5273V20.0937V20.0898C50.8044 19.1875 48.1716 18.6757 45.5075 18.5781V7.5901C46.7341 7.10963 47.4411 5.8245 47.1989 4.5315C46.9528 3.2385 45.8239 2.3049 44.5075 2.3049C43.1911 2.3049 42.0622 3.23849 41.8161 4.5315C41.5739 5.8245 42.2809 7.1096 43.5075 7.5901V18.5781C41.2497 18.6601 39.0114 19.039 36.8513 19.7031V14.9258C36.8513 14.6602 36.7458 14.4063 36.5583 14.2188C36.3708 14.0313 36.1169 13.9258 35.8513 13.9258H29.6286V5.2852C30.8513 4.80473 31.5622 3.5235 31.3161 2.2305C31.0739 0.9375 29.9411 0 28.6286 0C27.3122 0 26.1833 0.9375 25.9372 2.2305C25.695 3.5235 26.402 4.8047 27.6286 5.2852V14.9258C27.6286 15.1914 27.7341 15.4453 27.9216 15.6328C28.1091 15.8203 28.363 15.9258 28.6286 15.9258H34.8513V20.4219C32.1325 21.5157 29.6208 23.0625 27.4216 24.9922V22.9453C27.4216 22.6836 27.3161 22.4258 27.1286 22.2383C26.9411 22.0508 26.6872 21.9453 26.4216 21.9453H16.3906C15.9101 20.7226 14.6289 20.0117 13.3359 20.2578C12.0429 20.5039 11.1093 21.6328 11.1093 22.9453C11.1093 24.2617 12.0429 25.3906 13.3359 25.6367C14.6289 25.8828 15.9101 25.1719 16.3906 23.9453H25.4179V26.9375L25.4218 26.9414C23.5741 28.9453 22.0546 31.2266 20.914 33.7031H13.5273C13.0468 32.4804 11.7617 31.7695 10.4687 32.0156C9.17571 32.2617 8.24211 33.3906 8.24211 34.7031C8.24211 36.0195 9.1757 37.1484 10.4687 37.3945C11.7617 37.6367 13.0468 36.9297 13.5273 35.7031H20.0937H20.0898C19.1875 38.2109 18.6757 40.8437 18.5781 43.5078H7.5901C7.10963 42.2851 5.8245 41.5742 4.5315 41.8203C3.2385 42.0625 2.3049 43.1914 2.3049 44.5078C2.3049 45.8242 3.23849 46.9531 4.5315 47.1953C5.8245 47.4414 7.1096 46.7305 7.5901 45.5078H18.5781C18.6601 47.7656 19.039 50.0039 19.707 52.164H14.9258C14.6602 52.164 14.4063 52.2695 14.2188 52.457C14.0313 52.6445 13.9258 52.8984 13.9258 53.164V59.3867H5.2852C4.80473 58.164 3.5235 57.4531 2.2305 57.6992C0.9375 57.9453 0 59.0742 0 60.3867C0 61.7031 0.9375 62.832 2.2305 63.0781C3.5235 63.3203 4.8047 62.6133 5.2852 61.3867H14.9258C15.1914 61.3867 15.4453 61.2812 15.6328 61.0937C15.8203 60.9062 15.9258 60.6523 15.9258 60.3867V54.164H20.4219C21.5157 56.8788 23.0625 59.3945 24.9922 61.5937H22.9453H22.9492C22.6836 61.5937 22.4258 61.6992 22.2383 61.8867C22.0508 62.0742 21.9453 62.3281 21.9492 62.5937V72.6207C20.7226 73.1051 20.0156 74.3863 20.2578 75.6793C20.5039 76.9723 21.6328 77.9059 22.9453 77.9059C24.2617 77.9059 25.3906 76.9723 25.6367 75.6793C25.8789 74.3863 25.1719 73.1051 23.9492 72.6246V63.5934H26.9414C28.9453 65.4411 31.2266 66.9606 33.7031 68.1012V75.4918V75.4879C32.4804 75.9684 31.7695 77.2535 32.0156 78.5465C32.2578 79.8395 33.3906 80.7731 34.7031 80.7731C36.0195 80.7731 37.1484 79.8395 37.3945 78.5465C37.6367 77.2535 36.9297 75.9684 35.7031 75.4879V68.9254C38.2109 69.8277 40.8437 70.3395 43.5078 70.4371V81.4251C42.2812 81.9056 41.5742 83.1907 41.8164 84.4837C42.0625 85.7767 43.1914 86.7103 44.5078 86.7103C45.8242 86.7103 46.9531 85.7767 47.1992 84.4837C47.4414 83.1907 46.7344 81.9056 45.5078 81.4251V70.4371C47.7656 70.3551 50.0039 69.9762 52.164 69.3121V74.0894C52.164 74.355 52.2695 74.6089 52.457 74.7964C52.6445 74.9839 52.8984 75.0894 53.164 75.0894H59.3867V83.73C58.164 84.2105 57.4531 85.4917 57.6992 86.7847C57.9414 88.0777 59.0742 89.0152 60.3867 89.0152C61.7031 89.0152 62.832 88.0777 63.0781 86.7847C63.3203 85.4917 62.6133 84.2105 61.3867 83.73V74.0894C61.3867 73.8238 61.2812 73.5699 61.0937 73.3824C60.9062 73.1949 60.6523 73.0894 60.3867 73.0894H54.164V68.5933C56.8828 67.4995 59.3945 65.9527 61.5937 64.023V66.0699C61.5937 66.3316 61.6992 66.5894 61.8867 66.7769C62.0742 66.9644 62.3281 67.0699 62.5937 67.0699H72.6247C73.1052 68.2926 74.3864 69.0035 75.6794 68.7574C76.9724 68.5113 77.906 67.3824 77.906 66.0699C77.906 64.7535 76.9724 63.6246 75.6794 63.3785C74.3864 63.1324 73.1052 63.8433 72.6247 65.0699H63.5935V62.0738C65.4412 60.0699 66.9607 57.7886 68.1013 55.3121H75.4919H75.488C75.9685 56.5348 77.2536 57.2457 78.5466 56.9996C79.8396 56.7535 80.7732 55.6246 80.7732 54.3121C80.7732 52.9957 79.8396 51.8668 78.5466 51.6207C77.2536 51.3785 75.9685 52.0855 75.488 53.3121H68.9255C69.8278 50.8043 70.3396 48.1715 70.4372 45.5074H77.9099C78.3904 46.7301 79.6716 47.441 80.9646 47.1949C82.2576 46.9527 83.1951 45.8238 83.1951 44.5074C83.1951 43.191 82.2576 42.0621 80.9646 41.8199C79.6716 41.5738 78.3904 42.2847 77.9099 43.5074H70.4372C70.3552 41.2496 69.9763 39.0113 69.3083 36.8512H74.0895C74.3551 36.8512 74.609 36.7457 74.7965 36.5582C74.984 36.3707 75.0895 36.1168 75.0895 35.8512V29.6285H83.7301C84.1012 30.5699 84.9645 31.2301 85.9723 31.3433C86.9762 31.4527 87.9645 30.9996 88.5348 30.1636C89.1051 29.3238 89.1637 28.2378 88.691 27.3433C88.2145 26.4488 87.2849 25.8902 86.2691 25.8902H86.2692ZM66.0702 13.1132C66.3671 13.1132 66.6366 13.2929 66.7499 13.5702C66.8632 13.8437 66.8007 14.1601 66.5897 14.371C66.3788 14.582 66.0624 14.6445 65.785 14.5312C65.5116 14.4179 65.3319 14.1484 65.3319 13.8515C65.3319 13.4452 65.66 13.1171 66.0702 13.1132ZM54.3122 10.246C54.6091 10.2499 54.8786 10.4296 54.9919 10.703C55.1052 10.9804 55.0427 11.2968 54.8317 11.5077C54.6208 11.7148 54.3044 11.7812 54.027 11.664C53.7536 11.5507 53.5739 11.2812 53.5739 10.9843C53.5739 10.578 53.906 10.246 54.3122 10.246ZM28.6282 2.0077C28.9251 2.0077 29.1946 2.18739 29.3079 2.46473C29.4212 2.73817 29.3587 3.05457 29.1477 3.26551C28.9368 3.47645 28.6204 3.53895 28.343 3.42567C28.0696 3.31239 27.8899 3.04286 27.8899 2.74598C27.8899 2.33582 28.2219 2.0077 28.6282 2.0077H28.6282ZM13.8512 23.6837C13.5543 23.6837 13.2848 23.504 13.1715 23.2306C13.0543 22.9532 13.1207 22.6368 13.3278 22.4259C13.5387 22.215 13.859 22.1525 14.1325 22.2657C14.4098 22.379 14.5895 22.6485 14.5895 22.9454C14.5856 23.3556 14.2575 23.6837 13.8512 23.6837ZM10.984 35.4417C10.6871 35.4417 10.4176 35.262 10.3043 34.9847C10.191 34.7112 10.2535 34.3948 10.4645 34.1839C10.6754 33.9729 10.9918 33.9104 11.2653 34.0237C11.5426 34.137 11.7223 34.4065 11.7223 34.7034C11.7223 35.1136 11.3903 35.4417 10.984 35.4417ZM5.0465 45.2464C4.74963 45.2464 4.48009 45.0667 4.36681 44.7894C4.25353 44.5159 4.31603 44.1995 4.52697 43.9886C4.73791 43.7777 5.05431 43.7152 5.32775 43.8284C5.60509 43.9417 5.78478 44.2112 5.78478 44.5081C5.78478 44.9144 5.45275 45.2425 5.0465 45.2464ZM2.7457 61.1254C2.44492 61.1254 2.17929 60.9457 2.06211 60.6723C1.94883 60.3949 2.01133 60.0785 2.22227 59.8676C2.43321 59.6566 2.74961 59.5941 3.02696 59.7074C3.3004 59.8207 3.48008 60.0902 3.48008 60.3871C3.48008 60.7934 3.15196 61.1254 2.7457 61.1254V61.1254ZM22.9447 75.9024C22.6478 75.9024 22.3783 75.7227 22.265 75.4454C22.1517 75.1719 22.2142 74.8555 22.4252 74.6446C22.6361 74.4337 22.9525 74.3711 23.2299 74.4844C23.5033 74.5977 23.683 74.8672 23.683 75.1641C23.683 75.5704 23.3549 75.8985 22.9447 75.9024ZM34.7027 78.7696C34.4058 78.7657 34.1363 78.586 34.023 78.3126C33.9097 78.0352 33.9722 77.7188 34.1832 77.5079C34.3941 77.3008 34.7105 77.2344 34.9879 77.3516C35.2613 77.4649 35.441 77.7344 35.441 78.0313C35.441 78.4376 35.109 78.7696 34.7027 78.7696ZM60.3867 87.0079C60.0898 87.0079 59.8203 86.8282 59.707 86.5509C59.5937 86.2774 59.6562 85.961 59.8672 85.7501C60.0781 85.5392 60.3945 85.4767 60.6719 85.5899C60.9453 85.7032 61.125 85.9727 61.125 86.2696C61.125 86.6798 60.793 87.0079 60.3867 87.0079H60.3867ZM75.1637 65.3319C75.4606 65.3319 75.7301 65.5116 75.8434 65.785C75.9606 66.0624 75.8942 66.3788 75.6871 66.5897C75.4762 66.8007 75.1559 66.8632 74.8825 66.7499C74.6051 66.6366 74.4254 66.3671 74.4254 66.0702C74.4293 65.66 74.7575 65.3319 75.1637 65.3319ZM78.0309 53.5739C78.3278 53.5739 78.5973 53.7536 78.7106 54.0309C78.8239 54.3044 78.7614 54.6208 78.5504 54.8317C78.3395 55.0427 78.0231 55.1052 77.7496 54.9919C77.4723 54.8786 77.2926 54.6091 77.2926 54.3122C77.2926 53.902 77.6246 53.5739 78.0309 53.5739ZM44.5079 4.3079C44.8048 4.31181 45.0743 4.49149 45.1876 4.76493C45.3009 5.04227 45.2384 5.35868 45.0274 5.56962C44.8165 5.78056 44.5001 5.84306 44.2267 5.72978C43.9493 5.61259 43.7696 5.34697 43.7696 5.04619C43.7696 4.63994 44.1017 4.31182 44.5079 4.30791V4.3079ZM44.5079 84.7029V84.7068C44.211 84.7029 43.9415 84.5232 43.8282 84.2498C43.7149 83.9724 43.7774 83.656 43.9884 83.4451C44.1993 83.2342 44.5157 83.1716 44.7892 83.2849C45.0665 83.4021 45.2462 83.6677 45.2462 83.9685C45.2462 84.3748 44.9142 84.7029 44.5079 84.7068V84.7029ZM44.5079 68.4609V68.4648C38.1524 68.4648 32.0629 65.9414 27.5669 61.4492C23.0747 56.957 20.5513 50.8632 20.5513 44.5082C20.5513 38.1566 23.0747 32.0632 27.5669 27.5672C32.0591 23.075 38.1529 20.5516 44.5079 20.5516C50.8595 20.5516 56.9529 23.075 61.4459 27.5672C65.942 32.0633 68.4654 38.1532 68.4654 44.5082C68.4576 50.8598 65.9302 56.9492 61.4381 61.4422C56.9498 65.9305 50.8601 68.4578 44.5081 68.4656L44.5079 68.4609ZM80.4529 43.7699C80.7498 43.7699 81.0193 43.9496 81.1326 44.2269C81.2459 44.5004 81.1834 44.8207 80.9724 45.0277C80.7615 45.2387 80.4451 45.3012 80.1677 45.1879C79.8943 45.0746 79.7146 44.8051 79.7146 44.5082C79.7146 44.1019 80.0427 43.7699 80.4529 43.7699ZM86.2693 29.3639C85.9724 29.3639 85.7029 29.1842 85.5896 28.9108C85.4763 28.6334 85.5388 28.317 85.7498 28.1061C85.9607 27.8952 86.2771 27.8327 86.5545 27.9459C86.8279 28.0631 87.0076 28.3287 87.0076 28.6295C87.0076 29.0358 86.6756 29.3639 86.2693 29.3639Z" fill="#0E80E1"/>
</svg>
