<svg width="95" height="95" viewBox="0 0 95 95" fill="none" xmlns="http://www.w3.org/2000/svg">
<path d="M23.6211 82.086C17.9414 82.0587 13.3551 77.4376 13.3711 71.758C13.3711 70.715 13.5313 69.676 13.8399 68.6799C14.8672 65.2424 17.6329 62.6057 21.1094 61.7424C24.5899 60.8791 28.2656 61.9143 30.7813 64.469C31.2461 64.9417 31.2422 65.6995 30.7696 66.1682C30.3008 66.633 29.5391 66.6291 29.0704 66.1565C27.1485 64.2034 24.336 63.4104 21.6798 64.0745C19.0196 64.7385 16.9103 66.762 16.1329 69.387C15.6329 70.9925 15.6563 72.7151 16.1915 74.3089C17.0274 76.9691 19.2306 78.973 21.9571 79.5589C24.6837 80.1448 27.5157 79.219 29.3712 77.137C29.5782 76.8753 29.8829 76.7073 30.2188 76.6799C30.5548 76.6526 30.8829 76.7659 31.129 76.9924C31.3751 77.219 31.5157 77.5393 31.5157 77.8753C31.5157 78.2112 31.379 78.5315 31.1329 78.7581C29.2071 80.8753 26.4806 82.0823 23.6212 82.0862L23.6211 82.086Z" fill="#0E80E1"/>
<path d="M23.0001 70.2583H12.3711C11.707 70.2583 11.1719 69.7192 11.1719 69.0591C11.1719 68.395 11.707 67.8599 12.3711 67.8599H23.0001C23.6641 67.8599 24.1993 68.395 24.1993 69.0591C24.1993 69.7192 23.6641 70.2583 23.0001 70.2583Z" fill="#0E80E1"/>
<path d="M23.0001 75.9062H12.3711C11.707 75.9062 11.1719 75.371 11.1719 74.707C11.1719 74.0468 11.707 73.5078 12.3711 73.5078H23.0001C23.6641 73.5078 24.1993 74.0469 24.1993 74.707C24.1993 75.3711 23.6641 75.9062 23.0001 75.9062Z" fill="#0E80E1"/>
<path d="M46.7497 45.7581C40.6755 45.7933 34.8357 43.4104 30.5197 39.1331C26.2033 34.8597 23.7658 29.0391 23.7424 22.9651C23.7189 16.8909 26.1135 11.0551 30.3947 6.74614C34.6799 2.43754 40.4997 0.0117427 46.5787 4.26751e-05C52.6529 -0.0116763 58.4847 2.39064 62.7857 6.68364C67.0865 10.9766 69.5005 16.8006 69.5005 22.8786C69.5122 28.9255 67.1216 34.7336 62.856 39.0236C58.5943 43.3127 52.801 45.7345 46.751 45.758L46.7497 45.7581ZM46.7497 2.40614C41.3122 2.37489 36.0817 4.50384 32.2147 8.33194C28.3475 12.1561 26.1639 17.3631 26.1405 22.8049C26.117 28.2424 28.2616 33.4689 32.0975 37.3279C35.9334 41.1834 41.1444 43.3591 46.5855 43.367C52.023 43.3788 57.2415 41.2225 61.0935 37.3787C64.9412 33.5349 67.1052 28.3162 67.1013 22.8787C67.113 17.4646 64.9763 12.2697 61.1599 8.42974C57.3435 4.58994 52.1638 2.42194 46.7499 2.39854L46.7497 2.40614Z" fill="#0E80E1"/>
<path d="M71.7419 94.7581C65.6638 94.7933 59.8239 92.4104 55.5079 88.1331C51.1915 83.8597 48.754 78.0391 48.7306 71.9651C48.7072 65.8911 51.1017 60.0551 55.3868 55.7461C59.672 51.4375 65.4918 49.0117 71.5668 49C77.6449 48.9883 83.4728 51.3906 87.7738 55.6836C92.0746 59.9766 94.4926 65.8006 94.4926 71.8786C94.5005 77.9255 92.1137 83.7336 87.8481 88.0236C83.5825 92.3127 77.7891 94.7345 71.7431 94.758L71.7419 94.7581ZM71.7419 51.4061C66.3005 51.3749 61.0699 53.5038 57.2069 57.3319C53.3397 61.1561 51.1522 66.3631 51.1327 71.8049C51.1093 77.2424 53.2499 82.4689 57.0858 86.3279C60.9217 90.1834 66.1327 92.3591 71.5738 92.367C77.0152 92.3788 82.2338 90.2225 86.0818 86.3787C89.9334 82.5349 92.0935 77.3162 92.0896 71.8787C92.0975 66.4685 89.9607 61.2737 86.1482 57.4377C82.3318 53.6018 77.1521 51.4299 71.7422 51.4065L71.7419 51.4061Z" fill="#0E80E1"/>
<path d="M71.4228 81.2461C70.7588 81.2461 70.2236 80.7109 70.2236 80.0469V70.6289C70.2236 69.9648 70.7588 69.4297 71.4228 69.4297C72.083 69.4297 72.622 69.9648 72.622 70.6289V80.0508V80.0469C72.622 80.7109 72.083 81.2461 71.4228 81.2461V81.2461Z" fill="#0E80E1"/>
<path d="M72.5129 71.5083H70.5129L65.3723 65.3481C65.1614 65.1059 65.052 64.7856 65.0793 64.4653C65.1028 64.145 65.259 63.8442 65.5051 63.6372C65.7512 63.4301 66.0715 63.3325 66.3957 63.3637C66.7161 63.395 67.009 63.5552 67.2122 63.8091L71.4934 68.9301L75.8137 63.7582C76.2355 63.2465 76.9895 63.1762 77.5012 63.5981C78.0129 64.02 78.0832 64.7778 77.6613 65.2895L72.5129 71.5083Z" fill="#0E80E1"/>
<path d="M75.4805 72.7583H67.3711C66.707 72.7583 66.1719 72.2192 66.1719 71.5591C66.1719 70.895 66.707 70.3599 67.3711 70.3599H75.4922C76.1523 70.3599 76.6875 70.8989 76.6875 71.563C76.6836 72.227 76.1445 72.7622 75.4805 72.7583Z" fill="#0E80E1"/>
<path d="M75.4805 77.1679H67.3711C66.707 77.1679 66.168 76.6289 66.168 75.9609C66.168 75.2969 66.707 74.7578 67.3711 74.7578H75.4922C76.1562 74.7617 76.6953 75.3008 76.6914 75.9687C76.6875 76.6328 76.1484 77.1718 75.4805 77.1679Z" fill="#0E80E1"/>
<path d="M23.0005 94.7581C16.9263 94.7894 11.0865 92.4026 6.77352 88.1292C2.45712 83.8519 0.0235185 78.0352 0.000118547 71.9572C-0.0194125 65.883 2.37512 60.0512 6.66032 55.7422C10.9455 51.4336 16.7653 49.0078 22.8403 49C28.9145 48.9883 34.7463 51.3945 39.0473 55.6836C43.3442 59.9766 45.7621 65.8046 45.7621 71.8786C45.7738 77.9294 43.3832 83.7336 39.1137 88.0266C34.8481 92.3157 29.0517 94.7375 23.0007 94.7571L23.0005 94.7581ZM23.0005 51.4061C17.563 51.3788 12.3365 53.5155 8.47352 57.3436C4.61022 61.1717 2.43052 66.3788 2.41102 71.8166C2.39539 77.258 4.53992 82.4806 8.37582 86.3326C12.2117 90.1881 17.4227 92.3599 22.8598 92.3678C28.3012 92.3757 33.5198 90.2194 37.3678 86.3756C41.2158 82.5318 43.3756 77.317 43.3717 71.8796C43.3795 66.4655 41.2389 61.2706 37.4186 57.4306C33.6022 53.5947 28.4147 51.4267 23.0006 51.4072L23.0005 51.4061Z" fill="#0E80E1"/>
<path d="M46.9023 30.9882C44.125 31.1014 41.7773 28.953 41.6406 26.1796C41.6406 25.5155 42.1797 24.9765 42.8398 24.9765C43.5039 24.9765 44.0429 25.5155 44.0429 26.1796C44.2773 27.5741 45.4843 28.5976 46.9023 28.5976C48.3164 28.5976 49.5273 27.5742 49.7617 26.1796C49.6289 24.7265 48.3555 23.6484 46.9023 23.7577C46.2383 23.7577 45.6992 23.2186 45.6992 22.5585C45.6992 21.8944 46.2383 21.3593 46.9023 21.3593C49.6796 21.246 52.0273 23.3905 52.1601 26.1679C52.0312 28.9491 49.6796 31.1015 46.9023 30.9882Z" fill="#0E80E1"/>
<path d="M46.9023 23.7583C44.125 23.8716 41.7773 21.7231 41.6406 18.9497C41.8789 16.2192 44.164 14.1255 46.9023 14.1255C49.6406 14.1255 51.9218 16.2193 52.1601 18.9497C52.1601 19.6098 51.625 20.1489 50.9609 20.1489C50.2969 20.1489 49.7617 19.6098 49.7617 18.9497C49.5273 17.5513 48.3164 16.5278 46.9023 16.5278C45.4843 16.5278 44.2773 17.5512 44.0429 18.9497C44.1796 20.395 45.4491 21.4692 46.9023 21.3599C47.5625 21.3599 48.1015 21.895 48.1015 22.5591C48.1015 23.2192 47.5625 23.7583 46.9023 23.7583Z" fill="#0E80E1"/>
<path d="M46.3711 16.2783C45.8203 16.2783 45.3711 15.833 45.3711 15.2783V13.2783C45.3711 12.7275 45.8203 12.2783 46.3711 12.2783C46.9219 12.2783 47.3711 12.7275 47.3711 13.2783V15.2783C47.3711 15.5439 47.2656 15.7978 47.0781 15.9853C46.8906 16.1728 46.6367 16.2783 46.3711 16.2783Z" fill="#0E80E1"/>
<path d="M46.3711 33.2783C45.8203 33.2783 45.3711 32.833 45.3711 32.2783V30.2783C45.3711 29.7275 45.8203 29.2783 46.3711 29.2783C46.9219 29.2783 47.3711 29.7275 47.3711 30.2783V32.2783C47.3711 32.5439 47.2656 32.7979 47.0781 32.9854C46.8906 33.1729 46.6367 33.2783 46.3711 33.2783Z" fill="#0E80E1"/>
</svg>
