<svg width="70" height="72" viewBox="0 0 70 72" fill="none" xmlns="http://www.w3.org/2000/svg">
<path d="M4.97722 53.7538H1.9909V1.9909H41.8085V4.97722C41.8085 5.5272 42.254 5.97266 42.804 5.97266C43.354 5.97266 43.7994 5.5272 43.7994 4.97722V0.99546C43.7994 0.73167 43.6949 0.477831 43.5082 0.291166C43.3216 0.104501 43.0678 0 42.804 0H0.995441C0.445461 0 0 0.445461 0 0.995441V54.7493C0 55.013 0.10452 55.2669 0.291166 55.4536C0.477812 55.6402 0.731651 55.7447 0.99546 55.7447H4.97722C5.5272 55.7447 5.97266 55.2993 5.97266 54.7493C5.97266 54.1993 5.5272 53.7538 4.97722 53.7538Z" fill="#0E80E1"/>
<path d="M58.0546 58.636L61.3321 55.3585C61.7228 54.9828 62.3449 54.9877 62.7282 55.371C63.1114 55.7542 63.1164 56.3764 62.7406 56.7671L58.7589 60.7488C58.5722 60.9355 58.3184 61.04 58.0546 61.04C57.7907 61.04 57.5369 60.9355 57.3503 60.7488L55.3594 58.758C54.9836 58.3673 54.9886 57.7451 55.3718 57.3619C55.7551 56.9786 56.3772 56.9736 56.7679 57.3494L58.0546 58.636ZM69.9999 52.0811V56.904C70.0098 60.0894 69.0592 63.2051 67.2749 65.8429C65.4881 68.4808 62.9497 70.5189 59.988 71.6911L59.4181 71.9176C59.1817 72.0146 58.9179 72.0146 58.6789 71.9176L58.1115 71.6911C55.1501 70.519 52.6117 68.4783 50.8246 65.8404C49.0378 63.205 48.0896 60.0892 48.0996 56.904V52.0811C48.0996 51.7302 48.2837 51.4067 48.5824 51.2276L58.5368 45.2549C58.8528 45.0658 59.246 45.0658 59.5621 45.2549L69.5165 51.2276C69.8151 51.4067 69.9999 51.7302 69.9999 52.0811ZM68.009 52.646L59.0504 47.2706L50.0917 52.646V56.904C50.0818 59.6912 50.913 62.4162 52.4758 64.7229C54.0386 67.0323 56.261 68.8167 58.8517 69.842L59.0508 69.9216L59.2499 69.842C61.8405 68.8167 64.0629 67.0323 65.6258 64.7254C67.1886 62.416 68.0198 59.691 68.0099 56.904L68.009 52.646ZM37.15 33.1678V29.9028L36.2068 29.5892C34.9849 29.1836 34.1637 28.0413 34.1637 26.7547V26.1998C34.1662 24.5523 35.5026 23.2159 37.15 23.2134V22.218C37.15 21.668 37.5955 21.2225 38.1455 21.2225C38.6954 21.2225 39.1409 21.668 39.1409 22.218V23.2134C40.7883 23.2159 42.1247 24.5523 42.1272 26.1998C42.1272 26.7497 41.6818 27.1952 41.1318 27.1952C40.5818 27.1952 40.1364 26.7497 40.1364 26.1998C40.1364 25.6498 39.6909 25.2043 39.1409 25.2043V28.4694L40.0841 28.7829C41.306 29.1886 42.1272 30.3308 42.1272 31.6174V32.1724C42.1247 33.8198 40.7883 35.1562 39.1409 35.1587V36.1542C39.1409 36.7041 38.6954 37.1496 38.1455 37.1496C37.5955 37.1496 37.15 36.7041 37.15 36.1542V35.1587C35.5026 35.1562 34.1662 33.8198 34.1637 32.1724C34.1637 31.6224 34.6092 31.1769 35.1591 31.1769C35.7091 31.1769 36.1546 31.6224 36.1546 32.1724C36.1546 32.7224 36.6 33.1678 37.15 33.1678ZM37.15 27.8049V25.2043C36.6 25.2043 36.1546 25.6498 36.1546 26.1997V26.7547C36.1546 27.1852 36.4283 27.566 36.8365 27.7004L37.15 27.8049ZM39.1409 33.1678C39.6909 33.1678 40.1364 32.7224 40.1364 32.1724V31.6174C40.1364 31.1869 39.8626 30.8062 39.4545 30.6717L39.1409 30.5672L39.1409 33.1678ZM52.619 70.9946C52.619 71.2584 52.5145 71.5122 52.3279 71.6989C52.1412 71.8855 51.8874 71.99 51.6236 71.99H17.2409C16.6909 71.99 16.2454 71.5446 16.2454 70.9946V24.2086C16.2529 23.9473 16.3574 23.6984 16.5341 23.5092L16.5366 23.5043L23.5025 16.5384L23.5099 16.5334C23.6991 16.3542 23.9479 16.2522 24.2092 16.2447H59.05C59.3138 16.2447 59.5676 16.3493 59.7543 16.5359C59.9409 16.7226 60.0454 16.9764 60.0454 17.2402V42.1259C60.0454 42.6759 59.6 43.1214 59.05 43.1214C58.5 43.1214 58.0546 42.6759 58.0546 42.1259V18.2353H25.2053V24.208C25.2053 24.4718 25.1008 24.7256 24.9142 24.9123C24.7275 25.0989 24.4737 25.2034 24.2099 25.2034H18.2372V69.998H51.6242C51.888 69.998 52.1418 70.1025 52.3285 70.2891C52.5151 70.4758 52.6196 70.7296 52.6196 70.9934L52.619 70.9946ZM19.6449 23.2134H23.2136V19.6447L19.6449 23.2134ZM13.2594 62.0359H10.2731V10.273H50.0908V13.2593C50.0908 13.8093 50.5362 14.2548 51.0862 14.2548C51.6362 14.2548 52.0816 13.8093 52.0816 13.2593V9.27756C52.0816 9.01377 51.9771 8.75994 51.7905 8.57327C51.6038 8.38661 51.35 8.2821 51.0862 8.2821H9.27767C8.72769 8.2821 8.28223 8.72757 8.28223 9.27755V63.0314C8.28223 63.2951 8.38675 63.549 8.57339 63.7357C8.76004 63.9223 9.01388 64.0268 9.27769 64.0268H13.2594C13.8094 64.0268 14.2549 63.5814 14.2549 63.0314C14.2549 62.4814 13.8094 62.0359 13.2594 62.0359ZM55.068 41.132C55.068 40.8682 54.9634 40.6144 54.7768 40.4277C54.5901 40.241 54.3363 40.1365 54.0725 40.1365H22.2184C21.6684 40.1365 21.223 40.582 21.223 41.132C21.223 41.682 21.6684 42.1274 22.2184 42.1274H54.0725C54.3363 42.1274 54.5901 42.0229 54.7768 41.8362C54.9635 41.6496 55.068 41.3958 55.068 41.132ZM50.0908 46.1092C50.0908 45.8454 49.9862 45.5916 49.7996 45.4049C49.6129 45.2182 49.3591 45.1137 49.0953 45.1137H28.1914C27.6414 45.1137 27.1959 45.5592 27.1959 46.1092C27.1959 46.6592 27.6414 47.1046 28.1914 47.1046H49.0953C49.3591 47.1046 49.6129 47.0001 49.7996 46.8134C49.9863 46.6268 50.0908 46.373 50.0908 46.1092ZM28.1911 52.0818H38.1455C38.6954 52.0818 39.1409 51.6364 39.1409 51.0864C39.1409 50.5364 38.6954 50.091 38.1455 50.091H28.1911C27.6411 50.091 27.1956 50.5364 27.1956 51.0864C27.1956 51.6364 27.6411 52.0818 28.1911 52.0818ZM45.1132 55.0682H28.1911C27.6411 55.0682 27.1956 55.5136 27.1956 56.0636C27.1956 56.6136 27.6411 57.059 28.1911 57.059H45.1132C45.6632 57.059 46.1087 56.6136 46.1087 56.0636C46.1087 55.5136 45.6632 55.0682 45.1132 55.0682ZM28.1911 62.0366H38.1455C38.6954 62.0366 39.1409 61.5911 39.1409 61.0411C39.1409 60.4911 38.6954 60.0457 38.1455 60.0457H28.1911C27.6411 60.0457 27.1956 60.4911 27.1956 61.0411C27.1956 61.5911 27.6411 62.0366 28.1911 62.0366ZM28.1911 67.0138H45.1132C45.6632 67.0138 46.1087 66.5683 46.1087 66.0183C46.1087 65.4683 45.6632 65.0229 45.1132 65.0229H28.1911C27.6411 65.0229 27.1956 65.4683 27.1956 66.0183C27.1956 66.5683 27.6411 67.0138 28.1911 67.0138ZM24.2093 45.1141H22.2184C21.6684 45.1141 21.223 45.5595 21.223 46.1095C21.223 46.6595 21.6684 47.105 22.2184 47.105H24.2093C24.7593 47.105 25.2047 46.6595 25.2047 46.1095C25.2047 45.5595 24.7593 45.1141 24.2093 45.1141ZM24.2093 50.0913H22.2184C21.6684 50.0913 21.223 50.5367 21.223 51.0867C21.223 51.6367 21.6684 52.0822 22.2184 52.0822H24.2093C24.7593 52.0822 25.2047 51.6367 25.2047 51.0867C25.2047 50.5367 24.7593 50.0913 24.2093 50.0913ZM24.2093 55.0685H22.2184C21.6684 55.0685 21.223 55.5139 21.223 56.0639C21.223 56.6139 21.6684 57.0594 22.2184 57.0594H24.2093C24.7593 57.0594 25.2047 56.6139 25.2047 56.0639C25.2047 55.5139 24.7593 55.0685 24.2093 55.0685ZM24.2093 60.0457H22.2184C21.6684 60.0457 21.223 60.4911 21.223 61.0411C21.223 61.5911 21.6684 62.0366 22.2184 62.0366H24.2093C24.7593 62.0366 25.2047 61.5911 25.2047 61.0411C25.2047 60.4911 24.7593 60.0457 24.2093 60.0457ZM24.2093 65.0229H22.2184C21.6684 65.0229 21.223 65.4683 21.223 66.0183C21.223 66.5683 21.6684 67.0138 22.2184 67.0138H24.2093C24.7593 67.0138 25.2047 66.5683 25.2047 66.0183C25.2047 65.4683 24.7593 65.0229 24.2093 65.0229Z" fill="#0E80E1"/>
</svg>
