<svg width="93" height="93" viewBox="0 0 93 93" fill="none" xmlns="http://www.w3.org/2000/svg">
<path fill-rule="evenodd" clip-rule="evenodd" d="M22.1462 46.2036C22.1462 39.8247 24.6804 33.7107 29.1883 29.1989C33.6998 24.691 39.8141 22.1569 46.1929 22.1569C52.5719 22.1569 58.686 24.6911 63.1978 29.1991C67.7056 33.7106 70.2396 39.8248 70.2396 46.2036C70.2396 52.5824 67.7055 58.6964 63.1976 63.2082C58.6861 67.7161 52.5719 70.2503 46.1929 70.2503C39.8142 70.2503 33.7003 67.7162 29.1885 63.2084C24.6805 58.6969 22.1462 52.5825 22.1462 46.2036ZM44.9044 26.7151C44.9045 26.436 44.7496 26.1799 44.5024 26.0504C44.2551 25.9209 43.9565 25.9394 43.7271 26.0984C40.7636 28.1526 38.4169 30.9742 36.9391 34.2628C36.8565 34.4466 36.8513 34.6559 36.9247 34.8435C36.9981 35.0311 37.1439 35.1813 37.3293 35.2603C39.4514 36.1641 41.6908 36.7609 43.9814 37.0393C44.2306 37.097 44.4959 37.0238 44.6808 36.8389L44.6847 36.835C44.8463 36.6734 44.9231 36.4497 44.9005 36.2283L44.9044 26.7151ZM48.6567 26.0963C48.4271 25.9388 48.1292 25.9215 47.8829 26.0512C47.6366 26.1809 47.4824 26.4364 47.4824 26.7148V36.3086C47.4824 36.7228 47.8182 37.0586 48.2324 37.0586C48.2899 37.0586 48.3458 37.0521 48.3995 37.0399C50.6624 36.7615 52.8702 36.1639 54.9603 35.2585C55.3386 35.0946 55.5137 34.656 55.3522 34.2766C53.9448 30.9695 51.6222 28.1302 48.6567 26.0963ZM55.4777 26.9467C55.1581 26.8053 54.7832 26.9034 54.5738 27.1833C54.3644 27.4631 54.3761 27.8505 54.602 28.1172C55.7857 29.5152 56.7749 31.0672 57.5469 32.7289C57.5685 32.7777 57.5956 32.8247 57.6282 32.8692C57.6405 32.8859 57.6534 32.9021 57.667 32.9177C57.783 33.0512 57.9377 33.1349 58.1019 33.164C58.1269 33.1685 58.1521 33.1716 58.1774 33.1735C58.3235 33.1844 58.4735 33.1527 58.6077 33.0752C58.6185 33.069 58.629 33.0626 58.6395 33.0558C59.3338 32.6133 59.982 32.1093 60.584 31.5486C60.7326 31.4101 60.8187 31.2172 60.8226 31.0141C60.8265 30.811 60.7478 30.615 60.6046 30.4709C59.1286 28.9867 57.3909 27.7929 55.4777 26.9467ZM37.7845 28.1188C38.0138 27.8495 38.0238 27.4566 37.8084 27.176C37.593 26.8954 37.2109 26.8034 36.8914 26.9553C35.0228 27.8436 33.2973 29.0041 31.7654 30.3935C31.6742 30.4623 31.5989 30.5519 31.5465 30.6566L31.5426 30.6644C31.381 30.9877 31.4729 31.3803 31.7613 31.5982C31.7875 31.618 31.8147 31.6359 31.8426 31.6518L33.6185 33.0552C33.7196 33.1589 33.8513 33.2338 34.0014 33.2652C34.3492 33.3379 34.7003 33.1566 34.8423 32.8308C35.5863 31.1248 36.5784 29.5353 37.7845 28.1188ZM63.4315 33.514C63.3023 33.3376 63.1026 33.2265 62.8847 33.2095C62.6667 33.1926 62.4522 33.2716 62.2973 33.4258C61.4058 34.3136 60.4251 35.0995 59.3626 35.773C59.0771 35.9539 58.9479 36.3034 59.0471 36.6266C59.8016 39.0845 60.2361 41.6265 60.3428 44.1954C60.3595 44.5971 60.69 44.9143 61.0921 44.9143H66.807C67.0204 44.9143 67.2236 44.8234 67.3659 44.6644C67.5082 44.5055 67.576 44.2935 67.5525 44.0814C67.1277 40.2592 65.7041 36.6155 63.4315 33.514ZM29.938 33.4822C29.6929 33.2787 29.3461 33.2523 29.073 33.4162C28.9758 33.4745 28.8955 33.5524 28.8353 33.6426C26.632 36.7226 25.2543 40.3176 24.8348 44.0817C24.8111 44.2937 24.8789 44.5058 25.0212 44.6648C25.1635 44.8239 25.3668 44.9148 25.5801 44.9148H31.2949C31.7018 44.9148 32.0345 44.5904 32.0447 44.1836C32.1093 41.6196 32.5461 39.0777 33.3365 36.6381C33.4405 36.3171 33.3173 35.9661 33.0355 35.7805C31.9619 35.0737 30.9293 34.3051 29.938 33.4822ZM56.8152 38.1497C56.7577 37.9394 56.6115 37.7646 56.4147 37.6707C56.2179 37.5769 55.9901 37.5733 55.7904 37.6609C53.3717 38.7224 50.7971 39.3898 48.1615 39.6401C47.7765 39.6767 47.4824 40 47.4824 40.3868V44.1641C47.4824 44.5783 47.8182 44.9141 48.2324 44.9141H57.0098C57.2147 44.9141 57.4106 44.8303 57.5521 44.6822C57.6936 44.534 57.7684 44.3345 57.759 44.1299C57.6666 42.1055 57.3493 40.1013 56.8152 38.1497ZM36.5758 37.7537C36.3784 37.674 36.1564 37.682 35.9652 37.7756C35.774 37.8692 35.6316 38.0397 35.5735 38.2445C35.0302 40.1602 34.7122 42.1362 34.6277 44.1322C34.6191 44.3365 34.6942 44.5354 34.8356 44.683C34.9771 44.8305 35.1726 44.914 35.3771 44.914H44.1544C44.3534 44.914 44.5443 44.8348 44.685 44.694C44.8256 44.5532 44.9046 44.3622 44.9044 44.1632L44.9005 40.4631C44.9116 40.3551 44.8993 40.2441 44.8619 40.1377C44.7653 39.8632 44.5186 39.6693 44.2289 39.6404C41.6007 39.378 39.0255 38.7427 36.5758 37.7537ZM35.377 47.4922C35.1726 47.4922 34.977 47.5756 34.8356 47.7232C34.6941 47.8707 34.619 48.0696 34.6277 48.2739C34.7122 50.2699 35.0301 52.2458 35.5734 54.1616C35.6315 54.3664 35.7739 54.5369 35.9651 54.6305C36.1563 54.7242 36.3783 54.7321 36.5757 54.6524C39.0255 53.6634 41.6006 53.0282 44.2289 52.7657C44.6123 52.7275 44.9044 52.4048 44.9044 52.0195V48.2422C44.9044 47.8279 44.5686 47.4922 44.1544 47.4922H35.377ZM31.2954 47.4922L25.5805 47.4927C25.3671 47.4927 25.1639 47.5836 25.0216 47.7427C24.8793 47.9017 24.8115 48.1138 24.8352 48.3258C25.2556 52.0976 26.6384 55.6998 28.8499 58.7847C28.9712 58.9539 29.1573 59.065 29.3637 59.0916C29.5702 59.1181 29.7783 59.0577 29.9385 58.9248C30.93 58.1018 31.9624 57.3332 33.036 56.6265C33.3178 56.4409 33.4411 56.0899 33.337 55.7689C32.5467 53.3293 32.1098 50.7874 32.0452 48.2233C32.035 47.8166 31.7023 47.4922 31.2954 47.4922ZM48.2324 47.4923C47.8182 47.4923 47.4824 47.828 47.4824 48.2423V52.0087C47.4766 52.3981 47.771 52.7291 48.1614 52.7662C50.7972 53.0166 53.3716 53.6839 55.7904 54.7454C55.99 54.833 56.2179 54.8295 56.4147 54.7356C56.6114 54.6418 56.7576 54.4669 56.8152 54.2566C57.3493 52.305 57.6666 50.3009 57.759 48.2765C57.7683 48.0718 57.6935 47.8723 57.552 47.7242C57.4105 47.576 57.2146 47.4923 57.0097 47.4923H48.2324ZM61.092 47.4923C60.6899 47.4923 60.3594 47.8094 60.3427 48.2112C60.236 50.78 59.8015 53.322 59.047 55.78C58.9478 56.1031 59.077 56.4526 59.3625 56.6336C60.4218 57.3049 61.3998 58.0882 62.2892 58.9727C62.4282 59.1153 62.621 59.1993 62.8264 59.1993C63.0735 59.1993 63.3008 59.078 63.4393 58.8816C65.7072 55.7825 67.1281 52.1429 67.5523 48.3251C67.5758 48.1131 67.508 47.901 67.3657 47.7421C67.2234 47.5831 67.0202 47.4923 66.8068 47.4923H61.092ZM44.1544 55.3477C44.0974 55.3477 44.0419 55.354 43.9885 55.3661C41.6955 55.6441 39.4536 56.2412 37.3293 57.1459C37.1439 57.2249 36.9981 57.3751 36.9247 57.5627C36.8513 57.7503 36.8565 57.9596 36.939 58.1434C38.4168 61.432 40.7635 64.2536 43.7271 66.3079C43.9564 66.4668 44.255 66.4853 44.5022 66.3559C44.7494 66.2265 44.9044 65.9705 44.9044 65.6915V56.0977C44.9044 55.6834 44.5686 55.3477 44.1544 55.3477ZM48.3216 55.3569C48.1087 55.3314 47.895 55.3983 47.7346 55.5406C47.5742 55.6829 47.4824 55.8871 47.4824 56.1016V65.6915C47.4824 65.9698 47.6366 66.2253 47.8829 66.355C48.1292 66.4848 48.4271 66.4674 48.6567 66.31C51.6222 64.2759 53.9448 61.4367 55.3522 58.1297C55.5137 57.7503 55.3386 57.3117 54.9603 57.1478C52.8462 56.2319 50.6117 55.631 48.3216 55.3569ZM34.1504 59.1251C33.9817 59.1251 33.8178 59.182 33.6854 59.2866L31.7479 60.8178C31.5753 60.9543 31.4713 61.1596 31.4634 61.3795C31.4556 61.5993 31.5446 61.8116 31.7071 61.96C33.2534 63.3727 34.9988 64.5513 36.891 65.4508C36.9121 65.4609 36.9338 65.47 36.9558 65.478C37.0337 65.5065 37.1146 65.5214 37.1952 65.5233C37.2958 65.5256 37.3947 65.5078 37.4866 65.4718C37.571 65.4387 37.6495 65.3903 37.7177 65.3282C37.7266 65.3201 37.7353 65.3118 37.7438 65.3033L37.7477 65.2994C38.0402 65.0063 38.0399 64.5316 37.7469 64.239C37.743 64.235 37.739 64.2312 37.735 64.2274C37.7321 64.2245 37.7291 64.2218 37.7262 64.219C36.5462 62.8199 35.574 61.254 34.8418 59.5752C34.7226 59.3018 34.4526 59.1251 34.1544 59.1251H34.1504ZM54.602 64.2888C55.7879 62.8884 56.7785 61.3332 57.5511 59.6681C57.5546 59.6604 57.5583 59.6527 57.5621 59.6451L57.566 59.6373C57.7513 59.2668 58.2018 59.1166 58.5723 59.3018C58.6323 59.3319 58.6866 59.3689 58.7346 59.4114C59.3932 59.8391 60.0096 60.3224 60.584 60.8575C60.7326 60.996 60.8187 61.1888 60.8226 61.392C60.8265 61.5951 60.7478 61.7911 60.6045 61.9351C59.1285 63.4193 57.3909 64.6131 55.4777 65.4594C55.1581 65.6008 54.7832 65.5026 54.5738 65.2228C54.3644 64.9429 54.3761 64.5555 54.602 64.2888Z" fill="#0E80E1"/>
<path d="M43.6098 5.78826L41.7771 7.7183C41.7541 7.74183 41.7326 7.767 41.7127 7.7937C41.4892 8.09328 41.147 8.27924 40.771 8.30663C40.3986 8.33377 40.0354 8.19844 39.7724 7.93305L39.7699 7.93053C39.507 7.66767 39.3699 7.3026 39.3941 6.92704C39.4219 6.55474 39.6098 6.21124 39.9092 5.98611C39.9411 5.96209 39.9711 5.93557 39.9988 5.90679L45.3035 0.395086L45.3146 0.383268C45.5389 0.139874 45.858 0 46.1928 0C46.5276 0 46.8467 0.139879 47.071 0.383261L47.0821 0.395086L52.3868 5.90679C52.398 5.91846 52.4096 5.92976 52.4216 5.94068C52.6667 6.16434 52.8061 6.48207 52.8061 6.8164C52.8061 7.14911 52.6679 7.46348 52.4216 7.68822C52.4103 7.69851 52.3994 7.70914 52.3888 7.72009C52.155 7.96115 51.8303 8.10058 51.4866 8.10556L51.4705 8.10596C51.1534 8.11737 50.8453 7.9848 50.6334 7.74527C50.6132 7.72242 50.5918 7.70096 50.5692 7.68096L48.7763 5.78884C48.5651 5.56597 48.2394 5.49433 47.9542 5.60799C47.669 5.72165 47.4819 5.99767 47.4819 6.3047V13.7539C47.4819 14.4705 46.9056 15.0469 46.1928 15.0469C45.4799 15.0469 44.9037 14.4705 44.9037 13.7539V6.3047C44.9037 5.99782 44.7167 5.7219 44.4317 5.60814C44.1467 5.49437 43.8211 5.56572 43.6098 5.78826Z" fill="#0E80E1"/>
<path d="M44.9038 78.6523C44.9038 77.9377 45.4768 77.3625 46.1869 77.3593L46.193 77.3593C46.5325 77.3593 46.8586 77.4958 47.104 77.7412L47.1068 77.7439C47.3454 77.9801 47.482 78.3069 47.482 78.6523V86.1015C47.482 86.4083 47.669 86.6843 47.954 86.798C48.239 86.9118 48.5646 86.8404 48.7759 86.6179L50.6157 84.6804C50.6361 84.6589 50.6553 84.6362 50.673 84.6124C50.8965 84.3128 51.2387 84.1269 51.6146 84.0995C51.9871 84.0723 52.3503 84.2077 52.6133 84.4731L52.6158 84.4756C52.8787 84.7384 53.0158 85.1035 52.9916 85.479C52.9638 85.8513 52.7759 86.1949 52.4765 86.42C52.4446 86.444 52.4148 86.4704 52.3871 86.4991L47.0834 92.0058L47.0609 92.0282C47.019 92.0432 46.9784 92.062 46.9395 92.0844C46.4799 92.3493 45.9059 92.3493 45.4463 92.0844C45.4056 92.0609 45.3629 92.0414 45.3188 92.0261L45.2986 92.0058L39.9989 86.4993C39.9712 86.4705 39.9412 86.444 39.9093 86.42C39.6099 86.1948 39.422 85.8513 39.3942 85.4791C39.3701 85.1036 39.5071 84.7385 39.7701 84.4755L39.7726 84.473C40.0354 84.2077 40.3986 84.0723 40.7712 84.0995C41.1472 84.1269 41.4894 84.3128 41.7128 84.6124C41.7437 84.6538 41.7785 84.6916 41.8165 84.7252L43.6094 86.6173C43.8205 86.8402 44.1462 86.9118 44.4314 86.7982C44.7166 86.6845 44.9038 86.4085 44.9038 86.1015V78.6523Z" fill="#0E80E1"/>
<path d="M84.4656 39.7806C84.7285 39.5177 85.0935 39.3806 85.4691 39.4048C85.8414 39.4326 86.1849 39.6205 86.41 39.9198C86.4312 39.9479 86.4542 39.9745 86.4791 39.9994L91.9908 45.5111C92.0211 45.5414 92.0537 45.5688 92.0883 45.5933C92.1167 45.6305 92.1515 45.6718 92.1939 45.7142C92.2226 45.7429 92.2534 45.7691 92.286 45.7925C92.4087 46.1261 92.4079 46.4917 92.2848 46.8222C92.2527 46.8454 92.2223 46.8713 92.1939 46.8997C92.1515 46.9421 92.1166 46.9834 92.0883 47.0206C92.0576 47.0423 92.0284 47.0664 92.001 47.0927L86.4893 52.3974C86.4777 52.4087 86.4664 52.4203 86.4554 52.4322C86.2318 52.6773 85.9141 52.8167 85.5797 52.8167C85.247 52.8167 84.9326 52.6785 84.7079 52.4322C84.6925 52.4154 84.6764 52.3992 84.6595 52.3838C84.4144 52.1602 84.275 51.8424 84.275 51.5081C84.275 51.1754 84.4133 50.861 84.6595 50.6363C84.6839 50.614 84.7067 50.5902 84.7278 50.5652L86.5201 48.7728C86.7346 48.5583 86.7988 48.2357 86.6827 47.9555C86.5667 47.6752 86.2932 47.4925 85.9898 47.4925H78.6421C77.9255 47.4925 77.3491 46.9163 77.3491 46.2034C77.3491 45.4905 77.9256 44.9143 78.6421 44.9143H85.9898C86.293 44.9143 86.5664 44.7317 86.6826 44.4517C86.7988 44.1716 86.7349 43.8492 86.5207 43.6345L84.6849 41.7947C84.6592 41.769 84.6316 41.7451 84.6024 41.7233C84.3028 41.4999 84.1169 41.1577 84.0895 40.7817C84.0624 40.4092 84.1977 40.046 84.4631 39.7831L84.4656 39.7806Z" fill="#0E80E1"/>
<path d="M0.390077 46.9923C0.361163 46.9639 0.330191 46.9381 0.297517 46.915C0.269154 46.8778 0.234324 46.8365 0.191908 46.794C0.159782 46.7619 0.125039 46.733 0.0881848 46.7075C0.0298516 46.5546 0.00127952 46.3937 0.00475972 46.2347C0.00592666 46.2064 0.00549888 46.1778 0.00340252 46.149C-0.0104806 45.9581 0.0183397 45.7688 0.0858557 45.5953C0.123623 45.5694 0.159176 45.5399 0.191984 45.5071C0.234395 45.4646 0.26922 45.4233 0.29758 45.3861C0.328261 45.3645 0.357444 45.3404 0.384834 45.314L5.89653 40.0093C5.92531 39.9816 5.95183 39.9517 5.97584 39.9197C6.20101 39.6204 6.54452 39.4325 6.91678 39.4046C7.29228 39.3805 7.65736 39.5175 7.92032 39.7805L7.92284 39.783C8.18816 40.0458 8.32352 40.4091 8.29638 40.7816C8.26899 41.1576 8.08301 41.4998 7.78347 41.7232C7.73675 41.7581 7.69475 41.7978 7.65798 41.8415L5.86567 43.6339C5.65117 43.8484 5.587 44.1709 5.70309 44.4512C5.81917 44.7315 6.09265 44.9142 6.396 44.9142H13.7437C14.4603 44.9142 15.0367 45.4904 15.0367 46.2033C15.0367 46.9161 14.4603 47.4924 13.7437 47.4924H6.396C6.0928 47.4924 5.81942 47.6749 5.70324 47.955C5.58706 48.2351 5.65094 48.5575 5.86511 48.7722L7.70101 50.612C7.70925 50.6202 7.71769 50.6283 7.72632 50.6362C7.97258 50.8609 8.11081 51.1753 8.11081 51.508C8.11081 51.8423 7.97138 52.1601 7.72632 52.3837C7.70946 52.3991 7.69331 52.4152 7.67792 52.4321C7.45318 52.6784 7.1388 52.8166 6.8061 52.8166C6.47178 52.8166 6.15403 52.6772 5.93037 52.4321C5.92112 52.422 5.91158 52.4121 5.90178 52.4025L0.390077 46.9923Z" fill="#0E80E1"/>
<path d="M70.0413 24.1498C69.8127 24.3856 69.4977 24.5236 69.1675 24.5347C68.8265 24.5116 68.5032 24.3715 68.2537 24.1403C67.7508 23.6017 67.7548 22.7674 68.266 22.2336C68.2771 22.222 68.2878 22.2101 68.2981 22.1978L73.4577 17.0383C73.6722 16.8238 73.7364 16.5012 73.6203 16.2209C73.5042 15.9407 73.2307 15.7579 72.9274 15.7579H70.3766C70.3145 15.7579 70.2526 15.7656 70.1924 15.7809C69.8123 15.8771 69.4102 15.7962 69.0956 15.5589C68.7819 15.3194 68.5931 14.9527 68.5833 14.5633C68.5736 14.1778 68.7419 13.8004 69.0438 13.5421C69.3455 13.2911 69.7425 13.1902 70.1288 13.267C70.1769 13.2765 70.2258 13.2814 70.2749 13.2814H78.0288C78.0617 13.2814 78.0945 13.2792 78.1271 13.2749C78.3316 13.2479 78.5338 13.3315 78.6614 13.4971C78.6863 13.5293 78.7137 13.5595 78.7435 13.5873C78.9167 13.749 79.0431 13.947 79.1148 14.1653V21.9181L79.1148 21.9237C79.1171 22.2337 78.9879 22.5284 78.7576 22.7356C78.5259 22.9442 78.2155 23.0432 77.9098 23.0087C77.8819 23.0056 77.8538 23.004 77.8257 23.004H77.7242C77.7093 23.004 77.6944 23.0045 77.6795 23.0053C77.372 23.0237 77.0699 22.9093 76.8498 22.69C76.6308 22.468 76.5171 22.1678 76.5354 21.8613C76.5363 21.8464 76.5367 21.8315 76.5367 21.8166V19.4689C76.5367 19.1656 76.3541 18.8921 76.0739 18.776C75.7937 18.6599 75.4711 18.7239 75.2566 18.9383L70.0496 24.1414L70.0413 24.1498Z" fill="#0E80E1"/>
<path d="M68.2295 68.2882C68.248 68.2712 68.2656 68.2535 68.2821 68.2351C68.5055 67.9929 68.8214 67.8552 69.1536 67.8552C69.4863 67.8552 69.8007 67.9935 70.0254 68.2397C70.0461 68.2624 70.0681 68.2837 70.0912 68.3035L75.251 73.564C75.4643 73.7815 75.788 73.8484 76.07 73.7331C76.3521 73.6179 76.5364 73.3435 76.5364 73.0388V70.5896C76.5364 70.5747 76.5359 70.5598 76.535 70.5449C76.5167 70.2384 76.6305 69.9383 76.8494 69.7162C77.0694 69.497 77.3715 69.3825 77.6791 69.4008C77.694 69.4017 77.7089 69.4022 77.7238 69.4022H77.8254C77.8667 69.4022 77.9079 69.3988 77.9487 69.392C78.269 69.3386 78.5917 69.4288 78.8368 69.6392L78.8399 69.6418C79.0808 69.8464 79.2223 70.1566 79.2199 70.4827V78.3389C79.145 78.5605 79.0172 78.7593 78.8447 78.9205C78.8384 78.9263 78.8323 78.9322 78.8263 78.9382L78.7413 79.0232H70.2747C70.2618 79.0232 70.249 79.0236 70.2361 79.0242C69.9098 79.041 69.591 78.9235 69.3536 78.6981L69.3506 78.6953C69.1212 78.4798 68.9867 78.1743 68.9818 77.854C69.0262 77.1471 69.5893 76.5867 70.2937 76.5467H72.927C73.2303 76.5467 73.5037 76.364 73.6198 76.0838C73.736 75.8036 73.6719 75.4811 73.4575 75.2666L68.2544 70.0596C68.2463 70.0514 68.238 70.0435 68.2295 70.0357C67.9832 69.811 67.845 69.4966 67.845 69.1639C67.845 68.8296 67.9844 68.5118 68.2295 68.2882Z" fill="#0E80E1"/>
<path d="M13.1654 14.2859C13.3383 13.8178 13.7063 13.451 14.1687 13.2815H22.1107C22.4553 13.2815 22.7839 13.4178 23.0256 13.6595C23.2641 13.8979 23.3988 14.2158 23.4035 14.5522C23.3592 15.2591 22.7961 15.8196 22.0916 15.8597H19.4583C19.155 15.8597 18.8816 16.0423 18.7655 16.3225C18.6493 16.6027 18.7134 16.9252 18.9278 17.1398L24.1309 22.3468C24.139 22.3549 24.1473 22.3629 24.1558 22.3706C24.4021 22.5954 24.5403 22.9098 24.5403 23.2425C24.5403 23.5768 24.4009 23.8945 24.1558 24.1182C24.1371 24.1353 24.1193 24.1533 24.1024 24.1722C23.8872 24.4128 23.5805 24.5451 23.2531 24.5357L23.2427 24.5355C22.9035 24.5306 22.5786 24.3917 22.3444 24.15C22.3283 24.1335 22.3115 24.1177 22.2941 24.1028L17.1344 18.8423C16.921 18.6248 16.5973 18.5579 16.3153 18.6732C16.0332 18.7884 15.8489 19.0628 15.8489 19.3675V21.8167C15.8489 21.8316 15.8494 21.8465 15.8503 21.8614C15.8686 22.1679 15.7548 22.4681 15.5359 22.6901C15.3159 22.9093 15.0138 23.0238 14.7062 23.0054C14.6913 23.0046 14.6764 23.0041 14.6615 23.0041H14.5599C14.5318 23.0041 14.5038 23.0057 14.4759 23.0088C14.1702 23.0433 13.8598 22.9443 13.628 22.7357C13.3978 22.5284 13.2685 22.2338 13.2708 21.9238L13.2708 21.9076L13.1654 14.4637V14.2859Z" fill="#0E80E1"/>
<path d="M23.2665 67.5881C23.4951 67.3524 23.81 67.2144 24.1402 67.2033C24.4812 67.2264 24.8045 67.3664 25.054 67.5977C25.557 68.1362 25.5529 68.9705 25.0418 69.5043C25.0307 69.516 25.0199 69.5279 25.0096 69.5402L19.8501 74.6997C19.6356 74.9142 19.5714 75.2368 19.6875 75.5171C19.8036 75.7973 20.0771 75.98 20.3804 75.98H22.9312C22.9933 75.98 23.0551 75.9723 23.1153 75.9571C23.4955 75.8608 23.8976 75.9418 24.2122 76.179C24.5259 76.4186 24.7146 76.7853 24.7244 77.1747C24.7342 77.5602 24.5658 77.9376 24.264 78.1959C23.9623 78.4469 23.5652 78.5477 23.179 78.471C23.1309 78.4614 23.0819 78.4566 23.0328 78.4566H15.2789C15.2461 78.4566 15.2132 78.4588 15.1806 78.4631C14.9761 78.4901 14.7739 78.4065 14.6463 78.2409C14.6215 78.2087 14.594 78.1785 14.5643 78.1507C14.3911 77.9889 14.2646 77.7909 14.1929 77.5727V69.8199L14.1929 69.8143C14.1906 69.5042 14.3199 69.2096 14.5501 69.0024C14.7819 68.7938 15.0923 68.6948 15.398 68.7292C15.4259 68.7324 15.4539 68.734 15.482 68.734H15.5836C15.5985 68.734 15.6134 68.7335 15.6283 68.7326C15.9358 68.7143 16.2378 68.8287 16.458 69.048C16.6769 69.27 16.7907 69.5701 16.7724 69.8767C16.7715 69.8916 16.771 69.9065 16.771 69.9214V72.2691C16.771 72.5724 16.9537 72.8459 17.2339 72.962C17.5141 73.0781 17.8366 73.014 18.0512 72.7997L23.2582 67.5965L23.2665 67.5881Z" fill="#0E80E1"/>
</svg>
