<!-- by TradingView --><svg width="56" height="56" xmlns="http://www.w3.org/2000/svg"><path fill="url(#paint0_linear)" d="M0 0h56v56H0z"/><path d="M43.91 17.27c-.694-.624-1.465-1.093-2.39-1.25-1.156-.156-2.312.626-3.082 1.173s-2.313 1.954-2.928 2.5c-.616.548-2.158.86-4.701 2.424-2.544 1.563-12.407 7.972-12.407 7.972h2.543L9.463 36.108h1.155L9 37.358c.925.235 1.85.079 2.697-.39v.39s13.64-5.47 16.26-4.064l-1.618.47c.154 0 2.697.155 2.697.155.154 1.095.77 2.11 1.696 2.658 1.541 1.016 1.618 1.642 1.618 1.642s-.77.312-.77.781c1.464-.47 3.005-.47 4.392 0 0 0-.077-.47-1.156-.782-1.079-.469-2.004-1.172-2.697-2.188-.617-.86-.848-1.954-.463-2.97.386-1.016 1.696-1.564 4.393-2.97 3.16-1.642 3.93-2.892 4.316-3.909.385-1.016 1.155-2.891 1.464-3.83.308-.86.847-1.563 1.541-2.188.848-.469 1.773-.86 2.62-1.172.154.078-1.541-1.33-2.08-1.72z" fill="#fff"/><defs><linearGradient id="paint0_linear" x1="10.418" y1="9.712" x2="68.147" y2="76.017" gradientUnits="userSpaceOnUse"><stop stop-color="#1A1E21"/><stop offset="1" stop-color="#06060A"/></linearGradient></defs></svg>