<svg fill="none" xmlns="http://www.w3.org/2000/svg" viewBox="0 0 24 24"><path d="M2 6a4 4 0 014-4h12a4 4 0 014 4v12a4 4 0 01-4 4H6a4 4 0 01-4-4V6z" fill="#008DE4"/><path d="M11.282 15h-.004l.55-2.433L12 11.8h2.722a.767.767 0 00.55-.234A.812.812 0 0015.5 11a.812.812 0 00-.228-.566.767.767 0 00-.55-.234H12.39l.778-3.2h1.944C17.26 7 19 8.79 19 11s-1.741 4-3.889 4h-1.107l-.448 2h-2.723l.45-2zM8.89 10.2h2.722L12.39 7h-3.5C6.74 7 5 8.79 5 11s1.741 4 3.889 4h1.555l.778-3.2H8.89a.767.767 0 01-.55-.234.812.812 0 01-.23-.566c0-.212.082-.416.228-.566a.767.767 0 01.55-.234z" fill="#fff"/></svg>