<svg fill="none" xmlns="http://www.w3.org/2000/svg" viewBox="0 0 24 24"><path d="M2 6a4 4 0 014-4h12a4 4 0 014 4v12a4 4 0 01-4 4H6a4 4 0 01-4-4V6z" fill="#008DE4"/><path fill-rule="evenodd" clip-rule="evenodd" d="M15.98 5.7l-1.021 7.039-.999-7.04h-2.042v9.604h1.345V8.074l1.094 7.243h1.163l1.134-7.243v7.243H18V5.7h-2.02zm-7.743-.2c-2.23 0-2.23 2.18-2.23 2.574v4.998c0 1.46.498 2.416 1.787 2.425.761.002 1.292-.51 1.405-.705v.51l1.318.014v-5.21H8.373v1.156h.781v1.524c0 .771-.225 1.297-.895 1.297s-.884-.56-.884-1.298v-4.71c0-.384 0-1.256.884-1.256.895 0 .895.886.895 1.255v.68h1.363v-.68c0-.665 0-2.574-2.28-2.574zM6 18.5h12v-2.078H6V18.5z" fill="#fff"/></svg>