<svg viewBox="0 0 24 24" fill="none" xmlns="http://www.w3.org/2000/svg"><path d="M11.719 2H3.28A3.281 3.281 0 000 5.281v8.438A3.281 3.281 0 003.281 17h8.438A3.281 3.281 0 0015 13.719V5.28A3.281 3.281 0 0011.719 2z" fill="#0A48B6"/><path fill-rule="evenodd" clip-rule="evenodd" d="M7.74 5.301l-.126-.375a.053.053 0 00-.1 0l-.126.375-.395.004a.053.053 0 00-.031.096l.318.235-.12.377c-.015.048.04.089.082.059l.322-.23.322.23c.041.03.097-.01.081-.06l-.119-.376.318-.235a.053.053 0 00-.031-.096L7.74 5.3zm0 8.054l-.126-.375a.053.053 0 00-.1 0l-.126.375-.395.003a.053.053 0 00-.031.096l.318.235-.12.377c-.015.049.04.09.082.06l.322-.23.322.23c.041.03.097-.011.081-.06l-.119-.377.318-.235a.053.053 0 00-.031-.096l-.395-.003zm3.9-4.402l.126.375.395.003c.052 0 .073.066.032.097l-.319.234.12.377a.053.053 0 01-.082.06l-.322-.23-.321.23a.053.053 0 01-.082-.06l.12-.377-.319-.234a.053.053 0 01.031-.097l.396-.003.125-.375a.053.053 0 01.1 0zm-7.927.375l-.125-.375a.053.053 0 00-.101 0l-.125.375-.395.003a.053.053 0 00-.032.097l.318.234-.119.377c-.015.05.04.09.082.06l.322-.23.321.23c.042.03.097-.01.082-.06l-.12-.377.319-.234a.053.053 0 00-.031-.097l-.396-.003zm.48-2.478l.126.375.395.003c.051 0 .072.066.031.096l-.318.235.12.377a.053.053 0 01-.082.06l-.322-.23-.322.23a.053.053 0 01-.081-.06l.119-.377-.318-.235a.053.053 0 01.031-.096l.395-.003.125-.375a.053.053 0 01.102 0zm7.1 4.402l-.126-.375a.053.053 0 00-.1 0l-.126.375-.395.003a.053.053 0 00-.032.096l.319.235-.12.377c-.015.049.04.09.082.06l.322-.23.321.23c.042.03.098-.011.082-.06l-.12-.377.319-.235a.053.053 0 00-.031-.096l-.396-.003zm-1.6-5.876l.125.375.395.003c.051 0 .073.066.031.097l-.318.234.12.377a.053.053 0 01-.082.06l-.322-.23-.322.23a.053.053 0 01-.081-.06l.119-.377-.318-.234a.053.053 0 01.031-.097l.395-.003.126-.375a.053.053 0 01.1 0zm-3.902 7.35l-.125-.375a.053.053 0 00-.1 0l-.126.375-.395.003a.053.053 0 00-.032.096l.319.235-.12.377c-.015.049.04.09.082.06l.322-.23.321.23c.042.03.098-.011.082-.06l-.12-.377.319-.235a.053.053 0 00-.031-.096l-.396-.003zm5.275-5.876l-.125.375-.395.003a.053.053 0 00-.032.096l.319.235-.12.377c-.015.05.04.09.082.06l.322-.23.321.23c.042.03.098-.01.082-.06l-.12-.377.319-.235a.053.053 0 00-.031-.096l-.396-.003-.125-.375a.053.053 0 00-.1 0zm-7.099 4.402l.125-.375a.053.053 0 01.102 0l.125.375.395.003c.051 0 .073.066.031.096l-.318.235.12.377a.053.053 0 01-.082.06l-.322-.23-.322.23a.053.053 0 01-.081-.06l.119-.377-.318-.235a.053.053 0 01.031-.096l.395-.003zm1.598-5.876l-.125.375-.395.003a.053.053 0 00-.032.097l.319.234-.12.377c-.015.05.04.09.082.06l.322-.23.321.23c.042.03.098-.01.082-.06l-.12-.377.319-.234a.053.053 0 00-.031-.097l-.396-.003-.125-.375a.053.053 0 00-.1 0zm3.901 7.35l.126-.375a.053.053 0 01.1 0l.126.375.395.003c.051 0 .073.066.031.096l-.318.235.12.377a.053.053 0 01-.082.06l-.322-.23-.322.23a.053.053 0 01-.081-.06l.119-.377-.318-.235a.053.053 0 01.031-.096l.395-.003z" fill="#FFE15A"/><path d="M20.719 22H12.28A3.281 3.281 0 019 18.719V10.28A3.281 3.281 0 0112.281 7h8.438A3.281 3.281 0 0124 10.281v8.438A3.281 3.281 0 0120.719 22z" fill="#2841C1"/><path fill-rule="evenodd" clip-rule="evenodd" d="M9 10.393v.609l2.327 1.524H9v.79h6.316V7h-.79v4.791L9.52 8.511c-.195.302-.341.64-.428 1L9 10.393zm.519 10.097a3.274 3.274 0 01-.298-.586l-.2-.812A3.316 3.316 0 019 18.719v-.72l2.327-1.525H9v-.79h6.316V22h-.79V17.21l-5.007 3.28zm14.48-2.492v.72l-.115.867a3.266 3.266 0 01-.403.905l-5.008-3.281V22h-.79v-6.316H24v.79h-2.326l2.326 1.524zm-.518-9.488c.116.18.214.373.293.575l.203.81c.014.127.022.256.022.386v.72l-2.326 1.525h2.326v.79h-6.315V7h.79v4.791l5.007-3.28z" fill="#F6F6F6"/><path fill-rule="evenodd" clip-rule="evenodd" d="M17.684 7h-2.368v6.316H9v2.368h6.316V22h2.368v-6.316H24v-2.368h-6.316V7zm-4.63 9.474l-4.033 2.618c.033.283.1.555.2.812l5.284-3.43h-1.45zm10.83 3.11l-4.792-3.11h1.45L24 18.719c0 .3-.04.59-.116.866zm-10.147-7.058L9.09 9.511c-.06.247-.091.505-.091.77v.112l3.287 2.133h1.45zm10.241-2.63l-4.053 2.63h-1.45l5.301-3.44c.1.255.169.527.202.81z" fill="#FB4B4E"/></svg>
