<svg viewBox="0 0 24 24" fill="none" xmlns="http://www.w3.org/2000/svg"><path d="M11.719 17H3.28A3.281 3.281 0 010 13.719V5.28A3.281 3.281 0 013.281 2h8.438A3.281 3.281 0 0115 5.281v8.438A3.281 3.281 0 0111.719 17z" fill="#2841C1"/><path fill-rule="evenodd" clip-rule="evenodd" d="M0 5.393v.609l2.327 1.524H0v.79h6.316V2h-.79v4.791L.52 3.511c-.195.302-.341.64-.428 1L0 5.393zM.519 15.49a3.273 3.273 0 01-.298-.586l-.2-.812A3.316 3.316 0 010 13.719v-.72l2.327-1.525H0v-.79h6.316V17h-.79V12.21L.52 15.489zm14.48-2.492v.72l-.115.867a3.266 3.266 0 01-.403.905l-5.008-3.281V17h-.79v-6.316H15v.79h-2.326l2.326 1.524zm-.518-9.488c.116.18.214.373.293.575l.203.81c.014.127.022.256.022.386v.72l-2.326 1.525h2.326v.79H8.684V2h.79v4.791l5.007-3.28z" fill="#F6F6F6"/><path fill-rule="evenodd" clip-rule="evenodd" d="M8.684 2H6.316v6.316H0v2.368h6.316V17h2.368v-6.316H15V8.316H8.684V2zm-4.63 9.474L.022 14.092c.033.283.1.555.2.812l5.284-3.43h-1.45zm10.83 3.11l-4.792-3.11h1.45L15 13.719c0 .3-.04.59-.116.866zM4.737 7.527L.09 4.511c-.06.247-.091.505-.091.77v.112l3.287 2.133h1.45zm10.241-2.63l-4.053 2.63h-1.45l5.301-3.44c.1.255.169.527.202.81z" fill="#FB4B4E"/><path d="M20.719 7H12.28A3.281 3.281 0 009 10.281v8.438A3.281 3.281 0 0012.281 22h8.438A3.281 3.281 0 0024 18.719V10.28A3.281 3.281 0 0020.719 7z" fill="#2841C1"/><path fill-rule="evenodd" clip-rule="evenodd" d="M20.413 9.946l-.122-.4a.036.036 0 00-.069 0l-.121.4-.39-.155c-.032-.013-.063.025-.042.054l.237.345-.363.207a.036.036 0 00.015.068l.418.029-.065.414a.036.036 0 00.063.03l.283-.309.283.309c.024.026.068.005.062-.03l-.064-.414.417-.03a.036.036 0 00.016-.067l-.364-.207.238-.345c.02-.03-.01-.067-.043-.054l-.39.155zm-7.344 7.76l-.248-.82a.074.074 0 00-.142 0l-.248.82-.796-.317c-.068-.027-.13.05-.089.11l.487.707-.745.425c-.063.036-.041.132.032.137l.855.06-.132.847c-.011.072.078.115.127.061l.58-.63.58.63c.05.054.139.011.127-.061l-.132-.847.855-.06c.073-.005.095-.101.032-.137l-.745-.425.487-.706a.074.074 0 00-.088-.11l-.797.316zm4.517-4.488l.122.4.389-.154c.033-.013.063.024.043.054l-.238.345.364.207c.03.018.02.065-.016.067l-.417.03.064.413a.036.036 0 01-.062.03l-.283-.308-.284.308a.036.036 0 01-.062-.03l.065-.413-.418-.03c-.036-.002-.046-.05-.015-.067l.363-.207-.237-.345c-.02-.03.01-.068.043-.054l.389.155.121-.401a.036.036 0 01.07 0zm5.39-1.513l-.122-.401c-.01-.034-.06-.034-.07 0l-.12.4-.39-.154a.036.036 0 00-.043.054l.238.345-.364.207a.036.036 0 00.015.067l.418.03-.064.413a.036.036 0 00.062.03l.283-.308.283.308c.024.027.068.005.063-.03l-.065-.414.418-.029a.036.036 0 00.015-.067l-.364-.208.238-.344a.036.036 0 00-.043-.054l-.389.155zm-2.685 6.078l.122.401.389-.155a.036.036 0 01.043.054l-.238.345.364.207a.036.036 0 01-.016.068l-.417.029.064.414c.006.035-.038.056-.062.03l-.283-.309-.284.309a.036.036 0 01-.062-.03l.065-.414-.418-.03a.036.036 0 01-.015-.067l.363-.207-.237-.345a.036.036 0 01.043-.054l.389.155.121-.4a.036.036 0 01.07 0zm.842-3.255l.098-.293a.041.041 0 01.079 0l.097.293.308.002c.04 0 .056.051.024.075l-.247.183.092.293a.041.041 0 01-.063.047l-.25-.18-.251.18a.042.042 0 01-.064-.046l.093-.294-.248-.183a.042.042 0 01.024-.075l.308-.002z" fill="#F5F5F5"/><path fill-rule="evenodd" clip-rule="evenodd" d="M16.5 7v.585l-2.764 1.81V7H16.5zM9.814 8.118a3.276 3.276 0 011.95-1.077v2.355l-1.95-1.278zm-.773 1.645c.034-.217.09-.427.165-.627l.958.627H9.04zM9 11.737v.762l1.163-.762H9zm7.501.762v-.762h-1.163l1.163.762zM16.5 14.5h-2.763v-2.396l2.764 1.81v.586zm.002-4.737v-.762l-1.163.762H16.5zM9 13.915l2.763-1.81V14.5H9v-.585z" fill="#2841C1"/><path fill-rule="evenodd" clip-rule="evenodd" d="M16.5 9.763v.395h-3.158V7h.394v2.396l2.764-1.81v.383l-2.764 1.794h.726L16.5 8.44v.561l-1.164.762H16.5zm-4.343-2.76a3.293 3.293 0 00-.394.038v2.355l-1.95-1.277a3.294 3.294 0 00-.318.428l1.873 1.216h-.725l-1.337-.868a3.26 3.26 0 00-.1.24l.957.628H9.04c-.02.13-.033.261-.038.395h3.155V7.003zm0 7.497h-.394v-2.396L9 13.914v-.39l2.752-1.787h-.725L9 13.053v-.554l1.163-.762H9v-.395h3.158V14.5zm1.58 0h-.395v-3.158H16.5v.395h-1.164l1.164.762v.36l-1.73-1.122h-.724L16.5 13.33v.585l-2.764-1.81V14.5z" fill="#F5F5F5"/><path fill-rule="evenodd" clip-rule="evenodd" d="M12.158 14.5h1.184v-3.158H16.5v-1.184h-3.158V7h-1.06c-.042 0-.083.001-.124.003v3.155H9.003A3.323 3.323 0 009 10.28v1.061h3.158V14.5zm-1.13-2.763L9 13.053v.47l2.752-1.786h-.725zm5.471 1.593l-2.454-1.593h.725l1.73 1.122v.47zm-5.132-3.567L9.494 8.547c-.07.112-.133.228-.19.348l1.338.868h.725zM16.5 8.44L14.46 9.763h-.725L16.5 7.97v.471z" fill="#FF4B55"/></svg>
