<svg viewBox="0 0 24 24" fill="none" xmlns="http://www.w3.org/2000/svg"><path d="M11.719 17H3.28A3.281 3.281 0 010 13.719V5.28A3.281 3.281 0 013.281 2h8.438A3.281 3.281 0 0115 5.281v8.438A3.281 3.281 0 0111.719 17z" fill="#2841C1"/><path fill-rule="evenodd" clip-rule="evenodd" d="M0 5.393v.609l2.327 1.524H0v.79h6.316V2h-.79v4.791L.52 3.511c-.195.302-.341.64-.428 1L0 5.393zM.519 15.49a3.273 3.273 0 01-.298-.586l-.2-.812A3.316 3.316 0 010 13.719v-.72l2.327-1.525H0v-.79h6.316V17h-.79V12.21L.52 15.489zm14.48-2.492v.72l-.115.867a3.266 3.266 0 01-.403.905l-5.008-3.281V17h-.79v-6.316H15v.79h-2.326l2.326 1.524zm-.518-9.488c.116.18.214.373.293.575l.203.81c.014.127.022.256.022.386v.72l-2.326 1.525h2.326v.79H8.684V2h.79v4.791l5.007-3.28z" fill="#F6F6F6"/><path fill-rule="evenodd" clip-rule="evenodd" d="M8.684 2H6.316v6.316H0v2.368h6.316V17h2.368v-6.316H15V8.316H8.684V2zm-4.63 9.474L.022 14.092c.033.283.1.555.2.812l5.284-3.43h-1.45zm10.83 3.11l-4.792-3.11h1.45L15 13.719c0 .3-.04.59-.116.866zM4.737 7.527L.09 4.511c-.06.247-.091.505-.091.77v.112l3.287 2.133h1.45zm10.241-2.63l-4.053 2.63h-1.45l5.301-3.44c.1.255.169.527.202.81z" fill="#FB4B4E"/><path fill-rule="evenodd" clip-rule="evenodd" d="M13.736 7h-1.455A3.281 3.281 0 009 10.281V18.72A3.281 3.281 0 0012.281 22h8.438A3.281 3.281 0 0024 18.719V10.28A3.281 3.281 0 0020.719 7h-6.983z" fill="#2841C1"/><path fill-rule="evenodd" clip-rule="evenodd" d="M16.5 9.763v.395h-3.158V7h.394v2.396l2.764-1.81v.384l-2.764 1.793h.726L16.5 8.44v.561l-1.164.762H16.5zm-4.343-2.76a3.297 3.297 0 00-.395.038v2.355L9.813 8.119a3.294 3.294 0 00-.318.428l1.873 1.216h-.725l-1.337-.868a3.26 3.26 0 00-.1.24l.957.628H9.04c-.02.13-.033.261-.038.395h3.155V7.003zm0 7.497h-.394v-2.396L9 13.914v-.39l2.752-1.787h-.725L9 13.053v-.554l1.163-.762H9v-.395h3.158V14.5zm1.58 0h-.395v-3.158H16.5v.395h-1.164l1.164.762v.36l-1.73-1.122h-.724L16.5 13.33v.585l-2.764-1.81V14.5z" fill="#F6F6F6"/><path fill-rule="evenodd" clip-rule="evenodd" d="M12.158 14.5h1.184v-3.158H16.5v-1.184h-3.158V7h-1.06c-.042 0-.083.001-.124.003v3.155H9.003A3.323 3.323 0 009 10.28v1.061h3.158V14.5zm-1.13-2.763L9 13.053v.47l2.752-1.786h-.725zm5.471 1.593l-2.454-1.593h.725l1.73 1.122v.47zm-5.132-3.567L9.494 8.547c-.07.112-.133.228-.19.348l1.338.868h.725zM16.5 8.44L14.46 9.763h-.725L16.5 7.97v.471z" fill="#FF4B55"/><path d="M19.59 19.927a.053.053 0 01-.03-.01l-.306-.219-.306.22a.052.052 0 01-.06-.001.052.052 0 01-.02-.058l.114-.358-.303-.224a.052.052 0 01.03-.093l.377-.003.119-.357a.052.052 0 01.049-.035c.022 0 .042.014.049.035l.119.357.376.003a.052.052 0 01.03.093l-.302.224.113.358a.052.052 0 01-.049.068z" fill="#FF4B55"/><path d="M19.253 18.84l.13.392.414.003-.333.246.125.394-.336-.24-.336.24.124-.394-.332-.246.413-.003.13-.392zm0-.103a.104.104 0 00-.098.07l-.108.322-.339.003a.103.103 0 00-.06.187l.272.201-.102.323a.103.103 0 00.159.116l.276-.197.276.197a.103.103 0 00.12 0 .103.103 0 00.039-.116l-.103-.323.273-.201a.103.103 0 00-.06-.187l-.34-.003-.107-.322a.104.104 0 00-.098-.07z" fill="#F5F5F5"/><path d="M19.59 14.84a.052.052 0 01-.03-.01l-.306-.218-.306.219a.052.052 0 01-.08-.058l.114-.359-.303-.223a.052.052 0 01.03-.093l.377-.004.119-.356a.052.052 0 01.049-.036c.022 0 .042.014.049.036l.119.356.376.003c.022 0 .042.015.049.036a.052.052 0 01-.019.058l-.302.223.113.359a.052.052 0 01-.049.067z" fill="#FF4B55"/><path d="M19.253 13.754l.13.392.414.003-.333.245.125.394-.336-.24-.336.24.124-.394-.332-.245.413-.003.13-.392zm0-.104a.104.104 0 00-.098.07l-.108.323-.339.002a.103.103 0 00-.06.187l.272.202-.102.323a.103.103 0 00.159.115l.276-.197.276.197a.104.104 0 00.159-.115l-.103-.323.273-.202a.103.103 0 00-.06-.187l-.34-.002-.107-.322a.104.104 0 00-.098-.07z" fill="#F5F5F5"/><path d="M21.4 16.748a.052.052 0 01-.03-.01l-.306-.218-.306.219a.052.052 0 01-.06 0 .052.052 0 01-.02-.058l.114-.359-.302-.223a.052.052 0 01-.019-.058.052.052 0 01.05-.036l.375-.002.12-.357a.052.052 0 01.098 0l.119.357.376.002a.052.052 0 01.03.094l-.303.223.114.359a.052.052 0 01-.05.067z" fill="#FF4B55"/><path d="M21.063 15.662l.131.392.413.003-.332.246.125.393-.337-.24-.336.24.125-.393-.332-.246.413-.003.13-.392zm0-.103a.103.103 0 00-.098.07l-.107.322-.34.003a.103.103 0 00-.06.186l.273.202-.102.323a.103.103 0 00.158.116l.276-.197.276.197a.103.103 0 00.16-.116l-.103-.323.273-.202a.103.103 0 00-.06-.186l-.34-.003-.107-.322a.103.103 0 00-.099-.07z" fill="#F5F5F5"/><path d="M17.78 17.266a.052.052 0 01-.03-.01l-.307-.219-.306.22a.052.052 0 01-.06-.001.052.052 0 01-.02-.058l.114-.358-.302-.224a.052.052 0 01-.019-.057.052.052 0 01.049-.036l.376-.003.12-.357a.052.052 0 01.048-.035c.022 0 .042.014.05.035l.118.357.377.003c.022 0 .041.014.048.036.007.02 0 .044-.018.057l-.303.224.114.358a.052.052 0 01-.05.068z" fill="#FF4B55"/><path d="M17.442 16.18l.131.391.413.003-.332.246.124.394-.336-.24-.336.24.125-.394-.333-.246.413-.003.131-.392zm0-.104a.103.103 0 00-.098.07l-.107.322-.34.003a.104.104 0 00-.06.186l.273.202-.102.323a.103.103 0 00.158.116l.276-.197.276.197a.103.103 0 00.159-.116l-.102-.323.273-.202a.104.104 0 00-.061-.186l-.34-.003-.107-.322a.103.103 0 00-.098-.07z" fill="#F5F5F5"/></svg>
