<svg viewBox="0 0 24 24" fill="none" xmlns="http://www.w3.org/2000/svg"><path d="M11.719 2H3.28A3.281 3.281 0 000 5.281v8.438A3.281 3.281 0 003.281 17h8.438A3.281 3.281 0 0015 13.719V5.28A3.281 3.281 0 0011.719 2z" fill="#0A48B6"/><path fill-rule="evenodd" clip-rule="evenodd" d="M7.74 5.301l-.126-.375a.053.053 0 00-.1 0l-.126.375-.395.004a.053.053 0 00-.031.096l.318.235-.12.377c-.015.048.04.089.082.059l.322-.23.322.23c.041.03.097-.01.081-.06l-.119-.376.318-.235a.053.053 0 00-.031-.096L7.74 5.3zm0 8.054l-.126-.375a.053.053 0 00-.1 0l-.126.375-.395.003a.053.053 0 00-.031.096l.318.235-.12.377c-.015.049.04.09.082.06l.322-.23.322.23c.041.03.097-.011.081-.06l-.119-.377.318-.235a.053.053 0 00-.031-.096l-.395-.003zm3.9-4.402l.126.375.395.003c.052 0 .073.066.032.097l-.319.234.12.377a.053.053 0 01-.082.06l-.322-.23-.321.23a.053.053 0 01-.082-.06l.12-.377-.319-.234a.053.053 0 01.031-.097l.396-.003.125-.375a.053.053 0 01.1 0zm-7.927.375l-.125-.375a.053.053 0 00-.101 0l-.125.375-.395.003a.053.053 0 00-.032.097l.318.234-.119.377c-.015.05.04.09.082.06l.322-.23.321.23c.042.03.097-.01.082-.06l-.12-.377.319-.234a.053.053 0 00-.031-.097l-.396-.003zm.48-2.478l.126.375.395.003c.051 0 .072.066.031.096l-.318.235.12.377a.053.053 0 01-.082.06l-.322-.23-.322.23a.053.053 0 01-.081-.06l.119-.377-.318-.235a.053.053 0 01.031-.096l.395-.003.125-.375a.053.053 0 01.102 0zm7.1 4.402l-.126-.375a.053.053 0 00-.1 0l-.126.375-.395.003a.053.053 0 00-.032.096l.319.235-.12.377c-.015.049.04.09.082.06l.322-.23.321.23c.042.03.098-.011.082-.06l-.12-.377.319-.235a.053.053 0 00-.031-.096l-.396-.003zm-1.6-5.876l.125.375.395.003c.051 0 .073.066.031.097l-.318.234.12.377a.053.053 0 01-.082.06l-.322-.23-.322.23a.053.053 0 01-.081-.06l.119-.377-.318-.234a.053.053 0 01.031-.097l.395-.003.126-.375a.053.053 0 01.1 0zm-3.902 7.35l-.125-.375a.053.053 0 00-.1 0l-.126.375-.395.003a.053.053 0 00-.032.096l.319.235-.12.377c-.015.049.04.09.082.06l.322-.23.321.23c.042.03.098-.011.082-.06l-.12-.377.319-.235a.053.053 0 00-.031-.096l-.396-.003zm5.275-5.876l-.125.375-.395.003a.053.053 0 00-.032.096l.319.235-.12.377c-.015.05.04.09.082.06l.322-.23.321.23c.042.03.098-.01.082-.06l-.12-.377.319-.235a.053.053 0 00-.031-.096l-.396-.003-.125-.375a.053.053 0 00-.1 0zm-7.099 4.402l.125-.375a.053.053 0 01.102 0l.125.375.395.003c.051 0 .073.066.031.096l-.318.235.12.377a.053.053 0 01-.082.06l-.322-.23-.322.23a.053.053 0 01-.081-.06l.119-.377-.318-.235a.053.053 0 01.031-.096l.395-.003zm1.598-5.876l-.125.375-.395.003a.053.053 0 00-.032.097l.319.234-.12.377c-.015.05.04.09.082.06l.322-.23.321.23c.042.03.098-.01.082-.06l-.12-.377.319-.234a.053.053 0 00-.031-.097l-.396-.003-.125-.375a.053.053 0 00-.1 0zm3.901 7.35l.126-.375a.053.053 0 01.1 0l.126.375.395.003c.051 0 .073.066.031.096l-.318.235.12.377a.053.053 0 01-.082.06l-.322-.23-.322.23a.053.053 0 01-.081-.06l.119-.377-.318-.235a.053.053 0 01.031-.096l.395-.003z" fill="#FFE15A"/><path d="M20.719 7H12.28A3.281 3.281 0 009 10.281v8.438A3.281 3.281 0 0012.281 22h8.438A3.281 3.281 0 0024 18.719V10.28A3.281 3.281 0 0020.719 7z" fill="#FB4B4E"/><path d="M19.708 13.333h-2.041v-2.041a.292.292 0 00-.292-.292h-1.75a.292.292 0 00-.292.292v2.041h-2.041a.292.292 0 00-.292.292v1.75c0 .161.13.292.292.292h2.041v2.041c0 .161.13.292.292.292h1.75c.161 0 .292-.13.292-.292v-2.041h2.041c.161 0 .292-.13.292-.292v-1.75a.292.292 0 00-.292-.292z" fill="#F6F6F6"/></svg>
