<!-- by TradingView --><svg width="56" height="56" xmlns="http://www.w3.org/2000/svg"><path fill="#312541" d="M0 0h56v56H0z"/><path d="M38.093 18.75l-.88.876a12.359 12.359 0 010 16.725l.88.875a13.604 13.604 0 000-18.496v.02zm-18.481.076c4.752-4.33 12.036-4.33 16.788 0l.879-.875c-5.244-4.819-13.322-4.819-18.566 0l.899.875zm-.82 17.534a12.359 12.359 0 010-16.717l-.879-.875a13.604 13.604 0 000 18.496l.879-.904zm17.599.808c-4.752 4.33-12.035 4.33-16.788 0l-.878.875c5.243 4.819 13.322 4.819 18.565 0l-.899-.875z" fill="#D4D3D7"/><path d="M30.5 25.5c0 1.127-1 1.5-2 1.5H27v-3h2c.766 0 1.5.56 1.5 1.5zm.88 5.059C31.38 31.788 30 32 29 32h-2v-3h2c.895 0 2.38.361 2.38 1.559zm2.167-5.48C33.371 23.253 32 22.187 30 22v-3h-2v2.985c-.407 0-.58 0-.993.015v-3H25v3h-3v2h1.121c.379 0 .879 0 .879.793v6.696c0 .011 0 .511-.58.511h-1.113L22 34h3v3h2l-.01-3H28v3h2v-3c2.612-.158 4.21-.701 4.438-3.137.184-1.961-.742-2.837-2.22-3.19.899-.455 1.464-1.257 1.33-2.594z" fill="#fff"/><path d="M27.997 13.303c-8.143.004-14.74 6.585-14.735 14.697.005 8.112 6.61 14.685 14.753 14.68 8.137-.005 14.731-6.576 14.734-14.683-.01-8.111-6.61-14.691-14.752-14.694zm0 30.637c-8.836 0-15.999-7.139-15.997-15.943.002-8.804 7.166-15.94 16.003-15.938 8.834.002 15.996 7.136 15.997 15.938-.01 8.801-7.169 15.934-16.003 15.944z" fill="#fff"/></svg>