<svg fill="none" xmlns="http://www.w3.org/2000/svg" viewBox="0 0 24 24"><path d="M2 6a4 4 0 014-4h12a4 4 0 014 4v12a4 4 0 01-4 4H6a4 4 0 01-4-4V6z" fill="#2F3037"/><path d="M11.856 10.899L9.048 6.226l2.808 1.522v3.15zM12 7.509L9.216 6h5.568L12 7.509zm2.951-1.283l-2.807 1.522v3.15l2.807-4.671zm-7.143.377L5 11.275l2.808-1.522v-3.15zm.145 3.39l-2.784 1.574h5.567L7.953 9.993zm2.952 1.283L8.093 9.753v-3.15l2.812 4.672zm-1.857 6.498l2.808-4.673v3.15l-2.808 1.523zm.168.226L12 16.491 14.784 18H9.216zm2.928-1.749l2.808 1.523-2.809-4.673v3.15zm.951-4.978L15.906 6.6v3.15l-2.81 1.522zm.169.29l2.784-1.573 2.783 1.574h-5.567zm2.928-1.813L19 11.273 16.192 6.6v3.15zm-8.383 7.648l-2.808-4.672 2.808 1.522v3.15zm.144-3.39l-2.784-1.573h5.568l-2.784 1.573zm2.952-1.282l-2.812 1.522v3.15l2.812-4.672zm5.001 4.666l-2.81-4.672 2.81 1.522v3.15zm.142-3.39l-2.784-1.573h5.568l-2.784 1.574zM19 12.72l-2.808 1.522v3.15L19 12.72z" fill="#fff"/></svg>