<?xml version="1.0" standalone="no"?>
<!DOCTYPE svg PUBLIC "-//W3C//DTD SVG 20010904//EN"
 "http://www.w3.org/TR/2001/REC-SVG-20010904/DTD/svg10.dtd">
<svg version="1.0" xmlns="http://www.w3.org/2000/svg"
 width="300.000000pt" height="186.000000pt" viewBox="0 0 300.000000 186.000000"
 preserveAspectRatio="xMidYMid meet">
<metadata>
Created by potrace 1.10, written by Peter Selinger 2001-2011
</metadata>
<g transform="translate(0.000000,186.000000) scale(0.050000,-0.050000)"
fill="#000000" stroke="none">
<path d="M0 1860 l0 -1860 3000 0 3000 0 0 1860 0 1860 -3000 0 -3000 0 0
-1860z m2786 1028 c143 -83 164 -89 207 -67 62 34 90 3 32 -36 -41 -27 -45
-45 -45 -212 l0 -183 150 -87 150 -87 155 90 155 89 6 179 5 178 -149 86
c-122 69 -162 83 -211 72 -77 -17 -80 17 -4 49 52 21 71 15 225 -73 l168 -96
6 -211 5 -211 -167 -94 c-203 -114 -189 -114 -374 -6 -110 65 -159 83 -184 70
-71 -38 -110 -20 -51 24 53 40 55 49 55 217 l0 176 -138 83 c-171 101 -173
101 -344 -1 l-139 -82 5 -181 6 -181 147 -89 c133 -81 151 -87 195 -63 60 32
89 9 37 -31 -61 -45 -100 -36 -270 62 l-159 92 0 213 0 213 165 94 c201 115
168 115 361 4z m334 -6 l170 -97 6 -197 c6 -203 -20 -270 -103 -267 -13 0 -3
17 22 38 41 34 45 55 45 224 l-1 187 -144 80 c-146 81 -172 87 -245 61 -32
-12 -30 -7 10 27 63 52 42 57 240 -56z m-448 -96 c-53 -28 -53 -30 -48 -210
l6 -183 150 -89 c131 -77 157 -86 205 -68 68 25 73 0 7 -35 -44 -23 -64 -17
-220 72 l-172 97 0 203 c0 203 39 293 108 252 10 -6 -6 -24 -36 -39z m-1472
-1076 c0 -156 -5 -190 -30 -190 -25 0 -30 34 -30 190 0 156 5 190 30 190 25 0
30 -34 30 -190z m524 76 l116 -115 0 115 c0 101 5 114 40 114 37 0 40 -13 40
-177 0 -226 -4 -228 -154 -79 l-126 125 0 -125 c0 -97 -7 -124 -30 -124 -25 0
-30 34 -30 190 0 224 -3 222 144 76z m664 4 c97 -135 92 -135 194 0 104 139
98 144 98 -80 0 -156 -5 -190 -30 -190 -22 0 -30 23 -30 90 0 108 -15 112 -78
20 -58 -87 -61 -86 -122 4 l-50 74 -10 -89 c-20 -176 -69 -113 -76 96 -6 216
0 220 104 75z m979 88 c58 -27 98 -95 98 -166 0 -183 -265 -250 -385 -98 -128
163 82 357 287 264z m724 -27 c108 -108 41 -292 -117 -322 -138 -26 -143 -19
-150 186 l-6 185 112 0 c92 0 121 -9 161 -49z m669 29 c0 -11 -40 -20 -90 -20
-83 0 -90 -4 -90 -50 0 -44 9 -50 70 -50 49 0 70 -9 70 -30 0 -21 -21 -30 -70
-30 -64 0 -70 -5 -70 -60 0 -58 3 -60 90 -60 67 0 90 -8 90 -30 0 -24 -28 -30
-130 -30 l-130 0 0 190 0 190 130 0 c73 0 130 -9 130 -20z"/>
<path d="M3153 1803 c-78 -85 -10 -211 112 -207 70 2 135 62 135 126 0 101
-176 159 -247 81z"/>
<path d="M3904 1715 c6 -120 8 -125 56 -119 153 19 151 244 -2 244 l-60 0 6
-125z"/>
</g>
</svg>
