<svg viewBox="0 0 24 24" fill="none" xmlns="http://www.w3.org/2000/svg"><path d="M2 6a4 4 0 014-4h12a4 4 0 014 4v12a4 4 0 01-4 4H6a4 4 0 01-4-4V6z" fill="#F60"/><path d="M15.687 9.705c-.414.87-1.65 2.32-2.146 2.923-.333.399-.653.79-.884 1.167-.237.377-.38.733-.387 1.066.027 2.626 7.317-1.225 8.73-2.248-2.086.95-4.328 1.864-6.807 2.038-.686.036-.618-.34-.218-.92.931-1.328 2.704-3.17 2.765-4.483.11-1.711-1.515-2.262-3.186-2.248-1.162.022-2.364.37-3.186.682-2.826 1.059-4.606 2.756-5.727 4.627-1.182 1.856-.795 3.633 1.712 3.691 1.923-.08 3.173-.645 4.477-1.349.007 0-3.6 1.088-4.932.29a.58.58 0 01-.252-.138c-.027-.029-.047-.058-.067-.08a1.204 1.204 0 01-.055-.202c-.007-.668 1.033-1.357 1.617-1.574v-1.124c1.203.45 2.616.312 3.832-.638a.848.848 0 01.06.406h.218c.055-.45-.244-.878-.706-.914.129.123.237.218.285.297 0 .015-.034.037-.034.037-1.57 1.167-3.084.63-3.227.587l.87-.921-.238-.653c1.725-.638 3.18-1.13 5.537-1.566l-.53-.464.278-.181c1.427.427 2.364.732 2.31 1.537" fill="#fff"/></svg>
