<svg fill="none" xmlns="http://www.w3.org/2000/svg" viewBox="0 0 24 24"><path d="M2 6a4 4 0 014-4h12a4 4 0 014 4v12a4 4 0 01-4 4H6a4 4 0 01-4-4V6z" fill="#652C8F"/><path d="M17.2 15l1.569-1.8-1.569-1.8h1.6l.832.874.768-.874h1.578l-1.561 1.793L22 15h-1.6l-.832-.882-.764.882H17.2zm0-4.8h-2v1.2h2v1.2h-2v1.2h2V15H14V9h3.2v1.2z" fill="#EE6F2D"/><path fill-rule="evenodd" clip-rule="evenodd" d="M12.714 11.37V9H14v6h-1.286v-.585c-.261.367-.85.585-1.316.585-1.083 0-1.871-.827-1.994-1.787H6.571c0 .428.376.788.813.788.303 0 .47-.049.616-.201h1.422c-.377.766-1.047 1.2-2.038 1.2-1.243 0-2.217-.864-2.217-2.072 0-.09.007-.208.02-.328H3.286V15H2V9h3.444v1.2H3.286v1.2h2.158v.473c.363-.61 1.059-.985 1.94-.985 1.084 0 1.816.54 2.1 1.424.248-.802.957-1.407 1.897-1.407.46 0 1.016.12 1.333.465zm-5.33.396a.773.773 0 00-.767.608h1.541c-.075-.376-.36-.608-.774-.608zm3.404 1.082c0 .486.327.952.855.952.577 0 .827-.46.827-.952 0-.52-.236-1.02-.827-1.02-.57 0-.855.5-.855 1.02z" fill="#fff"/></svg>