<svg viewBox="0 0 24 24" fill="none" xmlns="http://www.w3.org/2000/svg"><path d="M2 6a4 4 0 014-4h12a4 4 0 014 4v12a4 4 0 01-4 4H6a4 4 0 01-4-4V6z" fill="#F6F6F6"/><path d="M17.052 16.303c-5.667 2.697-9.184.44-11.435-.93-.14-.087-.376.02-.17.256.75.91 3.207 3.101 6.416 3.101 3.21 0 5.12-1.751 5.36-2.057.237-.303.07-.47-.17-.37zm1.592-.88c-.152-.197-.925-.234-1.412-.174-.487.058-1.219.355-1.155.534.032.067.099.037.434.007.336-.033 1.276-.152 1.472.104.197.258-.3 1.487-.39 1.685-.088.198.033.25.198.117.162-.132.456-.473.653-.957.196-.486.316-1.164.2-1.315z" fill="#F90"/><path fill-rule="evenodd" clip-rule="evenodd" d="M13.242 10.8c0 .707.017 1.297-.34 1.926-.289.51-.746.825-1.257.825-.698 0-1.104-.531-1.104-1.316 0-1.548 1.387-1.829 2.7-1.829v.393zm1.831 4.427a.38.38 0 01-.429.043c-.603-.5-.71-.733-1.042-1.21-.997 1.016-1.702 1.32-2.995 1.32-1.527 0-2.718-.942-2.718-2.83 0-1.475.8-2.479 1.937-2.97.986-.434 2.363-.51 3.416-.63v-.235c0-.432.033-.943-.22-1.316-.223-.335-.646-.473-1.02-.473-.692 0-1.31.355-1.46 1.091-.032.164-.152.325-.315.332L8.464 8.16c-.148-.033-.312-.153-.27-.38C8.598 5.644 10.527 5 12.254 5c.884 0 2.04.235 2.737.904.884.826.8 1.927.8 3.125v2.83c0 .851.352 1.225.684 1.684.117.164.143.36-.005.483-.37.31-1.03.884-1.393 1.206l-.005-.005" fill="#2F3037"/></svg>
