<svg fill="none" xmlns="http://www.w3.org/2000/svg" viewBox="0 0 24 24"><g clip-path="url(#clip0)"><path d="M2 6a4 4 0 014-4h12a4 4 0 014 4v12a4 4 0 01-4 4H6a4 4 0 01-4-4V6z" fill="#F60"/><path d="M4.863 22.696c-.039.13.012-.03.026-.057a.476.476 0 00.056-.19c0-.046-.021-.123-.037-.133-.006-.004-.011-.011-.011-.017a489.583 489.583 0 00-3.722-3.815c0-.004-.013-.01-.029-.014a.081.081 0 01-.034-.013c-.005-.01-.098-.009-.138.001a.926.926 0 00-.156.065l-.02.012-.032.016a.257.257 0 01-.332-.363l.365-.377.78-.8a47.032 47.032 0 01.803-.813c.005-.012.02-.022.095-.06a.24.24 0 01.203-.004c.043.023.106.082.106.098 0 .006.005.014.01.018.03.017.036.147.01.19a.328.328 0 00-.02.052c-.006.02-.014.036-.017.036-.003 0-.01.015-.017.033-.006.018-.014.034-.017.034-.003 0-.01.02-.016.046a.157.157 0 01-.017.05c-.009.007-.009.13 0 .13.004 0 .01.012.013.028.003.017.01.032.016.035a.021.021 0 01.012.018c0 .018 3.682 3.794 3.7 3.794.008 0 .017.005.02.011.01.017.09.048.126.048a.589.589 0 00.227-.075c0-.003.015-.01.032-.016.018-.007.033-.015.033-.018a.17.17 0 01.055-.016.215.215 0 01.102 0c.025.005.046.013.046.018 0 .006.005.009.011.009.016 0 .08.073.104.117.016.031.02.048.02.1a.245.245 0 01-.036.133.269.269 0 01-.047.073c-.005.002-.01.01-.01.015 0 .005-.352.369-.78.809l-.781.8-.381.296c-.19-.002-.376 0-.32-.304zm6.907-.003c0-.005.008-.022.017-.038.014-.024.017-.039.014-.083a.161.161 0 00-.01-.06.103.103 0 01-.02-.027 74.25 74.25 0 00-1.039-1.075c-.769-.788-1.036-1.057-1.063-1.07-.055-.026-.102-.023-.169.013a.246.246 0 01-.107.034l-.052.005-.04-.042c-.051-.053-.058-.084-.033-.142.015-.033.114-.14.504-.54.267-.274.488-.498.492-.497.004.001.606.617 1.338 1.368l1.332 1.365-.39.4-.388.4-.158.16c-.137 0-.228-.164-.228-.17zm1.254-1.073l-.091-.094.01-.026c.006-.014.013-.025.017-.025.004 0 .011-.018.017-.04a.178.178 0 01.018-.047.525.525 0 000-.167c-.004-.002-.01-.018-.013-.035a.278.278 0 00-.05-.108.045.045 0 01-.012-.019c-.008-.028-.199-.229-.922-.971-.433-.445-.79-.81-.793-.81a.44.44 0 01-.056-.047.785.785 0 00-.12-.086l-.068-.037h-.11c-.1 0-.113.002-.146.02a.411.411 0 00-.051.033c-.014.012-.022.006-.109-.084a.474.474 0 01-.089-.106c.003-.005.04-.04.081-.077l.093-.084a.07.07 0 01.023-.016c.002 0 .017-.01.032-.021a.11.11 0 01.037-.021c.006 0 .01-.005.01-.009 0-.008.008-.014.077-.05l.057-.03a1.16 1.16 0 01.195-.087 1.537 1.537 0 01.439-.076 1.914 1.914 0 01.42.06.198.198 0 01.053.016.22.22 0 00.049.017.32.32 0 01.05.016.261.261 0 00.042.017c.018.006.034.014.034.018a1.803 1.803 0 01.371.201.438.438 0 01.1.069c.031.026.06.046.065.046.005 0 .012.007.017.017.005.01.012.017.018.017.007 0 .065.046.161.13.055.05.277.28.277.29a.22.22 0 00.033.048.226.226 0 01.033.047c0 .004.006.012.016.018.01.006.017.015.017.019s.013.026.029.048a.262.262 0 01.028.047 1.792 1.792 0 01.126.253l.023.054a.446.446 0 01.021.065c.005.02.012.042.016.046.012.015.041.166.066.33a1.532 1.532 0 01-.018.468.331.331 0 01-.016.079.293.293 0 00-.015.063.276.276 0 01-.017.062.134.134 0 00-.012.034.35.35 0 01-.022.06.237.237 0 00-.015.04.35.35 0 01-.021.05.293.293 0 00-.02.053c0 .004-.004.009-.007.01a.131.131 0 00-.02.032 1.117 1.117 0 01-.035.063.87.87 0 01-.118.176c-.01.01-.017.02-.017.025 0 .004-.022.03-.049.058l-.048.052-.09-.094zm-5.607-1.013c-.072-.028-.151-.092-.151-.122 0-.008-.003-.014-.008-.014-.004 0-.012-.02-.018-.046a.232.232 0 010-.101.19.19 0 01.015-.06.131.131 0 00.019-.034.772.772 0 00.089-.266.375.375 0 00-.048-.138c-.007-.01-.393-.408-.856-.884-.56-.577-.849-.867-.86-.867-.01 0-.111.097-.288.278l-.271.278-.176-.179-.175-.179.273-.281c.151-.155.273-.287.273-.294 0-.01-1.589-1.645-1.633-1.68a.35.35 0 00-.139-.049.595.595 0 00-.223.077c0 .004-.004.007-.008.007a.377.377 0 00-.056.023.216.216 0 01-.108.023c-.053 0-.067-.003-.105-.024a.289.289 0 01-.111-.125.298.298 0 01-.007-.173l.023-.05a.675.675 0 01.025-.054c.007-.014.44-.461.96-.995l.945-.969.07-.034c.062-.03.077-.035.126-.035.043 0 .065.005.1.023a.289.289 0 01.132.15.299.299 0 01-.02.183.249.249 0 00-.02.051.68.68 0 00-.07.172c-.016.062-.012.098.022.17.024.054.122.155 1.863 1.94 1.449 1.486 1.848 1.89 1.885 1.912.095.054.16.05.305-.022a.501.501 0 01.088-.036c.007 0 .013-.003.013-.007 0-.01.066-.026.11-.026.066 0 .101.016.156.071a.224.224 0 01.052.065.08.08 0 00.013.034c.01.017.012.035.01.081a.28.28 0 01-.013.077 1.01 1.01 0 00-.022.046l-.026.054c-.015.03-1.867 1.934-1.881 1.934-.005 0-.012.005-.014.012-.003.007-.017.018-.031.025a.764.764 0 00-.04.02.243.243 0 01-.122.04.19.19 0 01-.067-.002zm6.84-.215c-.04-.026-.068-.07-.068-.108 0-.027.021-.086.048-.134.02-.037.02-.161 0-.172-.008-.004-.014-.014-.014-.019 0-.01-2.053-2.119-2.064-2.119a.075.075 0 01-.028-.017c-.035-.029-.103-.024-.18.014a.213.213 0 01-.112.031c-.043 0-.053-.003-.072-.022-.041-.043-.068-.121-.045-.136.004-.003.01-.017.013-.03.004-.022.106-.131.495-.531l.49-.504 1.336 1.37 1.336 1.37-.48.491c-.503.513-.528.537-.593.537a.139.139 0 01-.062-.021zm1.22-1.293l-.092-.096.02-.028a1.295 1.295 0 00.128-.262.568.568 0 00.03-.1.774.774 0 00.022-.247c0-.193-.02-.292-.091-.467a.882.882 0 01-.065-.196c0-.046.045-.103.096-.12.063-.021.06-.024.473.4l.382.391-.4.41c-.22.227-.405.412-.405.412-.002-.002-.046-.045-.097-.098zm1.015-.967a.27.27 0 01-.068-.069c-.027-.036-.024-.08.01-.15a.21.21 0 00.028-.108v-.05l-1.008-1.034a177.646 177.646 0 00-1.072-1.095l-.064-.06h-.072c-.042 0-.075.005-.078.01a.092.092 0 01-.035.02c-.016.006-.03.014-.032.018-.008.012-.07.021-.095.014a.177.177 0 01-.06-.045c-.035-.039-.035-.04-.032-.091a.16.16 0 01.025-.085c.012-.018.236-.251.497-.52l.475-.486 1.18 1.21c.65.666 1.193 1.218 1.207 1.228.02.016.037.019.08.019.047 0 .064-.004.124-.035.059-.03.074-.033.106-.03.02.002.04.008.041.012.003.004.012.01.02.013a.035.035 0 01.019.022c.002.01.009.019.015.02.015.007.021.06.011.102-.005.021-.011.038-.014.038-.003 0-.01.01-.015.023a31.619 31.619 0 01-1.088 1.113.19.19 0 01-.105-.004zm-1.533-.123a.608.608 0 01-.082-.038.756.756 0 00-.365-.122.516.516 0 00-.181.043c-.018.01-.023.006-.124-.097l-.105-.107.012-.03.022-.05a1.026 1.026 0 000-.27.212.212 0 01-.019-.05 1.096 1.096 0 00-.1-.216.275.275 0 01-.029-.092c-.004-.041-.002-.05.022-.082a.187.187 0 01.053-.05c.024-.012.033-.012.067-.002.037.01.07.042.505.487.5.511.52.533.499.587a.199.199 0 01-.088.09c-.033.017-.035.017-.087-.001zm-5.147-.9a2.769 2.769 0 01-.59-.114 1.258 1.258 0 01-.13-.043l-.098-.038a1.48 1.48 0 01-.103-.042 4.61 4.61 0 01-.441-.223.08.08 0 00-.025-.017.73.73 0 01-.095-.058.11.11 0 00-.034-.019c-.005 0-.01-.004-.01-.008 0-.005-.003-.008-.01-.008a.11.11 0 01-.034-.02.259.259 0 00-.04-.025c-.007-.003-.013-.009-.013-.014 0-.005-.005-.009-.01-.009-.007 0-.023-.011-.04-.024a.13.13 0 00-.037-.025c-.005 0-.012-.006-.014-.014-.002-.007-.008-.012-.013-.012a.193.193 0 01-.049-.033.195.195 0 00-.047-.034c-.005 0-.013-.007-.018-.017-.005-.009-.013-.017-.018-.017-.008 0-.1-.076-.155-.13a.125.125 0 00-.04-.029c-.012 0-.544-.547-.544-.558a.129.129 0 00-.03-.04 1.2 1.2 0 01-.125-.16c0-.006-.007-.014-.017-.019-.009-.005-.017-.013-.017-.018a.182.182 0 00-.032-.048.196.196 0 01-.033-.05c0-.005-.006-.012-.012-.014-.007-.003-.013-.01-.013-.014a.115.115 0 00-.024-.039.107.107 0 01-.024-.038c0-.005-.006-.012-.012-.014-.007-.004-.012-.01-.012-.015a.103.103 0 00-.02-.036.098.098 0 01-.021-.037c0-.006-.004-.01-.008-.01s-.014-.013-.02-.028a.765.765 0 00-.033-.06.7.7 0 01-.03-.057c-.007-.012-.014-.024-.017-.024a.286.286 0 01-.035-.06l-.066-.132c-.02-.04-.054-.11-.074-.159l-.053-.122a.18.18 0 01-.014-.042 1.272 1.272 0 01-.07-.195 5.223 5.223 0 01-.074-.263 1.896 1.896 0 01-.024-.13 1.95 1.95 0 00-.02-.107 4.118 4.118 0 01-.031-.344 3.308 3.308 0 01.023-.459 3.07 3.07 0 01.05-.275 4.53 4.53 0 01.108-.351 3.229 3.229 0 01.307-.604c0-.003.004-.01.008-.016a.721.721 0 00.073-.104c0-.005.024-.037.053-.073l.07-.09.017-.021.177.18c.133.137.175.185.17.194a1.195 1.195 0 00-.065.208.744.744 0 00.01.27.366.366 0 00.04.108c.006.017.014.03.018.03.004 0 .01.009.014.02a.252.252 0 00.04.058.546.546 0 01.034.042c0 .005 3.43 3.523 3.435 3.523 0 0 .021.015.042.033a.554.554 0 00.515.114.583.583 0 00.163-.058c.003-.004.086.075.185.176l.18.183-.02.018a.084.084 0 01-.023.019.532.532 0 00-.069.054.502.502 0 01-.07.055.46.46 0 00-.058.041.465.465 0 01-.059.042.153.153 0 00-.038.025.23.23 0 01-.037.025 1.893 1.893 0 01-.267.152c-.14.071-.168.083-.182.083-.008 0-.014.004-.014.008 0 .005-.004.008-.009.008a.365.365 0 00-.06.02 2.002 2.002 0 01-.262.086l-.09.024a2.241 2.241 0 01-.378.059c-.18.015-.276.015-.462 0zm3.186-.553l-.095-.097.39-.4.391-.401.367.376c.258.264.37.385.376.404.013.04.002.082-.031.12-.036.04-.078.06-.116.054a.476.476 0 01-.093-.038 1.071 1.071 0 00-.499-.13.855.855 0 00-.415.1.85.85 0 00-.153.089l-.028.021-.094-.098zm-.96-.66a1.875 1.875 0 01-.169-.186c0-.007.005-.022.01-.033a.51.51 0 00.023-.059.77.77 0 00.018-.422c-.005-.009-.012-.03-.018-.045a.367.367 0 00-.034-.065.169.169 0 01-.023-.044c0-.011-3.36-3.47-3.48-3.58a1.104 1.104 0 00-.097-.087.248.248 0 01-.04-.023.433.433 0 00-.064-.034l-.055-.023c-.055-.025-.315-.02-.347.004a.116.116 0 01-.04.014.23.23 0 00-.062.022.121.121 0 01-.041.016c-.015 0-.35-.342-.35-.357 0-.006.01-.017.022-.025a1.99 1.99 0 00.141-.116c.007-.007.016-.012.02-.012a.28.28 0 00.051-.035.525.525 0 01.1-.067.078.078 0 00.027-.021c.004-.007.01-.01.015-.01a.15.15 0 00.042-.024.586.586 0 01.067-.04.693.693 0 01.361-.18.42.42 0 00.05-.02.135.135 0 01.034-.012.087.087 0 00.033-.01.285.285 0 01.06-.022.182.182 0 00.05-.017.284.284 0 01.06-.017.256.256 0 00.061-.018.394.394 0 01.066-.016.472.472 0 00.077-.018c.011-.004.065-.013.119-.02l.167-.021a3.9 3.9 0 01.537.008c.025.005.082.015.127.02.114.018.217.038.235.047.01.004.04.012.07.018a.216.216 0 01.06.016.232.232 0 00.049.016.22.22 0 01.05.017.215.215 0 00.049.017.224.224 0 01.049.018.13.13 0 00.036.013c.016.004.036.01.045.016a.317.317 0 00.051.021c.02.006.035.014.035.018 0 .004.005.007.013.007.017 0 .049.016.237.112a2.648 2.648 0 01.342.194c.015.008.027.017.027.021s.004.007.009.007c.01 0 .083.05.088.061a.016.016 0 00.013.006c.005 0 .022.011.038.024a.131.131 0 00.038.026c.005 0 .011.006.013.013.003.007.01.012.014.012.01 0 .088.06.119.092.008.01.02.017.023.017.004 0 .032.022.063.05.03.028.057.051.06.051.003 0 .016.014.031.03s.03.029.037.029c.014 0 .499.497.499.512 0 .006.015.025.033.041a.188.188 0 01.032.037c0 .003.022.03.05.062a.437.437 0 01.066.088c.027.029.08.102.08.112 0 .005.007.014.017.02.009.005.017.013.017.018 0 .005.01.021.025.038a.116.116 0 01.023.04c0 .004.003.01.006.012a.337.337 0 01.066.1c.004 0 .013.012.021.027.008.015.02.038.03.052a.725.725 0 01.03.055 3.493 3.493 0 01.238.489c0 .007.003.012.008.012.004 0 .01.012.013.027.003.015.01.034.015.044a.32.32 0 01.021.054.235.235 0 00.017.046.33.33 0 01.016.045c.005.02.014.049.02.063.006.014.014.04.017.059a.155.155 0 00.012.041.29.29 0 01.016.059 1.707 1.707 0 01.062.318c.007.05.017.112.022.137.012.062.013.53 0 .593a3.41 3.41 0 00-.022.134 1.585 1.585 0 01-.062.305.256.256 0 01-.016.058.342.342 0 00-.017.056.156.156 0 01-.018.053.11.11 0 00-.014.04.545.545 0 01-.022.064c-.007.016-.018.04-.023.055l-.031.072a1.018 1.018 0 01-.093.198.405.405 0 00-.029.052.695.695 0 01-.034.062.529.529 0 00-.033.061c-.007.015-.015.027-.02.027-.004 0-.008.004-.008.01a.104.104 0 01-.021.036.126.126 0 00-.02.033c0 .004-.02.03-.041.06a.378.378 0 00-.04.06.32.32 0 01-.042.056.993.993 0 00-.061.081c-.011.017-.025.032-.03.032a1.88 1.88 0 01-.187-.18zm4.603-.1l-.095-.098.024-.044a.371.371 0 00.014-.328c-.004 0-.007-.004-.007-.01a.098.098 0 00-.02-.038.122.122 0 01-.021-.036c0-.005-.007-.012-.017-.017-.01-.005-.017-.013-.017-.02 0-.013-.716-.745-.735-.751-.008-.003-.014-.008-.014-.012 0-.01-.076-.06-.089-.06-.005 0-.008-.003-.008-.007s-.02-.012-.041-.017a.122.122 0 01-.045-.018.395.395 0 00-.154 0c-.002.005-.018.01-.036.014a.197.197 0 00-.061.026.17.17 0 01-.037.02 1.06 1.06 0 01-.097-.094l-.092-.094.063-.063c.076-.075.17-.164.202-.19l.077-.064a.86.86 0 01.127-.09.975.975 0 01.224-.126.401.401 0 01.107-.04.403.403 0 00.052-.016c.07-.032.419-.033.489 0a.39.39 0 00.055.016c.022.007.04.014.043.018a.757.757 0 01.22.116c.004 0 .033.022.066.05a.457.457 0 00.066.051c.004 0 .014.007.021.017.023.027.045.023.045-.008 0-.014-.004-.025-.008-.025s-.008-.004-.008-.01a.284.284 0 00-.02-.052 1.152 1.152 0 01-.074-.191 1.615 1.615 0 01-.087-.427 1.56 1.56 0 01.124-.738.35.35 0 00.024-.061c0-.005.003-.008.007-.008s.012-.014.018-.032a.363.363 0 01.033-.064 1.718 1.718 0 01.152-.23.106.106 0 00.02-.032c0-.024.023-.005.11.086l.095.096-.02.048a.322.322 0 00-.018.14c0 .09.001.094.028.146.015.029.036.06.046.07.01.01.019.023.019.027 0 .01 1.891 1.95 1.902 1.95.005 0 .022.014.037.032a.233.233 0 00.139.074c.022.003.042.008.045.013.006.009.048.009.067 0a.367.367 0 01.071-.018.265.265 0 00.067-.018c.008-.007.034.014.106.09l.095.097-.036.033a.4.4 0 01-.06.045.469.469 0 00-.058.04.491.491 0 01-.117.072c-.005 0-.009.005-.009.009a.008.008 0 01-.008.008.135.135 0 00-.038.02.205.205 0 01-.057.026c-.015.003-.027.008-.027.011 0 .003-.016.011-.035.018a.371.371 0 00-.05.02.143.143 0 01-.048.017.098.098 0 00-.035.012c-.002.004-.024.011-.051.016a.423.423 0 00-.067.019c-.034.014-.253.04-.338.04a1.96 1.96 0 01-.345-.04.208.208 0 00-.046-.014 1.015 1.015 0 01-.18-.054.356.356 0 00-.059-.021c-.015-.003-.027-.01-.027-.013 0-.004-.01-.009-.022-.012a1.373 1.373 0 01-.249-.13.1.1 0 01-.035-.02.135.135 0 00-.035-.022.196.196 0 01-.047-.032.357.357 0 00-.055-.037c-.007-.004-.013-.01-.013-.015a.009.009 0 00-.01-.009.223.223 0 01-.052-.037.326.326 0 00-.048-.038.14.14 0 01-.032-.029 1.954 1.954 0 01-.177-.167 1.087 1.087 0 00-.149-.137c-.012 0-.014.005-.009.037.003.02.012.058.02.082.012.036.015.073.014.22a.798.798 0 01-.061.379c0 .02-.069.166-.1.211a.094.094 0 00-.014.032c0 .005-.004.009-.008.009-.005 0-.008.005-.008.01 0 .007-.01.024-.023.04a.159.159 0 00-.025.036.06.06 0 01-.013.02c-.06.07-.118.145-.118.149 0 .005-.014.02-.156.174l-.068.072-.095-.1zm3.373-1.228a1.418 1.418 0 01-.092-.099c-.003-.006.002-.032.012-.059a.339.339 0 00.019-.146c0-.06-.003-.102-.009-.105a.095.095 0 01-.02-.035.093.093 0 00-.021-.036c-.006-.004-.011-.012-.011-.018 0-.005-.446-.467-.992-1.027-.907-.93-.996-1.018-1.044-1.043l-.068-.034a.425.425 0 00-.156 0 .182.182 0 01-.055.017c-.025.006-.048.013-.051.018-.004.008-.2-.186-.2-.196 0 0 .005-.004.01-.004a.194.194 0 00.047-.033.22.22 0 01.046-.034c.004 0 .012-.007.018-.017.006-.009.014-.017.019-.017a1.98 1.98 0 01.38-.2.228.228 0 00.047-.017.21.21 0 01.05-.017.527.527 0 00.056-.018 1.493 1.493 0 01.749.001c.021.01.084.024.108.024.012 0 .019-.005.019-.014 0-.008-.123-.14-.27-.292l-.271-.278.245-.251a6.65 6.65 0 01.25-.251c.003 0 .049.043.1.096l.094.096v.102a.789.789 0 00.036.27c.007.028.068.18.078.192a3.67 3.67 0 00.192.307.63.63 0 01.084.17.13.13 0 01-.012.034c-.017.036-.023.077-.012.09a.129.129 0 00.037.026c.016.007.029.017.029.021s.004.008.009.008c.005 0 .026.015.048.034a.23.23 0 00.045.033c.003 0 .014.007.024.017a4.56 4.56 0 01.428.435c0 .004.008.015.017.026a1.55 1.55 0 01.144.2.513.513 0 01.04.066 1.607 1.607 0 01.132.255.71.71 0 00.045.104.214.214 0 01.017.05.14.14 0 00.012.038.35.35 0 01.016.054.503.503 0 01.033.13.45.45 0 00.017.08c.017.034.026.266.017.397a.957.957 0 01-.034.218.244.244 0 01-.016.065c-.004.002-.009.019-.012.038a.815.815 0 01-.053.154c-.017.04-.087.185-.099.204l-.057.09a.345.345 0 01-.05.069c-.004 0-.007.005-.007.01a.168.168 0 01-.035.05l-.034.04-.088-.088zm-6.068-.672a.15.15 0 01-.048-.025c-.002-.004-.011-.011-.022-.015a.052.052 0 01-.026-.022.102.102 0 00-.015-.026.477.477 0 01-.027-.04c-.016-.026-.018-.038-.014-.096a.287.287 0 01.012-.077.275.275 0 00.017-.052.248.248 0 01.017-.05.37.37 0 00.017-.075.43.43 0 01.017-.081.48.48 0 00-.001-.17c-.005-.002-.008-.016-.008-.031 0-.038-.017-.123-.025-.123-.003 0-.009-.014-.012-.031a.408.408 0 00-.025-.076.31.31 0 01-.02-.052.382.382 0 01-.038-.067c-.032-.063-.031-.062-.1-.168a1.163 1.163 0 00-.074-.11c0-.005-.485-.505-1.075-1.11a127.423 127.423 0 01-1.073-1.106c.003-.003.148.07.874.44a11.592 11.592 0 00.362.18.668.668 0 00.115.062s.252.255.557.567c.305.313.556.568.56.568.002 0 .03.02.06.043a1.196 1.196 0 00.117.086c.074.05.266.152.312.164.019.005.04.012.05.016a.539.539 0 00.148.026c.02 0 .043.004.052.009.01.005.023.006.03.003a.284.284 0 01.054-.01.72.72 0 00.245-.057c.13-.04.198-.028.27.048a.276.276 0 01.067.147c0 .04-.032.129-.062.171a.214.214 0 00-.027.05c0 .005-.221.237-.492.514-.27.277-.495.503-.5.503a.175.175 0 00-.05.029.495.495 0 01-.168.063.395.395 0 01-.051-.019zm7.466-.836c-.05-.029-.066-.057-.065-.113 0-.036.007-.06.027-.099a.282.282 0 00.025-.065c0-.008.004-.015.008-.018.013-.008.01-.078-.005-.102-.008-.012-.548-.572-1.203-1.244l-1.19-1.221.427-.438c.235-.241.43-.439.434-.439.003 0 .53.538 1.17 1.195.64.657 1.166 1.195 1.17 1.195a.17.17 0 01.038.03c.03.028.034.029.09.029.04 0 .07-.005.092-.016l.033-.017.002.198.002.197-.442.452c-.362.37-.45.457-.487.475-.053.025-.084.026-.126 0zm-6.2-1.293a345.983 345.983 0 00-2.291-1.17 2.922 2.922 0 01-.261-.133.13.13 0 00-.035-.015c-.017-.007-.03-.014-.03-.017 0-.003-.016-.01-.033-.016-.018-.006-.033-.014-.033-.018 0-.004-.004-.007-.009-.007a.561.561 0 01-.131-.067 1.27 1.27 0 01-.195-.1 3.218 3.218 0 01-.284-.142 54.549 54.549 0 01-.717-.362c-.78-.398-.793-.405-.826-.412a.137.137 0 01-.041-.016.15.15 0 00-.05-.016.15.15 0 01-.04-.011.375.375 0 00-.098-.025c-.01 0-.02-.006-.021-.01-.002-.007-.036-.012-.095-.014-.084-.003-.096-.002-.13.015a.414.414 0 00-.075.052.415.415 0 01-.08.064c-.115.065-.145.074-.21.064-.032-.006-.044-.015-.097-.066-.05-.052-.06-.068-.073-.11-.023-.082-.006-.154.061-.25.007-.01.391-.407.855-.884l.842-.866.144.074.15.074s.084.04.182.09l.336.167.323.162c.09.045.166.083.17.083a4.385 4.385 0 01.329.167c.007 0 .089.037.18.084a47.843 47.843 0 00.524.259c.017.006.031.013.031.016 0 .003.015.01.033.016.017.006.032.013.032.017 0 .003.015.011.033.018.018.006.032.013.032.017 0 .004.015.01.033.017.018.006.032.013.032.016 0 .01.078.035.092.03.017-.007.018-.036.002-.053a.944.944 0 01-.05-.088l-.074-.142a3.948 3.948 0 01-.065-.13.662.662 0 00-.04-.074.867.867 0 01-.05-.088 5.858 5.858 0 00-.073-.142 3.887 3.887 0 01-.062-.121.296.296 0 00-.034-.059.465.465 0 01-.04-.07 6.75 6.75 0 00-.08-.159c-.027-.05-.06-.116-.075-.145a.29.29 0 00-.034-.059.42.42 0 01-.04-.07 6.732 6.732 0 00-.08-.159 6.01 6.01 0 01-.062-.121.377.377 0 00-.03-.053 1.087 1.087 0 01-.048-.088l-.07-.137-.066-.13a1.541 1.541 0 00-.044-.08 1.751 1.751 0 01-.047-.088c-.023-.043-.044-.088-.068-.131l-.07-.134-.046-.09-.014-.023.843-.865c.915-.939.92-.944 1.024-.965a.212.212 0 01.153.017c.07.034.118.097.134.171.013.059-.007.14-.057.243-.077.157-.08.262-.013.347l.05.064c.022.03 3.578 3.676 3.586 3.676.004 0 .018.013.034.03.07.072.138.095.235.073a.534.534 0 00.17-.067c.145-.075.244-.066.333.028a.23.23 0 01.063.166c0 .05-.012.108-.027.121a.226.226 0 00-.021.042c-.013.03-.198.225-.953 1-.515.53-.942.963-.947.963-.006 0-.01.003-.01.008 0 .004-.01.014-.023.02l-.046.025c-.086.047-.15.052-.22.018a.187.187 0 01-.052-.033c-.006-.007-.016-.013-.022-.013a.011.011 0 01-.01-.011c0-.007-.009-.019-.019-.028-.03-.027-.05-.086-.049-.143.001-.045.007-.064.045-.145.064-.133.08-.183.08-.25a.235.235 0 00-.053-.152c-.037-.052-3.094-3.18-3.109-3.18-.03 0-.01.064.05.163a.37.37 0 01.032.063c.006.016.014.031.018.033a.587.587 0 01.042.075 4.135 4.135 0 00.136.259.122.122 0 00.015.034.939.939 0 01.066.121c.02.036.05.097.07.134.02.036.04.075.046.088.006.012.013.022.015.025.003.002.01.017.016.033a.164.164 0 00.015.034c.01.008.081.144.128.24.015.033.031.06.035.06.003 0 .01.015.017.034.006.018.013.033.017.033.004 0 .01.015.016.033.006.019.014.034.017.034.003 0 .02.027.036.06.053.11.117.231.126.24a5.003 5.003 0 00.09.172l.073.142a.96.96 0 00.065.121c.003.002.01.017.016.034a.14.14 0 00.017.034.445.445 0 01.039.067 4.016 4.016 0 00.148.28c.019.036.051.1.073.14l.067.13c.015.03.037.07.048.088a.46.46 0 01.032.063.124.124 0 00.016.033c.008.007.03.048.114.214l.048.088a.71.71 0 01.059.124c0 .005.003.01.007.01.005 0 .021.027.038.06a12.244 12.244 0 00.126.24c.003 0 .011.014.017.031a.13.13 0 00.016.035.79.79 0 01.063.113c.016.032.043.085.061.117a3.099 3.099 0 01.073.138 3.513 3.513 0 00.069.13l.07.133c.019.036.04.076.049.088a.397.397 0 01.025.05.122.122 0 00.016.034.878.878 0 01.061.112l.029.059-.083.086a.61.61 0 01-.092.085l-.68-.348zm-9.545-.177c-.016-.01-.03-.021-.03-.026 0-.004-.006-.012-.013-.017-.026-.019-.022-.124.005-.147a.434.434 0 00.038-.12.1.1 0 00-.01-.063 67.397 67.397 0 00-1.13-1.174L3.412 8.898l.405-.416.404-.416 1.126 1.153c1.061 1.088 1.127 1.153 1.159 1.159.04.007.089-.005.15-.036a.182.182 0 01.088-.022c.037 0 .046.004.072.03a.35.35 0 01.037.044c.013.024.01.073-.009.107-.008.018-.231.253-.52.55-.583.595-.573.587-.657.539zM3.184 9.967l-.407-.417.232-.239.232-.238.083.089.084.089.005.117a.87.87 0 00.039.25l.017.046a1.509 1.509 0 00.157.297.96.96 0 01.035.053l.034.048c.082.108.102.198.057.254-.04.05-.062.062-.114.066l-.048.004-.406-.42zm4.245-.18a.118.118 0 01-.063-.096c-.004-.033.01-.084.023-.095a.44.44 0 00.038-.119.113.113 0 00-.012-.066c-.023-.048-1.955-2.028-1.998-2.048-.05-.023-.09-.017-.178.026-.064.033-.12.031-.155-.003a.16.16 0 01-.048-.098c0-.053.037-.094.54-.61.279-.285.519-.525.534-.533.044-.024.077-.027.105-.012.036.019.083.079.083.105a.363.363 0 01-.04.123.222.222 0 00-.018.145c.007.021.271.297 1 1.045.985 1.01.993 1.017 1.03 1.022.042.006.077-.002.145-.037.06-.03.121-.03.152-.002.057.055.068.1.037.161-.008.018-.231.253-.52.55-.513.526-.55.56-.604.558a.108.108 0 01-.05-.016zm13.754-.095a.152.152 0 01-.043-.03c-.002-.004-.007-.007-.013-.007-.006 0-.017-.007-.025-.016a.144.144 0 00-.042-.03c-.015-.006-.028-.016-.028-.02s-.005-.009-.01-.009A.03.03 0 0121 9.568a.129.129 0 00-.038-.025c-.016-.007-.028-.017-.028-.02 0-.003-.006-.01-.014-.012a.478.478 0 01-.055-.03l-.062-.036c-.01-.006-.022-.012-.024-.015a.12.12 0 00-.033-.016 1.3 1.3 0 01-.105-.046.518.518 0 00-.077-.023.359.359 0 01-.068-.018.625.625 0 00-.133-.01h-.115l-.096-.098-.095-.097.246-.253c.22-.225.249-.252.26-.242.031.026.79.809.816.84.032.04.043.096.027.139a.253.253 0 01-.046.065c-.034.035-.039.037-.086.04a.127.127 0 01-.092-.02zM8.704 8.475c-.069-.04-.08-.1-.036-.196a.213.213 0 00.016-.044c0-.005.003-.008.007-.008.011 0 .018-.063.012-.102-.005-.034-.03-.061-.462-.506-.251-.258-.462-.47-.47-.47a1.51 1.51 0 00-.154.146l-.142.146-.088-.09-.088-.09.142-.147a1.47 1.47 0 00.142-.159 22.4 22.4 0 00-.874-.895c-.012-.006-.022-.013-.022-.016 0-.003-.018-.006-.04-.006-.04 0-.06.006-.146.048-.084.04-.159.01-.18-.072a.145.145 0 01.025-.123 39.352 39.352 0 011.035-1.053c.047-.03.078-.032.12-.01.063.033.093.108.063.153a.66.66 0 00-.034.077c-.025.066-.027.136-.004.166.006.008.452.468.99 1.019.877.9.98 1.004 1.013 1.014.044.013.09.006.148-.022a.492.492 0 01.094-.04c.02-.005.084.028.096.05a.17.17 0 00.019.028c.014.015.013.076-.002.102a.298.298 0 00-.018.033c-.003.007-.235.248-.516.537-.434.445-.515.525-.542.532-.039.01-.082.01-.104-.002zm10.549-.026a.247.247 0 01-.1-.07.248.248 0 01-.051-.063.128.128 0 00-.012-.037.13.13 0 01-.012-.05.55.55 0 01.063-.186.46.46 0 00.066-.243c-.003-.049-.008-.07-.022-.09a.19.19 0 01-.017-.03s-.011-.017-.025-.03c-.014-.013-.025-.027-.025-.031 0-.01-3.595-3.695-3.604-3.695a.117.117 0 01-.034-.03.138.138 0 00-.033-.029.122.122 0 01-.031-.019c-.023-.016-.036-.02-.108-.02a.402.402 0 00-.101.01c-.215.104-.228.11-.275.116-.04.005-.052.002-.122-.032a.347.347 0 01-.114-.145c-.018-.05-.023-.099-.01-.107.004-.002.01-.02.012-.04a.214.214 0 01.026-.067.184.184 0 00.02-.037c0-.01.003-.012.876-.911l.854-.88L18.86 4.18l2.384 2.445-.853.873c-.47.48-.86.879-.87.886a.47.47 0 01-.136.063c-.017.003-.033.01-.036.014-.006.014-.043.009-.095-.01zM5.459 8.427a.393.393 0 01-.07-.045.217.217 0 00-.041-.03.355.355 0 01-.053-.037.298.298 0 00-.055-.038 1.334 1.334 0 00-.285-.15.179.179 0 00-.056-.022l-.076-.02a.99.99 0 00-.141-.01l-.113-.002-.084-.087a1.055 1.055 0 01-.085-.093c0-.003.102-.112.229-.242l.228-.235.395.404c.24.246.4.415.407.432a.14.14 0 01.011.047c0 .046-.05.121-.095.138a.167.167 0 01-.116-.01zm4.537-1.255c-.037-.014-.082-.074-.082-.11 0-.014.012-.052.03-.085.038-.078.047-.16.02-.196a.235.235 0 01-.018-.028c0-.007-1.937-1.992-1.944-1.992-.003 0-.012-.006-.021-.014-.01-.01-.029-.015-.066-.014a.204.204 0 00-.11.032c-.091.048-.145.042-.191-.022a.127.127 0 01-.02-.056c-.009-.069 0-.08.485-.577l.451-.463 1.253 1.285 1.253 1.285-.454.465c-.25.256-.464.47-.478.477a.135.135 0 01-.108.013zM21.37 6.127c-.17-.174-.174-.18-.16-.194.01-.008.017-.019.017-.025 0-.006.005-.014.012-.018.013-.008.027-.029.049-.075.007-.015.015-.027.018-.027.004 0 .01-.008.015-.02l.06-.118a.666.666 0 00.056-.13c.004 0 .012-.019.017-.04a.198.198 0 01.015-.047.238.238 0 00.017-.051.233.233 0 01.017-.05.3.3 0 00.017-.067.443.443 0 01.016-.075c.012-.029.033-.257.033-.366 0-.11-.02-.35-.033-.378a.568.568 0 01-.017-.078.219.219 0 00-.017-.065c-.004-.002-.007-.01-.007-.02a1.135 1.135 0 00-.065-.21.226.226 0 00-.018-.048 2.018 2.018 0 01-.105-.255.382.382 0 01-.016-.198c.01-.041.08-.113.14-.144a.147.147 0 01.102-.019c.04.003.065.01.081.022.014.01.028.019.03.019.004 0 .19.187.413.416l.407.417c.297.3.294.79 0 1.093l-.454.465c-.25.256-.457.466-.46.466 0 0-.085-.082-.18-.18zm-10.243-.185l-.085-.087.018-.028c.01-.015.022-.037.028-.048a.128.128 0 01.015-.026.367.367 0 00.052-.107c.003-.014.009-.026.012-.026.003 0 .01-.023.016-.05a.156.156 0 01.016-.051c.011 0 .028-.165.028-.272a.917.917 0 00-.044-.31.52.52 0 00-.043-.123 1.028 1.028 0 00-.029-.064.25.25 0 01-.025-.145c.008-.028.037-.065.053-.065.006 0 .012-.006.015-.012.007-.02.069-.016.095.004a.06.06 0 00.026.016c.004 0 .162.16.351.354l.345.353-.377.386c-.207.212-.38.385-.38.385a.723.723 0 01-.087-.084zm-.477-1.014a.423.423 0 01-.067-.03 4.068 4.068 0 00-.161-.084.886.886 0 00-.206-.045.571.571 0 00-.17.043c-.009.008-.03-.009-.11-.09l-.1-.102.012-.036a.19.19 0 01.02-.048.38.38 0 00.008-.104.51.51 0 00-.04-.219 1.536 1.536 0 01-.021-.054.19.19 0 00-.015-.034.613.613 0 01-.052-.092.191.191 0 01-.025-.085c0-.035.002-.042.032-.074.04-.041.077-.062.089-.05.005.005.015.008.024.008.011 0 .166.153.451.445.239.245.446.46.46.477.038.05.035.089-.011.135-.04.04-.074.05-.118.039zm9.815-.732a.69.69 0 01-.184-.088 1.47 1.47 0 00-.285-.14.086.086 0 00-.03-.01 1.215 1.215 0 00-.299-.05.906.906 0 00-.273.048.1.1 0 00-.036.017c-.057.035-.045.043-.252-.168l-.19-.196.027-.051a.756.756 0 00.064-.37 1.097 1.097 0 00-.057-.292 1.205 1.205 0 00-.09-.2c-.152-.308-.145-.29-.146-.36-.001-.078.014-.112.078-.176.054-.056.091-.07.163-.063a.16.16 0 01.08.026.172.172 0 00.037.021c.003 0 .012.006.019.013l.055.051a128.431 128.431 0 001.541 1.583c0 .006.007.016.016.023.009.008.03.04.045.073.05.1.039.168-.046.252-.047.045-.113.078-.158.076a.355.355 0 01-.079-.019zM8.8 3.555a.947.947 0 01-.083-.092c0-.004.163-.173.362-.377l.362-.37.355.364c.235.241.355.37.355.382 0 .017-.03.085-.048.106a.173.173 0 01-.042.03c-.03.015-.036.015-.067.004a.577.577 0 01-.076-.033.22.22 0 00-.054-.022.066.066 0 01-.026-.012.056.056 0 00-.029-.013.092.092 0 01-.033-.01.407.407 0 00-.066-.023.242.242 0 01-.052-.017c-.019-.015-.211-.025-.314-.016a.712.712 0 00-.11.015.949.949 0 00-.31.145l-.035.023a.56.56 0 01-.09-.084zm8.158-1.952a3.394 3.394 0 01-.169-.18c0-.005.204-.217.454-.473l.454-.466.011-.01a.686.686 0 01.966.01l.42.432c.334.343.423.438.427.46.003.015.009.029.013.031.01.006.01.041 0 .06a.492.492 0 00-.018.051.454.454 0 01-.162.18c-.038.019-.106.023-.125.006a1.944 1.944 0 01-.177-.079 3.015 3.015 0 00-.181-.084.398.398 0 00-.061-.022c-.02-.005-.037-.012-.039-.016-.002-.004-.02-.009-.038-.013a.294.294 0 01-.06-.017 1.135 1.135 0 00-.196-.046 1.85 1.85 0 00-.565.001 1.203 1.203 0 00-.235.063.258.258 0 00-.05.017.227.227 0 01-.048.017c-.015.003-.026.008-.026.011 0 .004-.015.012-.033.018-.018.006-.032.014-.032.017 0 .003-.012.009-.027.012a.278.278 0 00-.067.032l-.061.038a.657.657 0 00-.113.07.229.229 0 01-.05.032c-.003 0-.011.006-.017.012-.006.007-.014.012-.02.012s-.082-.08-.175-.176z" fill="#fff"/></g><defs><clipPath id="clip0"><rect x="2" y="2" width="20" height="20" rx="4" fill="#fff"/></clipPath></defs></svg>