<svg viewBox="0 0 24 24" fill="none" xmlns="http://www.w3.org/2000/svg"><path d="M2 6a4 4 0 014-4h12a4 4 0 014 4v12a4 4 0 01-4 4H6a4 4 0 01-4-4V6z" fill="#008DE4"/><path fill-rule="evenodd" clip-rule="evenodd" d="M7.055 9.438a.059.059 0 00.06-.06v-.307A.071.071 0 007.042 9H4.028A.028.028 0 004 9.028v.379c0 .017.014.03.031.03h3.024zM4.065 15.4h3.03c.023 0 .043-.02.043-.043v-.35a.044.044 0 00-.044-.045H4.059a.035.035 0 00-.036.036v.36c0 .023.02.042.042.042zm4.425-3.407a.04.04 0 01-.039-.04V11.6c0-.025.02-.044.044-.044h3.736c.022 0 .035.023.025.042-.089.164-.274.325-.338.378a.077.077 0 01-.05.018H8.49zM4 10.219c0 .039.032.07.071.07h2.958a.085.085 0 00.085-.085v-.27a.082.082 0 00-.083-.082H4.078A.078.078 0 004 9.93v.289zm.895 3.083c0-.024.02-.044.043-.044h1.265a.04.04 0 01.04.04v.36a.039.039 0 01-.038.038H4.943a.049.049 0 01-.048-.049v-.345zm1.348-1.688a.06.06 0 00-.059-.06h-1.23a.06.06 0 00-.06.061v.323c0 .03.025.055.056.055h1.236a.058.058 0 00.057-.058v-.32zm-.054-.911c.03 0 .054.024.054.054v.35c0 .019-.015.034-.034.034H4.945a.05.05 0 01-.05-.05v-.343c0-.025.02-.045.045-.045h1.25zm2.262 2.945c0 .027.022.048.049.048h1.252a.048.048 0 00.048-.047v-.35a.04.04 0 00-.04-.04H8.503a.053.053 0 00-.053.053v.336zm-2.26-1.24c.029 0 .052.023.052.052v.32a.064.064 0 01-.064.065H4.955a.06.06 0 01-.06-.06v-.326c0-.028.023-.052.052-.052H6.19zm2.316-1.266h1.254c.02 0 .037-.017.037-.037v-.359a.043.043 0 00-.043-.043H8.493a.044.044 0 00-.044.044v.337c0 .032.027.058.058.058zM8.5 12.845a.048.048 0 01-.048-.049v-.346c0-.024.02-.043.044-.043h3.367c.023 0 .044.008.062.022.069.058.248.217.334.377a.026.026 0 01-.023.039H8.499zm8.354-2.119l-.134.368a.035.035 0 00.033.048h2.317c.02 0 .035-.016.035-.036v-.367a.035.035 0 00-.035-.036h-2.183a.034.034 0 00-.033.023zm.172-.484l.124-.366a.034.034 0 01.034-.023h2.759c.02 0 .035.015.035.035v.366c0 .02-.015.035-.035.035h-2.883a.036.036 0 01-.034-.047zM19.94 9H17.5a.036.036 0 00-.034.023l-.134.367a.035.035 0 00.034.048h2.574c.02 0 .035-.016.035-.035v-.367A.036.036 0 0019.94 9zm-3.975 1.703c.015 0 .028.01.033.023l.134.368a.036.036 0 01-.033.048h-2.275a.066.066 0 01-.066-.067v-.32c0-.028.024-.052.053-.052h2.154zm-8.408-.796v.332c0 .028.022.05.05.05h4.86c.022 0 .04-.02.035-.043-.018-.085-.062-.272-.128-.366a.068.068 0 00-.056-.028H7.611a.055.055 0 00-.054.055zm7.976-.517a.035.035 0 01-.033.048h-2.585a.05.05 0 01-.05-.05v-.34c0-.026.022-.048.05-.048h2.451c.015 0 .029.01.034.023l.133.367zM7.603 9a.048.048 0 00-.048.048v.334c0 .031.025.056.055.056h4.31a.028.028 0 00.017-.049C11.798 9.275 11.415 9 10.94 9H7.602zm8.677 5.982a.014.014 0 01.014-.02h.305c.008 0 .014.008.01.015l-.153.422h-.026l-.15-.417zm1.096-2.161l.13-.367a.035.035 0 00-.034-.047h-2.07a.036.036 0 00-.033.047l.137.367a.035.035 0 00.034.023h1.803a.035.035 0 00.033-.023zm-.175.485l-.134.367a.036.036 0 01-.034.023h-1.191a.036.036 0 01-.034-.023l-.132-.367a.036.036 0 01.033-.047h1.458c.025 0 .042.024.034.047zm-.637-1.727l-.093.255a.036.036 0 01-.067 0l-.093-.255a.036.036 0 00-.033-.024h-2.466a.055.055 0 00-.054.055v.322c0 .034.027.061.06.061h1.253c.02 0 .035-.016.035-.035 0-.04.056-.05.07-.012l.007.024a.035.035 0 00.034.024h2.42c.015 0 .029-.01.034-.023l.015-.039c.014-.037.069-.026.069.013v.013c0 .02.015.036.035.036h1.277c.02 0 .036-.016.036-.036v-.367a.035.035 0 00-.036-.035h-2.47a.032.032 0 00-.033.023zm.333 2.578l-.127.368a.037.037 0 01-.033.024h-.583a.036.036 0 01-.033-.024l-.136-.367a.036.036 0 01.033-.048h.846c.024 0 .041.024.033.047zm.896-1.312h1.278c.02 0 .035-.016.035-.036v-.366a.035.035 0 00-.035-.036h-1.278a.035.035 0 00-.035.036v.366c0 .02.015.036.035.036zM7.105 14.11c.019 0 .033.014.033.032v.377a.03.03 0 01-.03.03H4.067a.043.043 0 01-.044-.043v-.364c0-.018.015-.032.033-.032h3.05zm12.859.852H17.79a.035.035 0 00-.035.036v.367c0 .02.016.035.035.035h2.173c.02 0 .035-.016.035-.035v-.367a.035.035 0 00-.035-.036zm-2.17-1.266a.035.035 0 01-.036-.035v-.367c0-.02.015-.036.035-.036h1.278c.02 0 .035.016.035.036v.367c0 .02-.016.035-.035.035h-1.278zm-2.686-1.253a.035.035 0 00-.035-.036h-1.254a.06.06 0 00-.06.06v.31c0 .038.031.068.068.068h1.246c.02 0 .035-.016.035-.035v-.367zm4.856 1.667c.02 0 .035.016.035.035v.368c0 .02-.015.035-.035.035H17.79a.035.035 0 01-.035-.035v-.368c0-.019.015-.035.035-.035h2.173zm-7.447-3.407H11.15a.039.039 0 00-.039.039v.362c0 .02.017.038.038.038h1.284c.016 0 .031-.01.037-.027.02-.062.07-.227.076-.383a.03.03 0 00-.03-.03zm-.046 2.587c.021.065.066.216.073.364a.04.04 0 01-.04.042h-1.331a.062.062 0 01-.062-.061v-.322c0-.03.025-.055.055-.055h1.26c.021 0 .039.013.045.032zm-.102 1.237c.072-.096.12-.307.135-.386a.026.026 0 00-.025-.03H7.595a.039.039 0 00-.038.038v.361c0 .022.017.039.038.039h4.732a.055.055 0 00.042-.022zm-4.814.48c0-.025.02-.045.044-.045h4.332c.022 0 .032.028.015.042-.13.109-.52.396-1.007.396H7.595a.04.04 0 01-.04-.04v-.353zm5.31-4.766c0 .027.022.048.048.048h2.882a.036.036 0 00.034-.047l-.123-.366a.035.035 0 00-.034-.024H12.92a.056.056 0 00-.056.056v.333zm2.215 3.869c.015 0 .028.012.028.027v.384a.028.028 0 01-.028.027h-2.14a.052.052 0 01-.051-.052v-.34c0-.026.02-.046.045-.046h2.146zm.028-.816a.035.035 0 00-.035-.036H13.82a.061.061 0 00-.061.062v.317c0 .033.026.06.059.06h1.254c.02 0 .035-.016.035-.036v-.367zm-2.22 1.714c0-.025.021-.046.046-.046h2.148c.014 0 .026.01.026.025v.393a.02.02 0 01-.02.02h-2.155a.045.045 0 01-.044-.045v-.347z" fill="#F2F2F2"/></svg>
