<svg fill="none" xmlns="http://www.w3.org/2000/svg" viewBox="0 0 24 24"><path d="M2 6a4 4 0 014-4h12a4 4 0 014 4v12a4 4 0 01-4 4H6a4 4 0 01-4-4V6z" fill="#1B55A4"/><path d="M9.648 14.087l-.027.029c-.44.45-.974.544-1.499.544-1.095 0-1.867-.681-1.867-1.817 0-1.14.772-2.008 1.867-2.008.525 0 1.06.281 1.5.734l.026.025.705-.854-.017-.022c-.587-.694-1.29-1.034-2.154-1.034-.868 0-1.66.292-2.235.821-.62.574-.947 1.38-.947 2.337 0 .956.327 1.762.947 2.335.574.532 1.367.823 2.235.823.864 0 1.567-.338 2.154-1.035l.017-.023-.705-.855zm2.764-4.403h-1.236V16h1.236V9.684zm4.742 4.925c-.33.195-.49.276-.989.276-.399 0-.46-.34-.46-.647v-3.29h1.236V9.69l-1.235-.006V8l-1.235.632v1.052h-1.236v1.263h1.236v3.48c0 .908.622 1.556 1.44 1.573.557.01.801-.169 1.003-.29l.014-.008.296-1.138-.07.044zM19 9.683h-1.235V16H19V9.684z" fill="#fff"/><path d="M19 8c-.84-1.22-2.39-2.001-4.046-2-1.63 0-3.086.754-3.954 2h1.157c.79-.789 1.72-1.104 2.797-1.104 1.057-.001 2.229.315 3.02 1.104H19z" fill="#ED1B2E"/></svg>