<svg viewBox="0 0 24 24" fill="none" xmlns="http://www.w3.org/2000/svg"><g clip-path="url(#clip0)"><path d="M11.719 17H3.28A3.281 3.281 0 010 13.719V5.28A3.281 3.281 0 013.281 2h8.438A3.281 3.281 0 0115 5.281v8.438A3.281 3.281 0 0111.719 17z" fill="#2841C1"/><path fill-rule="evenodd" clip-rule="evenodd" d="M0 5.393v.609l2.327 1.524H0v.79h6.316V2h-.79v4.791L.52 3.511c-.195.302-.341.64-.428 1L0 5.393zM.519 15.49a3.273 3.273 0 01-.298-.586l-.2-.812A3.316 3.316 0 010 13.719v-.72l2.327-1.525H0v-.79h6.316V17h-.79V12.21L.52 15.489zm14.48-2.492v.72l-.115.867a3.266 3.266 0 01-.403.905l-5.008-3.281V17h-.79v-6.316H15v.79h-2.326l2.326 1.524zm-.518-9.488c.116.18.214.373.293.575l.203.81c.014.127.022.256.022.386v.72l-2.326 1.525h2.326v.79H8.684V2h.79v4.791l5.007-3.28z" fill="#F6F6F6"/><path fill-rule="evenodd" clip-rule="evenodd" d="M8.684 2H6.316v6.316H0v2.368h6.316V17h2.368v-6.316H15V8.316H8.684V2zm-4.63 9.474L.022 14.092c.033.283.1.555.2.812l5.284-3.43h-1.45zm10.83 3.11l-4.792-3.11h1.45L15 13.719c0 .3-.04.59-.116.866zM4.737 7.527L.09 4.511c-.06.247-.091.505-.091.77v.112l3.287 2.133h1.45zm10.241-2.63l-4.053 2.63h-1.45l5.301-3.44c.1.255.169.527.202.81z" fill="#FB4B4E"/><path fill-rule="evenodd" clip-rule="evenodd" d="M9.784 8.154h13.433c.285.334.504.725.637 1.154H9.147c.134-.429.352-.82.637-1.154zM9 10.462h15v1.154H9v-1.154zm15 2.308H9v1.153h15V12.77zM9 15.077h15v1.154H9v-1.154zm15 2.308H9v1.154h15v-1.154zM9.147 19.693h14.707c-.133.429-.352.82-.637 1.154H9.784a3.274 3.274 0 01-.637-1.154z" fill="#F5F5F5"/><path fill-rule="evenodd" clip-rule="evenodd" d="M20.719 7H12.28c-1 0-1.896.448-2.498 1.154h13.434A3.274 3.274 0 0020.719 7zM24 11.615H9v1.154h15v-1.154zm-.147-2.307c.096.308.147.635.147.974v.18H9v-.18c0-.34.051-.666.147-.974h14.706zM24 13.923H9v1.154h15v-1.154zm0 4.616v.18c0 .34-.051.666-.147.974H9.147A3.28 3.28 0 019 18.719v-.18h15zm-.783 2.307H9.783A3.274 3.274 0 0012.281 22h8.438c1 0 1.896-.448 2.498-1.154zM9 16.231h15v1.154H9V16.23z" fill="#FA4051"/><path d="M17 7h-4.75C10.455 7 9 8.47 9 10.281v4.796h8V7z" fill="#1939C9"/><path fill-rule="evenodd" clip-rule="evenodd" d="M11.613 7.721l.062.187.197.002c.025 0 .036.032.015.047l-.158.117.06.188a.027.027 0 01-.041.03l-.16-.115-.16.114a.027.027 0 01-.04-.03l.058-.187-.158-.117a.026.026 0 01.016-.047l.196-.002.063-.187a.027.027 0 01.05 0zm-1.743.541a.027.027 0 00.041.03l.16-.115.16.115a.027.027 0 00.04-.03l-.058-.187.158-.117a.027.027 0 00-.016-.048l-.196-.002-.034-.1a3.299 3.299 0 00-.241.233l.046.034-.06.187zm.226 1.016l.063.187.196.001c.026 0 .036.033.016.048l-.158.117.059.187a.027.027 0 01-.04.03l-.16-.115-.16.115a.027.027 0 01-.042-.03l.06-.187-.158-.117a.027.027 0 01.015-.048l.197-.001.062-.187c.008-.024.042-.024.05 0zm.063 1.913l-.063-.186c-.008-.025-.042-.025-.05 0l-.062.186-.197.002a.027.027 0 00-.015.048l.158.117-.06.187a.027.027 0 00.041.03l.16-.115.16.115c.021.014.049-.006.041-.03l-.06-.188.159-.116a.027.027 0 00-.016-.048l-.196-.002zm-.063 1.4l.063.187.196.002c.026 0 .036.032.016.047l-.158.117.059.188a.026.026 0 01-.04.03l-.16-.115-.16.114a.026.026 0 01-.042-.03l.06-.187-.158-.117a.027.027 0 01.015-.047l.197-.002.062-.187c.008-.024.042-.024.05 0zm.063 1.63l-.063-.187c-.008-.024-.042-.024-.05 0l-.062.187-.197.002a.027.027 0 00-.015.047l.158.117-.06.188a.027.027 0 00.041.03l.16-.115.16.114a.027.027 0 00.041-.03l-.06-.187.159-.117a.027.027 0 00-.016-.047l-.196-.002zm.694-5.762l.062.186.197.002c.026 0 .036.032.016.048l-.159.116.06.188a.027.027 0 01-.041.03l-.16-.115-.16.114a.027.027 0 01-.04-.03l.059-.187-.159-.116a.027.027 0 01.016-.048l.197-.002.062-.186a.027.027 0 01.05 0zm.063 1.912l-.063-.186c-.008-.024-.042-.024-.05 0l-.062.186-.197.002a.027.027 0 00-.016.048l.159.117-.06.187a.026.026 0 00.041.03l.16-.115.16.115a.026.026 0 00.04-.03l-.059-.187.159-.117a.027.027 0 00-.016-.048l-.197-.002zm-.063 1.454l.063.187.196.001c.026 0 .036.033.016.048l-.159.117.06.188a.027.027 0 01-.04.03l-.161-.115-.16.114a.027.027 0 01-.04-.03l.059-.187-.159-.117a.026.026 0 01.016-.048l.197-.001.062-.187c.008-.024.042-.024.05 0zm.063 1.66l-.063-.186c-.008-.024-.042-.024-.05 0l-.062.186-.197.002a.026.026 0 00-.016.048l.159.117-.06.187c-.007.024.02.044.041.03l.16-.115.16.115c.02.014.049-.006.04-.03l-.059-.188.159-.116a.026.026 0 00-.016-.048l-.197-.002zm.76-4.02l-.063-.187a.027.027 0 00-.05 0l-.063.187-.196.001a.026.026 0 00-.016.048l.158.117-.059.187a.027.027 0 00.04.03l.16-.115.16.115a.027.027 0 00.042-.03l-.06-.187.159-.117a.027.027 0 00-.016-.048l-.197-.001zm-.063 1.54l.062.186.197.002c.025 0 .036.033.015.048l-.158.117.06.187a.027.027 0 01-.041.03l-.16-.115-.16.115a.027.027 0 01-.04-.03l.058-.188-.158-.116a.027.027 0 01.016-.048l.196-.002.063-.186a.027.027 0 01.05 0zm.062 1.773l-.062-.187a.027.027 0 00-.05 0l-.063.187-.196.002a.027.027 0 00-.016.047l.158.117-.059.188a.026.026 0 00.04.03l.16-.115.16.114a.026.026 0 00.042-.03l-.06-.187.159-.117a.027.027 0 00-.016-.047l-.197-.002zm-.062 1.256l.062.187.197.002c.025 0 .036.032.015.047l-.158.117.06.188a.027.027 0 01-.041.03l-.16-.115-.16.114a.027.027 0 01-.04-.03l.058-.187-.158-.117a.027.027 0 01.016-.047l.196-.002.063-.187a.027.027 0 01.05 0zm.818-5.389l-.062-.186a.027.027 0 00-.05 0l-.063.186-.196.002a.027.027 0 00-.016.048l.158.116-.06.188a.027.027 0 00.042.03l.16-.115.16.114a.027.027 0 00.04-.03l-.059-.187.158-.116a.026.026 0 00-.015-.048l-.197-.002zm-.062 1.54l.062.186.197.002c.025 0 .036.033.015.048l-.158.117.06.187a.026.026 0 01-.041.03l-.16-.115-.16.115c-.021.015-.049-.005-.041-.03l.06-.187-.159-.117a.027.027 0 01.016-.048l.196-.002.063-.186a.027.027 0 01.05 0zm.062 1.827l-.062-.187a.027.027 0 00-.05 0l-.063.187-.196.001a.026.026 0 00-.016.048l.158.117-.06.188c-.007.024.02.044.042.03l.16-.115.16.114a.027.027 0 00.04-.03l-.059-.187.158-.117a.026.026 0 00-.015-.048l-.197-.001zm-.062 1.287l.062.186.197.002c.025 0 .036.033.015.048l-.158.117.06.187a.026.026 0 01-.041.03l-.16-.115-.16.115a.027.027 0 01-.041-.03l.06-.188-.159-.116a.026.026 0 01.016-.048l.196-.002.063-.186a.027.027 0 01.05 0zm.822-5.39l-.062-.188c-.008-.024-.043-.024-.05 0l-.063.187-.197.002a.026.026 0 00-.015.047l.158.117-.06.188a.027.027 0 00.041.03l.16-.115.16.114a.027.027 0 00.041-.03l-.06-.187.16-.117a.027.027 0 00-.017-.047l-.196-.002zm-.062 1.369l.062.187.196.001c.026 0 .037.033.016.048l-.158.117.06.187a.027.027 0 01-.041.03l-.16-.115-.16.115a.027.027 0 01-.041-.03l.059-.187-.158-.117a.027.027 0 01.015-.048l.197-.002.062-.186a.027.027 0 01.05 0zm.062 1.913l-.062-.186a.026.026 0 00-.05 0l-.063.186-.197.002a.027.027 0 00-.015.048l.158.117-.06.187a.027.027 0 00.041.03l.16-.115.16.115c.021.014.049-.006.041-.03l-.06-.188.16-.116a.027.027 0 00-.017-.048l-.196-.002zm-.062 1.4l.062.187.196.002c.026 0 .037.032.016.047l-.158.117.06.188a.026.026 0 01-.041.03l-.16-.115-.16.114a.026.026 0 01-.041-.03l.059-.187-.158-.117a.027.027 0 01.015-.047l.197-.002.062-.187a.026.026 0 01.05 0zm.062 1.63l-.062-.187a.026.026 0 00-.05 0l-.063.187-.197.002a.027.027 0 00-.015.047l.158.117-.06.188c-.007.024.02.044.041.03l.16-.115.16.114a.027.027 0 00.041-.03l-.06-.187.16-.117a.027.027 0 00-.017-.047l-.196-.002zm.694-5.762l.063.186.196.002c.026 0 .036.032.016.048l-.158.116.059.188a.027.027 0 01-.04.03l-.16-.115-.16.114a.027.027 0 01-.042-.03l.06-.187-.158-.116a.027.027 0 01.015-.048l.197-.002.062-.186a.027.027 0 01.05 0zm.063 1.912l-.063-.186a.027.027 0 00-.05 0l-.062.186-.197.002a.027.027 0 00-.015.048l.158.117-.06.187a.026.026 0 00.041.03l.16-.115.16.115a.026.026 0 00.041-.03l-.06-.187.159-.117a.027.027 0 00-.016-.048l-.196-.002zm-.063 1.454l.063.187.196.001c.026 0 .036.033.016.048l-.158.117.059.188a.027.027 0 01-.04.03l-.16-.115-.16.114a.027.027 0 01-.042-.03l.06-.187-.158-.117a.026.026 0 01.015-.048l.197-.001.062-.187a.027.027 0 01.05 0zm.063 1.66l-.063-.186a.027.027 0 00-.05 0l-.062.186-.197.002a.026.026 0 00-.015.048l.158.117-.06.187c-.007.024.02.044.041.03l.16-.115.16.115c.021.014.049-.006.041-.03l-.06-.188.159-.116a.026.026 0 00-.016-.048l-.196-.002zm.695-5.764l.063.187.196.002c.026 0 .036.032.016.047l-.159.117.06.188a.026.026 0 01-.04.03l-.16-.115-.16.114a.027.027 0 01-.042-.03l.06-.187-.159-.117a.026.026 0 01.016-.047l.197-.002.062-.187c.008-.024.042-.024.05 0zm.063 1.744l-.063-.187c-.008-.024-.042-.024-.05 0l-.062.187-.197.001a.027.027 0 00-.016.048l.159.117-.06.187a.027.027 0 00.041.03l.16-.115.16.115a.026.026 0 00.04-.03l-.059-.187.159-.117a.027.027 0 00-.016-.048l-.196-.001zm-.063 1.54l.063.186.196.002c.026 0 .036.033.016.048l-.159.117.06.187a.026.026 0 01-.04.03l-.16-.115-.16.115a.027.027 0 01-.042-.03l.06-.188-.159-.116a.027.027 0 01.016-.048l.197-.002.062-.186c.008-.025.042-.025.05 0zm.063 1.773l-.063-.187c-.008-.024-.042-.024-.05 0l-.062.187-.197.002a.027.027 0 00-.016.047l.159.117-.06.188a.026.026 0 00.041.03l.16-.115.16.114a.026.026 0 00.04-.03l-.059-.187.159-.117a.027.027 0 00-.016-.047l-.196-.002zm-.063 1.256l.063.187.196.002c.026 0 .036.032.016.047l-.159.117.06.188a.026.026 0 01-.04.03l-.16-.115-.16.114a.027.027 0 01-.042-.03l.06-.187-.159-.117a.027.027 0 01.016-.047l.197-.002.062-.187c.008-.024.042-.024.05 0zm.818-5.389L15.4 8.46a.027.027 0 00-.05 0l-.063.186-.196.002a.027.027 0 00-.016.048l.159.116-.06.188a.027.027 0 00.04.03l.161-.115.16.114a.027.027 0 00.04-.03l-.059-.187.159-.116a.026.026 0 00-.016-.048l-.197-.002zm-.062 1.54l.062.186.197.002c.026 0 .036.033.016.048l-.159.117.06.187a.026.026 0 01-.041.03l-.16-.115-.16.115a.026.026 0 01-.04-.03l.059-.187-.159-.117a.027.027 0 01.016-.048l.197-.002.062-.186a.027.027 0 01.05 0zm.062 1.827l-.062-.187a.027.027 0 00-.05 0l-.063.187-.196.001a.026.026 0 00-.016.048l.159.117-.06.188a.027.027 0 00.04.03l.161-.115.16.114a.027.027 0 00.04-.03l-.059-.187.159-.117a.026.026 0 00-.016-.048l-.197-.001zm-.062 1.287l.062.186.197.002c.026 0 .036.033.016.048l-.159.117.06.187c.007.024-.02.044-.041.03l-.16-.115-.16.115c-.02.014-.049-.006-.04-.03l.059-.188-.159-.116a.026.026 0 01.016-.048l.197-.002.062-.186a.027.027 0 01.05 0zm.821-5.39l-.062-.188c-.008-.024-.042-.024-.05 0l-.063.187-.196.002a.026.026 0 00-.016.047l.158.117-.059.188a.027.027 0 00.04.03l.16-.115.16.114a.027.027 0 00.041-.03l-.059-.187.158-.117a.026.026 0 00-.015-.047l-.197-.002zm-.062 1.369l.062.187.197.001c.025 0 .036.033.015.048l-.158.117.06.187a.027.027 0 01-.041.03l-.16-.115-.16.115a.027.027 0 01-.041-.03l.06-.187-.159-.117a.026.026 0 01.016-.048l.196-.001.063-.187c.008-.024.042-.024.05 0zm.062 1.913l-.062-.186c-.008-.025-.042-.025-.05 0l-.063.186-.196.002a.027.027 0 00-.016.048l.158.117-.059.187a.027.027 0 00.04.03l.16-.115.16.115a.027.027 0 00.041-.03l-.059-.188.158-.116a.027.027 0 00-.015-.048l-.197-.002zm-.062 1.4l.062.187.197.002c.025 0 .036.032.015.047l-.158.117.06.188a.026.026 0 01-.041.03l-.16-.115-.16.114a.026.026 0 01-.041-.03l.06-.187-.159-.117a.027.027 0 01.016-.047l.196-.002.063-.187c.008-.024.042-.024.05 0zm.062 1.63l-.062-.187c-.008-.024-.042-.024-.05 0l-.063.187-.196.002a.027.027 0 00-.016.047l.158.117-.059.188c-.008.024.02.044.04.03l.16-.115.16.114c.021.015.05-.005.041-.03l-.059-.187.158-.117a.027.027 0 00-.015-.047l-.197-.002z" fill="#F5F5F5"/></g><defs><clipPath id="clip0"><path d="M0 0h24v24H0V0z" fill="#fff"/></clipPath></defs></svg>
