<!-- by TradingView --><svg width="56" height="56" xmlns="http://www.w3.org/2000/svg"><path fill="#F0F3FA" d="M0 0h56v56H0z"/><path d="M28.404 40.04a2.012 2.012 0 00-2.06.845 1.983 1.983 0 00-.3.72 1.959 1.959 0 00.845 2.055c.22.145.469.244.729.292a1.958 1.958 0 002.067-.836 1.93 1.93 0 00.286-.73 2.048 2.048 0 00-.316-1.481 2.068 2.068 0 00-1.25-.865z" fill="#E6007A"/><path d="M18.708 15.608c2.363-2.299 5.564-3.596 8.905-3.608 3.223.054 6.303 1.308 8.605 3.504 2.302 2.196 3.653 5.167 3.773 8.301a12.067 12.067 0 01-3.125 8.553c-2.127 2.357-5.101 3.832-8.311 4.12 0 0-1.607.108-1.986.162a4.529 4.529 0 00-2.41 1.15 4.328 4.328 0 00-1.301 2.284s-.499 2.372-.554 2.587c-.042.219-.13.427-.257.611a1.664 1.664 0 01-.483.464 1.712 1.712 0 01-1.31.219 1.704 1.704 0 01-.627-.25 1.655 1.655 0 01-.475-.47 1.607 1.607 0 01-.22-1.274c0-.162 3.957-18.041 3.957-18.041.096-.437.365-.818.75-1.06a1.767 1.767 0 011.3-.234c.448.093.84.355 1.089.73.25.373.335.828.24 1.264l-1.662 7.323-.277 1.455a.114.114 0 00.011.151.12.12 0 00.155.01c.319-.078.64-.14.966-.184.886-.108 2.65-.215 2.65-.215a9.257 9.257 0 004.872-1.727 8.882 8.882 0 003.112-4.036 8.63 8.63 0 00.341-5.035 8.796 8.796 0 00-2.54-4.398 9.187 9.187 0 00-4.596-2.335 9.335 9.335 0 00-5.16.487 9.06 9.06 0 00-4.05 3.15 8.696 8.696 0 00-1.624 4.792 7.84 7.84 0 00.49 3.126c.137.425.102.885-.098 1.286-.2.4-.55.712-.978.87-.44.13-.916.09-1.328-.11-.412-.2-.73-.547-.887-.968A12.303 12.303 0 0115 24.274c.012-3.252 1.345-6.367 3.708-8.666z" fill="#1E1E1E"/></svg>