<svg fill="none" xmlns="http://www.w3.org/2000/svg" viewBox="0 0 24 24"><path d="M2 6a4 4 0 014-4h12a4 4 0 014 4v12a4 4 0 01-4 4H6a4 4 0 01-4-4V6z" fill="#2F3037"/><path d="M12 8.952v2.953l.285.46.876 1.41 1.053 1.698.7 1.134.243.391 1.922.002c1.057 0 1.921-.005 1.921-.01 0-.006-.125-.208-.28-.449l-.884-1.39-2.246-3.53a436.357 436.357 0 01-1.08-1.696l-.92-1.445-1.133-1.782a42.583 42.583 0 00-.45-.698C12.002 6 12 7.33 12 8.952z" fill="#D21241"/><path d="M11.547 6.702c-.247.386-.757 1.188-1.136 1.784L9.49 9.93l-.545.856c-.172.271-.412.649-.535.84l-2.246 3.526c-.333.523-.731 1.15-.885 1.39-.154.24-.279.442-.279.448 0 .005.864.01 1.922.01l1.921-.002.242-.39 1.904-3.07.781-1.26.23-.37-.003-2.954L11.993 6l-.447.702z" fill="#fff"/></svg>