<!-- by TradingView --><svg width="56" height="56" xmlns="http://www.w3.org/2000/svg"><path fill="#EAB300" d="M0 0h56v56H0z"/><path d="M18.457 16.977l.79.403c.435.226 1.29.484 1.87.565 2.16.386 3.288.644 4.175 1.047l.903.403.967-.322a6.336 6.336 0 015.449.741c.387.29.757.516.806.516.048 0 .096-.193.096-.451 0-1.048 1.145-1.564 1.677-.742.355.516.258 2.644-.113 3.015-.242.226-.242.338 0 1.048.13.548.194 1.225.13 2.111 0 .726 0 1.338.08 1.338s.242-.29.387-.644c.129-.323.419-.774.628-.935.242-.178.42-.564.516-1.016.08-.419.274-.886.42-1.064.209-.225.306-.596.322-1.177 0-.483.145-1.015.274-1.225.21-.338.274-.612.483-2.643.113-.807.097-.903-.483-1.71-.613-.87-1.064-1.257-1.242-1.095-.064.048-.016.241.065.435.145.242.145.29 0 .225-.129-.032-.322-.29-.484-.564-.113-.29-.483-.645-.773-.806-.58-.274-.806-.129-.404.29.42.436.29.58-.225.194-.258-.194-.468-.435-.468-.532 0-.387-.95-1-1.547-1h-.565l.355.323c.194.193.339.37.29.387-.129.129-.902-.339-1.015-.597-.145-.435-.838-.919-1.387-.919-.677 0-.773.145-.354.484l.354.274-.483-.064a2.128 2.128 0 01-.87-.484c-.581-.516-2.048-.661-2.048-.21 0 .08.161.162.37.242.323.097.29.13-.177.194-.322.032-.644-.017-.79-.162-.37-.322-1.096-.435-1.644-.241-.483.177-.596.435-.21.435.13 0 .242.08.242.161 0 .226-.886.355-1.257.161a1.774 1.774 0 00-1.515.049c-.484.21-.516.596-.032.596.322 0 .306.032-.146.29-.322.21-.757.29-1.29.29-.58-.032-.854.049-1.128.275-.37.322-.483 1.047-.113.725.113-.097.258-.113.323-.065.048.081-.177.436-.548.774l-.661.677z" fill="#fff"/><path d="M20.295 21.104c1.853.484 2.869.855 3.03 1.096.049.097-.225.242-.58.323-1.032.29-1.08.306-1.08.564 0 .161.145.242.435.242.484 0 1.693.483 1.854.79.064.113-.08.08-.37-.065a2.21 2.21 0 00-2.322.145l-.484.387.564.484c.516.435.532.467.274.741-.274.323-.37.838-.128.838.096 0 .21-.08.257-.16.081-.13.21-.097.387.08.226.177.274.403.21.806-.065.42-.032.532.161.532.145 0 .274.129.355.29.08.323.71.645 1.16.645.162 0 .613-.194 1-.484.838-.532 1.37-.532 1.08 0-.097.194-.242.339-.322.339-.097 0-.162.064-.162.161 0 .322.806.145 1.274-.29l.483-.435-.225-.855c-.113-.435-.323-.902-.484-.983-.161-.097-.258-.08-.258.032 0 .29-.419.161-.838-.274-.403-.435-.58-1-.29-1 .21 0 .5.387.5.694 0 .145.064.242.16.193.065-.048.42-.048.775 0 .596.113.644.13.806.92.112.434.515 1.45.902 2.208.371.757.71 1.612.71 1.87 0 .515-.42 1.064-.823 1.064-.402 0-1.031-.532-1.595-1.338-.71-1.048-1.097-.839-.532.29.902 1.74 2.45 2.53 3.353 1.692.741-.693.66-1.966-.274-4.127-.645-1.515-.79-2.385-.484-2.837.161-.193.161-.177.097.049-.145.387.483.37.725 0 .145-.242.258-.307.387-.162.113.081.226.049.37-.096.146-.178.259-.194.484-.049.29.162.371.162.597-.16.242-.355.306-.355.483-.162.323.403.645.338.645-.097 0-.21.097-.387.21-.354.838.016 1-.258.274-.516a.854.854 0 01-.58-.565c-.049-.241-.194-.402-.371-.402-.355 0-.58-.58-.339-.839.097-.096.677-.177 1.29-.177 1.386 0 1.612-.21 1.693-1.45.032-.517 0-1.017-.097-1.162-.258-.37-.484 0-.484.758 0 1.048-.193 1.177-1.725 1.145H31.16l-.435.532c-.597.773-1.242 1.128-1.58.87a2.08 2.08 0 00-.887-.242h-.677l-.032-.935c-.065-1.08-.226-1.338-.822-1.338-.242 0-.742-.193-1.145-.403a9.35 9.35 0 00-3.627-1.096c-2.37-.37-3.966-1.096-4.723-2.176-.564-.774-1.016-.387-.564.483.564 1.129 2.16 1.903 4.304 2.144 2.224.242 4.24.871 3.9 1.226-.144.113-.45.048-1.192-.242a10.059 10.059 0 00-2.757-.564c-2.611-.258-3.95-.742-5.013-1.887-.919-.967-1.193-.467-.403.694.854 1.241 1.934 1.837 4.788 2.579v.016zm9.994 2.66c.097-.145.87 0 1.08.21.081.08.033.16-.129.241-.322.13-1.08-.241-.95-.451zm-4.836-.564c.758-.226.919-.226 1.048 0 .129.21-.355.596-.725.596a1.08 1.08 0 01-.565-.21c-.29-.225-.274-.241.242-.386z" fill="#fff"/><path d="M45.41 22.974c-.16.274-.16.322.033.258.258-.113 1.193.774 1.193 1.128 0 .258-.258.323-.404.065-.08-.13-.177-.097-.322 0-.113.113-.29.161-.387.097-.097-.081-.338-.081-.564-.016l-.387.096.468.435c.644.63.87 1.774.322 1.774-.097 0-.129-.097-.08-.162.064-.096-.049-.16-.21-.16-.178 0-.452-.178-.597-.42a2.145 2.145 0 00-.709-.612c-.387-.21-.435-.194-.677.16a.87.87 0 00-.161.613c.064.162.016.258-.113.258-.71 0-1.225-1.29-.693-1.74.21-.162.21-.226.048-.323a.919.919 0 00-.435-.161c-.194 0-.226.258-.194 1.45A12.252 12.252 0 0130.79 38.257c-.484.08-.629.194-.903.758-.21.39-.488.74-.822 1.032l-.532.338-.08-.419c-.033-.242-.13-.435-.194-.42a.694.694 0 01-.29.065c-.064 0-.145.13-.145.323 0 .322-.532.935-.79.935-.08 0-.161-.161-.161-.323 0-.354-.097-.387-.58-.113l-.355.21.483.258c.226.161.516.42.613.58.226.436.097 2.048-.21 2.338-.21.226-.241.21-.338-.323-.08-.37-.21-.58-.355-.58-.161 0-.419-.145-.612-.322l-.339-.323-.612.323c-.774.37-.903.532-1.29 1.515-.21.564-.37.806-.645.822-.177.048-.322.161-.322.306 0 .146-.113.21-.194.178-.113-.049-.29-.468-.37-.968l-.13-.934.694-.678.677-.709h-1.064c-.87 0-1.08.065-1.21.323-.112.21-.322.322-.628.322-.42 0-.484.064-.484.42 0 .29-.048.386-.16.257-.226-.226-.468-1.29-.355-1.58.145-.37 1.144-.87 1.998-1l.806-.112-.902-.403c-.484-.242-.92-.516-.92-.613 0-.112-.16-.129-.467-.08-.435.08-.483.08-.322-.21.21-.37.758-.693.967-.564.08.048.162.016.226-.064.242-.387.935-.162 1.612.532.37.402.693.725.725.725.033 0 .033-.226 0-.484-.048-.322-.21-.548-.451-.66-.242-.113-.37-.323-.37-.533 0-.37-.323-.58-.758-.435-.194.065-.162-.032.113-.274.257-.21.483-.274.709-.226.248.08.501.145.757.194.28.059.527.22.694.451l.145.258.338.548.242.435.306-.87c.162-.484.226-.87.145-.903a28.693 28.693 0 01-3.175-1.612c-.258-.161-.565-.322-.742-.322-.274.016-.274.016 0 .225.145.113.274.258.274.323 0 .145-.612.097-.983-.08-.323-.178-.903-1.29-.92-1.806 0-.178-.225-.58-.483-.87l-.483-.533.096.484c.081.435.049.548-.129.548-.322 0-.693-.725-.902-1.773v-.08a44.235 44.235 0 00-.258-1.097c-.032-.242-.13-.323-.274-.29-.548.21-.806-1.5-.435-3.08.08-.402.096-.773.048-.854-.194-.177.08-1.08.596-2.144.226-.483.42-1 .371-1.128-.08-.387 1.435-1.886 1.886-1.886.403 0 2.015.403 2.16.532.033.064-.048.225-.193.387a.95.95 0 00-.258.58c0 .145-.226.532-.516.887l-.484.612.436.452c.354.387.403.548.322 1.015-.129.661.13 1.225.564 1.225.21 0 .323.097.323.323 0 .483 1.322 1.999 1.854 2.095.225.049.677 0 1-.112l.563-.21.178.758a6.288 6.288 0 002.095 3.063c.5.37.855.483 1.419.483.967 0 1.435-.355 2.24-1.66.63-1.048 1.71-2.209 2.112-2.209.162 0 .21.13.162.532-.13.548.129.951.306.5.048-.129.21-.258.322-.258.242 0 .532-.613.532-1.128 0-.42.597-1.71.806-1.71.081 0 .145.194.145.404 0 .37.033.387.355.29h.065c.16-.048.241-.08.29-.145.113-.097.129-.322.161-.967v-.097c.048-1.016.274-1.693.564-1.693.08 0 .145.145.145.323 0 .274.049.29.274.16.226-.128.274-.354.274-1.224 0-1.225.162-1.677.484-1.242.161.21.226.226.387 0 .161-.193.161-.386 0-.967-.161-.71-.08-1.773.177-1.773a.145.145 0 01.145.129c0 .097.065.161.145.161.081 0 .113-.403.049-.983-.097-1.064.016-1.854.258-1.854.08 0 .193.242.241.548.065.29.242.645.404.79.22.255.4.544.531.854.162.355.468.677.742.774.258.145.806.548 1.257.935l.79.71v-.63c0-.531.08-.676.532-.966.274-.162.516-.258.532-.21l.113.548c.097.387.161.435.806.435.661 0 1.064.242.758.468-.136.122-.245.27-.323.435zm-27.533-1.773c0-.049-.355-.274-.806-.484l-.758-.403-.403.677c-.32.606-.59 1.236-.806 1.886a8.059 8.059 0 01-.806 1.66l-.355.436-.032-.484c0-.258-.097-.645-.242-.838-.322-.419-1-.483-1.128-.032-.08.387-.21.403-.484.129-.161-.13-.193-.097-.193.21 0 .564.29.773 1.047.773.806 0 1.064.29.339.403-.629.13-1.29-.113-1.564-.564-.274-.435-.403-.387-.693.161-.338.677-.29 1.048.226 1.612.435.484.532.516 1.402.516 1.064 0 1.129.161.21.42-.516.144-.726.144-1.225-.114-.806-.419-1.21-1-1.21-1.805 0-.71-.16-.758-.644-.145-.42.596-.516 1.58-.178 2.257.339.757.855 1.096 1.806 1.209.645.096.693.113.306.225a1.241 1.241 0 01-.935-.129c-.612-.29-.725-.241-.483.29.241.58 1.16.952 1.982.807 1.355-.21 1.854-.806 2.66-3.176a17.04 17.04 0 012.966-5.513v.016z" fill="#fff"/><path d="M29.241 27.004c0-.322.033-.322.404-.161.515.226.95-.097.693-.516-.13-.258-.08-.322.16-.322.178 0 .388.097.42.225.129.323.58.113.484-.241-.113-.484.241-.339.87.29.613.58.855 1.386.37 1.209-.16-.049-.225 0-.225.258 0 .29-.08.322-.387.258-.322-.08-.37-.016-.483.387-.097.548-.484.628-.645.129-.08-.194-.194-.29-.355-.258l-.338.096-.145.033c-.29.096-.806-.855-.806-1.387h-.017z" fill="#fff"/></svg>