<svg viewBox="0 0 24 24" fill="none" xmlns="http://www.w3.org/2000/svg">
<path d="M2 6C2 3.79086 3.79086 2 6 2H18C20.2091 2 22 3.79086 22 6V18C22 20.2091 20.2091 22 18 22H6C3.79086 22 2 20.2091 2 18V6Z" fill="#0A48B6"/>
<path fill-rule="evenodd" clip-rule="evenodd" d="M14.0566 11.5214C14.0566 12.1528 13.9227 12.7523 13.6814 13.2894C15.5525 14.0633 17.6926 14.2261 18.9405 14.321C19.5918 14.3705 20 14.4016 20 14.4914C20 14.4914 14.7577 14.6359 13.0019 14.7843L12.8589 14.504C12.1311 15.2517 11.132 15.7133 10.028 15.7133C9.13637 15.7133 8.31315 15.4117 7.64541 14.901C7.23588 16.0347 7.23761 16.8253 7.73425 17.0211C8.54151 17.3375 10.011 15.9578 10.011 15.9578C9.06071 17.4494 7.47743 18.3654 6.74965 17.8601C6.06941 17.3884 6.20442 15.9935 6.97628 14.2566C6.36788 13.5234 6 12.5663 6 11.5214C6 9.20628 7.80366 7.32815 10.028 7.32815C10.7026 7.32815 11.3388 7.50152 11.8972 7.80635C12.6549 7.14576 13.4746 6.53428 14.3471 6.0001C13.6027 6.65347 12.9033 7.33718 12.2571 8.0292C13.342 8.78045 14.0566 10.0641 14.0566 11.5214ZM10.0281 15.2093C9.19998 15.2093 8.43888 14.9142 7.83534 14.4194C8.5371 12.771 9.96698 10.5595 11.9168 8.39968C12.9121 9.05306 13.5733 10.2067 13.5733 11.5213C13.5733 12.0826 13.4518 12.615 13.2363 13.0914C12.6178 12.7934 12.041 12.4207 11.5516 11.9501L12.6199 14.0369C11.9726 14.7586 11.0515 15.2093 10.0281 15.2093ZM6.48398 11.5215C6.48398 9.48341 8.07039 7.83247 10.0281 7.83247C10.5529 7.83247 11.0502 7.9513 11.4993 8.16367C9.57836 9.93055 8.09087 11.9842 7.21073 13.759C6.75504 13.1375 6.48398 12.3634 6.48398 11.5215Z" fill="#F6F6F6"/>
</svg>
