<svg viewBox="0 0 24 24" fill="none" xmlns="http://www.w3.org/2000/svg"><path d="M11.719 17H3.28A3.281 3.281 0 010 13.719V5.28A3.281 3.281 0 013.281 2h8.438A3.281 3.281 0 0115 5.281v8.438A3.281 3.281 0 0111.719 17z" fill="#2841C1"/><path fill-rule="evenodd" clip-rule="evenodd" d="M0 5.393v.609l2.327 1.524H0v.79h6.316V2h-.79v4.791L.52 3.511c-.195.302-.341.64-.428 1L0 5.393zM.519 15.49a3.273 3.273 0 01-.298-.586l-.2-.812A3.316 3.316 0 010 13.719v-.72l2.327-1.525H0v-.79h6.316V17h-.79V12.21L.52 15.489zm14.48-2.492v.72l-.115.867a3.266 3.266 0 01-.403.905l-5.008-3.281V17h-.79v-6.316H15v.79h-2.326l2.326 1.524zm-.518-9.488c.116.18.214.373.293.575l.203.81c.014.127.022.256.022.386v.72l-2.326 1.525h2.326v.79H8.684V2h.79v4.791l5.007-3.28z" fill="#F6F6F6"/><path fill-rule="evenodd" clip-rule="evenodd" d="M8.684 2H6.316v6.316H0v2.368h6.316V17h2.368v-6.316H15V8.316H8.684V2zm-4.63 9.474L.022 14.092c.033.283.1.555.2.812l5.284-3.43h-1.45zm10.83 3.11l-4.792-3.11h1.45L15 13.719c0 .3-.04.59-.116.866zM4.737 7.527L.09 4.511c-.06.247-.091.505-.091.77v.112l3.287 2.133h1.45zm10.241-2.63l-4.053 2.63h-1.45l5.301-3.44c.1.255.169.527.202.81z" fill="#FB4B4E"/><path d="M20.719 7H12.28A3.281 3.281 0 009 10.281v8.438A3.281 3.281 0 0012.281 22h8.438A3.281 3.281 0 0024 18.719V10.28A3.281 3.281 0 0020.719 7z" fill="#FB4B4E"/><path d="M19.708 13.333h-2.041v-2.041a.292.292 0 00-.292-.292h-1.75a.292.292 0 00-.292.292v2.041h-2.041a.292.292 0 00-.292.292v1.75c0 .161.13.292.292.292h2.041v2.041c0 .161.13.292.292.292h1.75c.161 0 .292-.13.292-.292v-2.041h2.041c.161 0 .292-.13.292-.292v-1.75a.292.292 0 00-.292-.292z" fill="#F6F6F6"/></svg>
