<svg fill="none" xmlns="http://www.w3.org/2000/svg" viewBox="0 0 24 24"><path d="M2 6a4 4 0 014-4h12a4 4 0 014 4v12a4 4 0 01-4 4H6a4 4 0 01-4-4V6z" fill="#F6F6F6"/><path d="M12.352 11.815l.671-.03-.563 2.165h1.204l.562-2.164.656.029.267-1.028h-2.53l-.267 1.028zm-2.49.562C9.691 13.392 8.771 14 7.761 14s-1.731-.608-1.563-1.623c.165-.994 1.097-1.64 2.103-1.64 1.005 0 1.724.646 1.56 1.64zm-2.454.017c-.06.36.154.608.519.608.364 0 .66-.248.72-.608.055-.336-.135-.617-.517-.617a.73.73 0 00-.722.617zm2.08 1.316c.343.18.808.29 1.225.29.716 0 1.497-.373 1.623-1.128.088-.537-.237-.797-.729-.906l-.262-.059c-.089-.021-.235-.038-.216-.155.022-.13.182-.168.287-.168.259 0 .474.105.659.239l.459-.81a1.806 1.806 0 00-1.004-.276c-.72 0-1.505.42-1.63 1.17-.082.495.27.76.726.839l.235.042c.106.02.262.033.238.176-.023.142-.22.189-.338.189-.277 0-.514-.13-.703-.29l-.054-.046-.517.893zm8.003-2.843a2.425 2.425 0 00-.787-.13c-.97 0-1.852.738-2.005 1.66-.15.903.472 1.603 1.416 1.603.215 0 .67-.038.877-.126l.232-1.183c-.224.18-.462.294-.739.294-.36 0-.627-.268-.569-.616.057-.344.396-.617.756-.617.273 0 .49.147.655.32l.164-1.205zm1.926-.13c-1.005 0-1.938.646-2.103 1.64-.168 1.015.552 1.623 1.563 1.623 1.01 0 1.931-.608 2.1-1.623.164-.994-.554-1.64-1.56-1.64zm-.172 1.04c.382 0 .572.28.517.616a.716.716 0 01-.72.608c-.365 0-.578-.247-.519-.608a.73.73 0 01.722-.616zm-12.736-1.62A3.112 3.112 0 005.53 10c-1.21 0-2.31.892-2.501 2.008-.187 1.09.589 1.936 1.766 1.936.268 0 .835-.046 1.094-.152l.288-1.43c-.278.218-.575.355-.92.355-.45 0-.783-.324-.71-.745.07-.416.494-.745.943-.745.34 0 .61.177.815.385l.205-1.455zm13.727 3.639c.018-.11.124-.2.238-.2.114 0 .192.09.174.2a.248.248 0 01-.239.2.168.168 0 01-.173-.2zm.358 0c.014-.089-.04-.147-.128-.147a.173.173 0 00-.176.147c-.015.089.038.148.128.148a.174.174 0 00.176-.148zm-.073.104h-.053l-.034-.088h-.035l-.014.088h-.045l.034-.209h.104c.046 0 .07.015.063.064-.006.036-.03.054-.058.057l.038.088zm-.066-.128c.022 0 .042 0 .046-.023.002-.018-.017-.018-.04-.018h-.049l-.006.04h.049z" fill="#E31837"/></svg>