<!-- by TradingView --><svg xmlns="http://www.w3.org/2000/svg" width="56" height="56"><path fill="url(#a3nwo5heb)" d="M0 0h56v56H0z"/><path fill-rule="evenodd" d="M28 30.92l.05-.06C30.97 33.7 35.18 37 38.83 37A9.08 9.08 0 0048 28c0-4.97-4.1-9-9.17-9-3.88 0-7.7 2.88-10.83 6.08v5.84zm10.7 2.44c3.12 0 5.65-2.4 5.65-5.36 0-2.96-2.53-5.36-5.66-5.36-3.13 0-6.18 2.9-8.32 5.36 1.42 1.6 5.2 5.36 8.32 5.36z" fill="url(#b3nwo5heb)"/><path fill-rule="evenodd" d="M28.12 31.04l-.2-.2c-2.83 2.81-7 6.16-10.75 6.16A9.08 9.08 0 018 28c0-4.97 4.1-9 9.17-9 3.94 0 7.6 3.11 10.68 6.43l.27-.28v5.89zM17.3 33.36c-3.13 0-5.66-2.4-5.66-5.36 0-2.96 2.53-5.36 5.66-5.36 3.13 0 6.18 2.9 8.32 5.36-1.42 1.6-5.2 5.36-8.32 5.36z" fill="url(#c3nwo5heb)"/><path d="M25.24 27.67l.24.21L27.93 31c2.88 2.69 7.08 6 10.9 6a9.13 9.13 0 009-7.26c-.78 1.41-3.5 3.62-8.36 3.57-.25.03-.51.05-.78.05-3.13 0-6.9-3.76-8.32-5.36l.03-.04-2.95-3.55-2.95-2.8c-2.36-1.8-4.8-2.93-7.48-2.93-4.53 0-8.17 3.6-8.9 7.9 2.02-3.66 6.37-4.84 10.19-3.83 2.5.43 4.67 2.42 6.93 4.92z" fill="#46ABE3"/><defs><linearGradient id="a3nwo5heb" x1="10.42" y1="9.71" x2="68.15" y2="76.02" gradientUnits="userSpaceOnUse"><stop stop-color="#1A1E21"/><stop offset="1" stop-color="#06060A"/></linearGradient><linearGradient id="b3nwo5heb" x1="49.02" y1="27.16" x2="27.05" y2="27.16" gradientUnits="userSpaceOnUse"><stop stop-color="#F2A528"/><stop offset="1" stop-color="#EF5E12"/></linearGradient><linearGradient id="c3nwo5heb" x1="9.89" y1="27.33" x2="28.57" y2="27.33" gradientUnits="userSpaceOnUse"><stop stop-color="#5F2685"/><stop offset="1" stop-color="#DA1980"/></linearGradient></defs></svg>