<svg viewBox="0 0 24 24" fill="none" xmlns="http://www.w3.org/2000/svg"><path d="M2 6a4 4 0 014-4h12a4 4 0 014 4v12a4 4 0 01-4 4H6a4 4 0 01-4-4V6z" fill="#7399C6"/><path fill-rule="evenodd" clip-rule="evenodd" d="M14.538 4v2.584h-.323c-.277-1.269-.876-2.222-1.706-2.266-.554-.046-.877.27-1.154.724-.276.544-.415 1.677-.415 3.036 0 1.27.046 2.222.185 2.902.092.317.322.815.922.815.323 0 .553-.09.692-.271.23-.272.277-.816.277-1.179V9.121c0-.453-.138-.724-.37-.86-.183-.092-.46-.092-.599-.137v-.317h2.583v6.482h-.322c-.139-.499-.23-.862-.462-1.27-.23-.407-.646-.86-1.337-.86-.739-.046-1.292.407-1.292 1.087 0 .906.553 1.133 1.568 1.677.969.544 2.215.998 2.215 2.583C15 19.047 13.661 20 12.14 20H9.694v-3.128h.322c.415 2.357 1.43 2.765 2.123 2.765.876 0 1.29-.544 1.29-1.314-.045-.998-.737-1.36-1.706-1.859-1.384-.77-2.03-1.133-2.03-2.402.047-1.088.923-1.767 1.892-2.04-2.03-.227-2.63-2.039-2.584-3.988C9.002 6.085 10.156 4 12.416 4h2.122z" fill="#fff"/></svg>
