<svg viewBox="0 0 24 24" fill="none" xmlns="http://www.w3.org/2000/svg"><path d="M11.719 2H3.28A3.281 3.281 0 000 5.281v8.438A3.281 3.281 0 003.281 17h8.438A3.281 3.281 0 0015 13.719V5.28A3.281 3.281 0 0011.719 2z" fill="#2841C1"/><path fill-rule="evenodd" clip-rule="evenodd" d="M11.413 4.946l-.122-.4a.036.036 0 00-.069 0l-.121.4-.39-.155c-.032-.013-.063.025-.042.054l.237.345-.363.207a.036.036 0 00.015.068l.418.029-.065.413a.036.036 0 00.063.03l.283-.308.283.308c.024.027.068.006.062-.03l-.064-.413.417-.03a.036.036 0 00.016-.067l-.364-.207.238-.345c.02-.03-.01-.067-.043-.054l-.39.155zm-7.344 7.76l-.248-.82a.074.074 0 00-.142 0l-.248.82-.796-.317a.074.074 0 00-.089.11l.487.707-.745.425a.074.074 0 00.032.137l.855.06-.132.847a.074.074 0 00.127.061l.58-.63.58.63c.05.054.139.011.127-.061l-.132-.847.855-.06c.073-.005.095-.101.032-.138l-.745-.424.487-.706a.074.074 0 00-.088-.11l-.797.316zm4.517-4.488l.122.4.388-.154a.036.036 0 01.044.054l-.238.345.364.207a.036.036 0 01-.016.067l-.417.03.064.413a.036.036 0 01-.062.03l-.283-.308-.284.308a.036.036 0 01-.062-.03l.065-.413-.418-.03a.036.036 0 01-.015-.067l.363-.207-.237-.345a.036.036 0 01.043-.054l.389.155.121-.401c.01-.034.059-.034.07 0zm5.39-1.513l-.122-.401c-.01-.034-.06-.034-.07 0l-.12.4-.39-.154c-.033-.014-.063.024-.043.054l.238.344-.364.208a.036.036 0 00.015.067l.418.03-.064.413c-.006.036.038.057.062.03l.283-.308.283.308c.024.027.068.006.063-.03l-.065-.413.418-.03a.036.036 0 00.015-.067l-.364-.208.238-.344c.02-.03-.01-.068-.043-.054l-.389.155zm-2.685 6.078l.122.401.389-.155a.036.036 0 01.043.054l-.238.345.364.207a.036.036 0 01-.016.068l-.417.029.064.414c.006.035-.038.056-.062.03l-.283-.309-.284.309a.036.036 0 01-.062-.03l.065-.414-.418-.03a.036.036 0 01-.015-.066l.363-.208-.237-.345a.036.036 0 01.043-.054l.389.155.121-.4a.036.036 0 01.07 0zm.842-3.255l.098-.293a.041.041 0 01.079 0l.097.293.308.002c.04 0 .056.051.024.075l-.247.183.092.293a.041.041 0 01-.063.047l-.25-.18-.251.18a.042.042 0 01-.064-.046l.093-.294-.248-.183a.042.042 0 01.024-.075l.308-.002z" fill="#F5F5F5"/><path fill-rule="evenodd" clip-rule="evenodd" d="M7.5 2v.585l-2.764 1.81V2H7.5zM.813 3.118a3.276 3.276 0 011.95-1.077v2.355L.814 3.118zM.041 4.763c.034-.217.09-.427.165-.627l.958.627H.04zM0 6.737v.762l1.163-.762H0zm7.501.762v-.762H6.338l1.163.762zM7.5 9.5H4.736V7.104L7.5 8.914V9.5zm.002-4.737v-.762l-1.163.762H7.5zM0 8.915l2.763-1.81V9.5H0v-.585z" fill="#2841C1"/><path fill-rule="evenodd" clip-rule="evenodd" d="M7.5 4.763v.395H4.342V2h.395v2.396L7.5 2.586v.383L4.737 4.763h.725L7.5 3.44V4l-1.164.763H7.5zm-4.343-2.76a3.295 3.295 0 00-.394.038v2.355L.813 3.119a3.294 3.294 0 00-.318.428l1.873 1.216h-.725L.306 3.895a3.26 3.26 0 00-.1.24l.957.628H.04c-.02.13-.033.261-.038.395h3.155V2.003zm0 7.497h-.394V7.104L0 8.914v-.39l2.752-1.787h-.725L0 8.053v-.554l1.163-.762H0v-.395h3.158V9.5zm1.58 0h-.395V6.342H7.5v.395H6.336l1.164.762v.36L5.77 6.737h-.724L7.5 8.33v.585l-2.763-1.81V9.5z" fill="#F5F5F5"/><path fill-rule="evenodd" clip-rule="evenodd" d="M3.158 9.5h1.184V6.342H7.5V5.158H4.342V2h-1.06c-.042 0-.083.001-.124.003v3.155H.003A3.314 3.314 0 000 5.28v1.061h3.158V9.5zm-1.13-2.763L0 8.053v.47l2.752-1.786h-.725zM7.498 8.33L5.045 6.737h.725L7.5 7.859v.47zM2.367 4.763L.494 3.547c-.07.112-.133.228-.19.348l1.338.868h.725zM7.499 3.44L5.461 4.763h-.725L7.5 2.97v.471z" fill="#FF4B55"/><path d="M20.719 7H12.28A3.281 3.281 0 009 10.281v8.438A3.281 3.281 0 0012.281 22h8.438A3.281 3.281 0 0024 18.719V10.28A3.281 3.281 0 0020.719 7z" fill="#FB4B4E"/><path d="M19.708 13.333h-2.041v-2.041a.292.292 0 00-.292-.292h-1.75a.292.292 0 00-.292.292v2.041h-2.041a.292.292 0 00-.292.292v1.75c0 .161.13.292.292.292h2.041v2.041c0 .161.13.292.292.292h1.75c.161 0 .292-.13.292-.292v-2.041h2.041c.161 0 .292-.13.292-.292v-1.75a.292.292 0 00-.292-.292z" fill="#F6F6F6"/></svg>
