<!-- by TradingView --><svg width="56" height="56" xmlns="http://www.w3.org/2000/svg"><path fill="url(#paint0_linear)" d="M0 0h56v56H0z"/><path d="M37.626 18.36c-.132-.13-.197-.262-.197-.426 0-.164.065-.295.197-.426a.7.7 0 01.92 0c.131.131.197.262.197.426 0 .164-.066.295-.197.426a.786.786 0 01-.46.164c-.164.033-.329-.032-.46-.164zm-1.61 1.705a.684.684 0 01-.164-.426c0-.164.065-.295.164-.426.23-.23.624-.23.854 0a.686.686 0 01.164.426.686.686 0 01-.164.426.688.688 0 01-.427.164.688.688 0 01-.427-.164zm-1.741 1.673a.623.623 0 01-.165-.427c0-.164.066-.295.165-.426.23-.23.624-.23.854 0a.623.623 0 01.164.426c0 .164-.066.295-.164.427a.545.545 0 01-.427.163.626.626 0 01-.427-.163zm-1.676 1.672a.528.528 0 01-.197-.427c0-.164.066-.295.197-.426a.7.7 0 01.92 0 .528.528 0 01.197.426.528.528 0 01-.197.427c-.131.13-.296.163-.46.163-.164 0-.329-.032-.46-.163zm-1.609 1.672c-.132-.099-.165-.263-.165-.427 0-.164.066-.295.164-.426.23-.23.624-.23.854 0 .132.099.165.262.165.426a.623.623 0 01-.165.427c-.098.13-.262.164-.427.164a.428.428 0 01-.427-.164zm-1.939 1.246c0-.164.066-.296.164-.427.23-.23.625-.23.855 0a.542.542 0 01.164.427c0 .163-.066.295-.165.426a.626.626 0 01-.427.164c-.164 0-.295-.066-.427-.164a.623.623 0 01-.164-.427zm-3.121 3.704a.622.622 0 01-.164-.426c0-.164.065-.295.164-.426.23-.23.624-.23.854 0a.542.542 0 01.164.426.686.686 0 01-.164.426c-.098.131-.263.164-.427.164-.164.033-.296-.033-.427-.164zm-1.741 1.672a.528.528 0 01-.198-.426c0-.164.066-.295.198-.426a.7.7 0 01.92 0c.13.131.197.262.197.426 0 .164-.066.295-.198.427-.13.13-.295.163-.46.163-.164.033-.328-.032-.46-.163zm-1.61 1.706a.623.623 0 01-.164-.427c0-.164.065-.328.164-.426.23-.23.624-.23.854 0a.622.622 0 01.164.426.686.686 0 01-.164.426.544.544 0 01-.427.164.688.688 0 01-.427-.164zm-1.676 1.671c-.131-.098-.164-.262-.164-.426 0-.164.066-.295.164-.426.23-.23.625-.23.855 0 .098.131.164.262.164.426a.623.623 0 01-.165.426.545.545 0 01-.427.164c-.164 0-.328-.032-.427-.164zm-1.741 1.673a.528.528 0 01-.197-.427c0-.164.066-.295.197-.426.263-.23.657-.23.887 0 .131.131.197.262.197.426a.528.528 0 01-.197.427.786.786 0 01-.46.163c-.164 0-.328-.032-.427-.163zm-1.642 1.672a.542.542 0 01-.165-.427c0-.163.066-.295.165-.426.23-.23.624-.23.854 0a.542.542 0 01.164.426c0 .164-.066.295-.164.427a.625.625 0 01-.427.164c-.132.032-.296-.033-.427-.164zm.854-20.066a.69.69 0 00.164-.426c0-.164-.066-.295-.164-.426a.616.616 0 00-.854 0 .542.542 0 00-.165.426c0 .164.066.295.165.426a.625.625 0 00.427.164.428.428 0 00.427-.164zm1.676 1.705c.13-.13.196-.262.196-.426 0-.164-.065-.295-.197-.426a.7.7 0 00-.92 0c-.131.131-.197.262-.197.426 0 .164.066.295.197.426a.787.787 0 00.46.164.786.786 0 00.46-.164zm1.708 1.673a.623.623 0 00.164-.427c0-.164-.066-.295-.165-.426a.616.616 0 00-.854 0 .623.623 0 00-.164.426c0 .164.066.295.164.427a.545.545 0 00.427.163.775.775 0 00.428-.163zm1.675 1.672a.622.622 0 00.164-.427.686.686 0 00-.164-.426.616.616 0 00-.854 0 .623.623 0 00-.164.426c0 .164.065.328.164.427a.545.545 0 00.427.163.59.59 0 00.427-.163zm1.643 1.672a.528.528 0 00.197-.427c0-.164-.066-.295-.197-.426a.657.657 0 00-.887 0 .528.528 0 00-.198.426.53.53 0 00.198.427c.131.13.295.164.46.164a.428.428 0 00.427-.164zm1.872 1.246a.688.688 0 00-.164-.427.616.616 0 00-.854 0 .542.542 0 00-.164.427c0 .163.065.295.164.426a.626.626 0 00.427.164c.164 0 .296-.066.427-.164.132-.099.164-.263.164-.427zm1.512 2.131a.542.542 0 00.164-.427c0-.163-.066-.295-.164-.426a.616.616 0 00-.855 0 .542.542 0 00-.164.426c0 .164.066.296.164.427a.625.625 0 00.427.164.625.625 0 00.428-.164zm1.675 1.573a.528.528 0 00.197-.426c0-.164-.065-.295-.197-.426-.263-.23-.657-.23-.887 0-.131.131-.197.262-.197.426 0 .164.066.295.197.426.132.131.296.164.46.164.132.033.296-.033.427-.164zm1.708 1.672a.622.622 0 00.165-.426c0-.164-.066-.295-.165-.426a.616.616 0 00-.854 0c-.098.131-.164.262-.164.426 0 .164.066.295.164.427a.545.545 0 00.427.163c.132.033.296-.032.427-.163zm1.676 1.706a.622.622 0 00.164-.427.622.622 0 00-.164-.426.616.616 0 00-.854 0 .622.622 0 00-.164.426c0 .164.065.295.164.426a.544.544 0 00.427.164.688.688 0 00.427-.164zm1.577 1.671c.132-.098.164-.262.164-.426a.686.686 0 00-.164-.426.616.616 0 00-.854 0 .686.686 0 00-.164.426c0 .164.065.328.164.426a.544.544 0 00.427.164c.164 0 .329-.032.427-.164zm1.774 1.673c.131-.099.164-.263.164-.427a.686.686 0 00-.164-.426.616.616 0 00-.854 0 .542.542 0 00-.164.426c0 .164.065.328.164.427a.625.625 0 00.427.163c.164 0 .329-.032.427-.163zm1.676 1.672c.131-.132.197-.263.197-.427 0-.163-.066-.295-.197-.426-.263-.23-.657-.23-.888 0-.13.131-.197.263-.197.426 0 .164.066.295.197.427a.786.786 0 00.46.164c.132.032.296-.033.428-.164zM22.349 18.82c1.708-1.115 3.58-1.64 5.65-1.673 2.038 0 3.91.558 5.651 1.673l3.614-3.607C34.44 13.082 31.384 12 28 12c-3.384 0-6.473 1.082-9.232 3.213l3.58 3.607zm-3.614 14.786C17.585 31.868 17.027 30 17.027 28c0-2.033.558-3.902 1.708-5.607l-3.581-3.573C13.05 21.574 12 24.623 12 28.032c0 3.345 1.051 6.427 3.187 9.213l3.548-3.639zM33.65 37.18c-1.708 1.147-3.58 1.737-5.618 1.77-2.07 0-3.975-.557-5.683-1.738l-3.614 3.574c2.792 2.164 5.88 3.246 9.297 3.213 3.384-.032 6.44-1.114 9.2-3.213L33.65 37.18zm3.516-14.82c1.15 1.738 1.741 3.64 1.708 5.705-.033 2-.591 3.836-1.708 5.508l3.614 3.574C42.915 34.393 44 31.344 44 28c.032-3.41-1.052-6.492-3.22-9.279l-3.614 3.64zm3.778 15.934c1.38 0 2.53 1.115 2.53 2.525a2.528 2.528 0 01-2.53 2.525 2.528 2.528 0 01-2.53-2.525 2.507 2.507 0 012.53-2.525zm-25.824 0a2.5 2.5 0 012.497 2.525c0 1.377-1.117 2.525-2.497 2.525a2.5 2.5 0 01-2.497-2.525 2.5 2.5 0 012.497-2.525zm25.857-25.737a2.5 2.5 0 012.497 2.525 2.5 2.5 0 01-2.497 2.524 2.5 2.5 0 01-2.497-2.524 2.5 2.5 0 012.497-2.525zm-25.89 0c1.38 0 2.53 1.115 2.53 2.492s-1.117 2.492-2.53 2.492c-1.38 0-2.53-1.115-2.53-2.492s1.117-2.492 2.53-2.492z" fill="#fff"/><defs><linearGradient id="paint0_linear" x1="10.418" y1="9.712" x2="68.147" y2="76.017" gradientUnits="userSpaceOnUse"><stop stop-color="#1A1E21"/><stop offset="1" stop-color="#06060A"/></linearGradient></defs></svg>