<svg viewBox="0 0 25 24" fill="none" xmlns="http://www.w3.org/2000/svg"><g clip-path="url(#clip0)"><path d="M11.719 2H3.28A3.281 3.281 0 000 5.281v8.438A3.281 3.281 0 003.281 17h8.438A3.281 3.281 0 0015 13.719V5.28A3.281 3.281 0 0011.719 2z" fill="#0A48B6"/><path fill-rule="evenodd" clip-rule="evenodd" d="M7.74 5.301l-.126-.375a.053.053 0 00-.1 0l-.126.375-.395.004a.053.053 0 00-.031.096l.318.235-.12.377c-.015.048.04.089.082.059l.322-.23.322.23c.041.03.097-.01.081-.06l-.119-.376.318-.235a.053.053 0 00-.031-.096L7.74 5.3zm0 8.054l-.126-.375a.053.053 0 00-.1 0l-.126.375-.395.003a.053.053 0 00-.031.096l.318.235-.12.377c-.015.049.04.09.082.06l.322-.23.322.23c.041.03.097-.011.081-.06l-.119-.377.318-.235a.053.053 0 00-.031-.096l-.395-.003zm3.9-4.402l.126.375.395.003c.052 0 .073.066.032.097l-.319.234.12.377a.053.053 0 01-.082.06l-.322-.23-.321.23a.053.053 0 01-.082-.06l.12-.377-.319-.234a.053.053 0 01.031-.097l.396-.003.125-.375a.053.053 0 01.1 0zm-7.927.375l-.125-.375a.053.053 0 00-.101 0l-.125.375-.395.003a.053.053 0 00-.032.097l.318.234-.119.377c-.015.05.04.09.082.06l.322-.23.321.23c.042.03.097-.01.082-.06l-.12-.377.319-.234a.053.053 0 00-.031-.097l-.396-.003zm.48-2.478l.126.375.395.003c.051 0 .072.066.031.096l-.318.235.12.377a.053.053 0 01-.082.06l-.322-.23-.322.23a.053.053 0 01-.081-.06l.119-.377-.318-.235a.053.053 0 01.031-.096l.395-.003.125-.375a.053.053 0 01.102 0zm7.1 4.402l-.126-.375a.053.053 0 00-.1 0l-.126.375-.395.003a.053.053 0 00-.032.096l.319.235-.12.377c-.015.049.04.09.082.06l.322-.23.321.23c.042.03.098-.011.082-.06l-.12-.377.319-.235a.053.053 0 00-.031-.096l-.396-.003zm-1.6-5.876l.125.375.395.003c.051 0 .073.066.031.097l-.318.234.12.377a.053.053 0 01-.082.06l-.322-.23-.322.23a.053.053 0 01-.081-.06l.119-.377-.318-.234a.053.053 0 01.031-.097l.395-.003.126-.375a.053.053 0 01.1 0zm-3.902 7.35l-.125-.375a.053.053 0 00-.1 0l-.126.375-.395.003a.053.053 0 00-.032.096l.319.235-.12.377c-.015.049.04.09.082.06l.322-.23.321.23c.042.03.098-.011.082-.06l-.12-.377.319-.235a.053.053 0 00-.031-.096l-.396-.003zm5.275-5.876l-.125.375-.395.003a.053.053 0 00-.032.096l.319.235-.12.377c-.015.05.04.09.082.06l.322-.23.321.23c.042.03.098-.01.082-.06l-.12-.377.319-.235a.053.053 0 00-.031-.096l-.396-.003-.125-.375a.053.053 0 00-.1 0zm-7.099 4.402l.125-.375a.053.053 0 01.102 0l.125.375.395.003c.051 0 .073.066.031.096l-.318.235.12.377a.053.053 0 01-.082.06l-.322-.23-.322.23a.053.053 0 01-.081-.06l.119-.377-.318-.235a.053.053 0 01.031-.096l.395-.003zm1.598-5.876l-.125.375-.395.003a.053.053 0 00-.032.097l.319.234-.12.377c-.015.05.04.09.082.06l.322-.23.321.23c.042.03.098-.01.082-.06l-.12-.377.319-.234a.053.053 0 00-.031-.097l-.396-.003-.125-.375a.053.053 0 00-.1 0zm3.901 7.35l.126-.375a.053.053 0 01.1 0l.126.375.395.003c.051 0 .073.066.031.096l-.318.235.12.377a.053.053 0 01-.082.06l-.322-.23-.322.23a.053.053 0 01-.081-.06l.119-.377-.318-.235a.053.053 0 01.031-.096l.395-.003z" fill="#FFE15A"/><path d="M21 7h-9v15h9V7z" fill="#F6F6F6"/><path fill-rule="evenodd" clip-rule="evenodd" d="M12.137 7c-.046 0-.092.001-.137.003L12.137 7zM12 21.996c-1.669-.075-3-1.514-3-3.278v-8.437c0-1.764 1.331-3.203 3-3.278v14.993zm.137.003L12 21.996c.045.002.091.003.137.003zM20.864 7l.136.003A3.054 3.054 0 0020.864 7zm.136.003c1.67.074 3.001 1.513 3.001 3.278v8.437c0 1.812-1.404 3.281-3.137 3.281l.135-.003L21 7.003zm-1.396 7.755l-1.535.877a.374.374 0 00-.165.455l.132.35-1.316-.112a.122.122 0 00-.132.126l.041 1.407h-.259l.042-1.407a.122.122 0 00-.133-.126l-1.315.113.131-.351a.373.373 0 00-.164-.455l-1.534-.877.352-.176a.259.259 0 00.14-.266l-.114-.859.65.19a.259.259 0 00.324-.193l.062-.281.61.714c.085.099.246.023.224-.105l-.26-1.515.398.109a.259.259 0 00.297-.128l.42-.787v-.001.001l.42.787c.057.107.18.16.297.128l.399-.11-.261 1.516c-.022.128.14.204.224.105l.61-.714.062.28a.259.259 0 00.325.193l.65-.189-.115.86a.259.259 0 00.14.265l.352.176z" fill="#FB4B4E"/></g><defs><clipPath id="clip0"><path d="M0 0h24.001v24H0V0z" fill="#fff"/></clipPath></defs></svg>
