<svg viewBox="0 0 24 24" fill="none" xmlns="http://www.w3.org/2000/svg"><g clip-path="url(#clip0)"><path d="M12 2H3v15h9V2z" fill="#F6F6F6"/><path fill-rule="evenodd" clip-rule="evenodd" d="M3.137 2A3.06 3.06 0 003 2.003L3.137 2zM3 16.996c-1.669-.075-3-1.514-3-3.278V5.281c0-1.764 1.331-3.203 3-3.278v14.993zm.137.003L3 16.996c.045.002.091.003.137.003zM11.864 2l.136.003A3.054 3.054 0 0011.864 2zm.136.003c1.67.074 3.001 1.513 3.001 3.278v8.437c0 1.812-1.404 3.281-3.137 3.281l.135-.003L12 2.003zm-1.396 7.755l-1.535.877a.373.373 0 00-.165.455l.132.35-1.316-.112a.122.122 0 00-.132.126l.041 1.407H7.37l.042-1.407a.122.122 0 00-.133-.126l-1.315.113.132-.351a.373.373 0 00-.165-.455l-1.535-.877.353-.176a.259.259 0 00.14-.266l-.114-.859.65.19a.259.259 0 00.324-.193l.062-.281.61.714c.085.099.246.023.224-.105l-.26-1.515.398.109a.259.259 0 00.297-.128l.42-.787V6.46v.001l.42.787c.057.107.18.16.297.128l.399-.11-.261 1.516c-.022.128.14.204.224.105l.61-.714.062.28a.259.259 0 00.325.193l.65-.189-.115.86a.259.259 0 00.14.265l.353.176z" fill="#FB4B4E"/><path d="M20.719 7H12.28A3.281 3.281 0 009 10.281v8.438A3.281 3.281 0 0012.281 22h8.438A3.281 3.281 0 0024 18.719V10.28A3.281 3.281 0 0020.719 7z" fill="#FB4B4E"/><path d="M19.708 13.333h-2.041v-2.041a.292.292 0 00-.292-.292h-1.75a.292.292 0 00-.292.292v2.041h-2.041a.292.292 0 00-.292.292v1.75c0 .161.13.292.292.292h2.041v2.041c0 .161.13.292.292.292h1.75c.161 0 .292-.13.292-.292v-2.041h2.041c.161 0 .292-.13.292-.292v-1.75a.292.292 0 00-.292-.292z" fill="#F6F6F6"/></g><defs><clipPath id="clip0"><path d="M0 0h24v24H0V0z" fill="#fff"/></clipPath></defs></svg>
