<svg viewBox="0 0 24 24" fill="none" xmlns="http://www.w3.org/2000/svg"><path d="M2 6a4 4 0 0 1 4-4h12a4 4 0 0 1 4 4v12a4 4 0 0 1-4 4H6a4 4 0 0 1-4-4V6z" fill="#fff"/><path d="M8.303 11.034v2.907h-.925v-3.654l1.91.002c.812 0 1.088.573 1.088 1.092v2.56h-.924v-2.555c0-.218-.112-.352-.384-.352h-.765zm6.292-.043c-.316 0-.56.162-.663.383a.946.946 0 0 0-.089.396h1.424c-.018-.396-.198-.78-.672-.78zm-.752 1.41c0 .472.294.82.82.82.409 0 .612-.113.848-.348l.571.546c-.366.361-.75.58-1.426.58-.886 0-1.733-.482-1.733-1.89 0-1.203.74-1.883 1.712-1.883.986 0 1.555.797 1.555 1.84v.334h-2.347zm-1.701 1.536c-.754 0-1.074-.525-1.074-1.043V9.292h.924v.995h.696v.747h-.696v1.802c0 .212.1.33.32.33h.376v.77h-.546zM6.555 9.783h-.932v-.885h.932v.885zm.002 4.197c-.698-.068-.935-.49-.935-.979l.001-2.713h.934v3.691zm11.104-.079c-.696-.067-.933-.49-.933-.977V8.772h.933v5.13zm3.26-4.53c-.846-4.119-8.843-4.38-13.997-1.242v.347c5.15-2.647 12.452-2.631 13.118 1.163.222 1.255-.485 2.563-1.748 3.315v.984c1.52-.556 3.079-2.36 2.626-4.566zm-9.37 7.209c-3.558.329-7.265-.188-7.784-2.968-.254-1.37.37-2.823 1.199-3.725v-.483c-1.491 1.308-2.3 2.963-1.834 4.919.594 2.508 3.776 3.929 8.632 3.457 1.921-.188 4.436-.806 6.185-1.765V14.65c-1.587.945-4.212 1.726-6.399 1.929z" fill="#296BBA"/><path d="M18.739 9.047c0-.045-.027-.06-.087-.06h-.058v.129l.058.001c.06 0 .087-.02.087-.062v-.008zm.09.318h-.069a.016.016 0 0 1-.014-.01l-.094-.16a.031.031 0 0 0-.013-.006h-.042v.158c0 .009-.006.018-.017.018h-.063c-.008 0-.015-.01-.015-.018v-.4c0-.024.009-.033.028-.036.022-.003.082-.005.114-.005.115 0 .184.034.184.141v.008c0 .067-.033.102-.084.12l.098.164.002.012c0 .006-.004.014-.015.014zm-.163-.531a.308.308 0 1 0 0 .618.308.308 0 0 0 0-.618zm0 .68a.37.37 0 1 1 0-.742c.204 0 .372.167.372.37a.373.373 0 0 1-.372.372z" fill="#0071C5"/></svg>
