<svg fill="none" xmlns="http://www.w3.org/2000/svg" viewBox="0 0 24 24"><path d="M2 6a4 4 0 014-4h12a4 4 0 014 4v12a4 4 0 01-4 4H6a4 4 0 01-4-4V6z" fill="#008DE4"/><path fill-rule="evenodd" clip-rule="evenodd" d="M10.207 6.5l1.077 2.38V6.5h2.988l.568 1.453.484-1.453h3.185v5.156H19l-2.716 2.924 2.69 2.92h-3.618l-.843-.954-.823.954H7.101v-5.156H5l2.65-5.843h2.556zm1.457 10.313v-.97H9.13v-.795h2.535v-.94H9.13v-.765h2.535v-1l-1.783.001h-2.02v4.469h3.802zm0-4.47l2.104 2.263-2.054 2.207h1.605l1.187-1.377 1.216 1.377h1.629l-2.058-2.235 2.075-2.234h-1.565l-1.257 1.398-1.252-1.398h-1.63zm.056-.687L9.696 7.188H8.16l-2.026 4.469h1.319l.374-.688H10l.372.687h1.348zm.325 0h1.14V8.404l1.141 3.252h1.141l1.14-3.252v3.252h1.142V7.187h-1.86l-.992 2.98-1.163-2.98h-1.69v4.47zM8.91 8.265l-.665 1.672h1.327L8.91 8.265z" fill="#fff"/></svg>