<svg fill="none" xmlns="http://www.w3.org/2000/svg" viewBox="0 0 24 24"><path d="M2 6a4 4 0 014-4h12a4 4 0 014 4v12a4 4 0 01-4 4H6a4 4 0 01-4-4V6z" fill="#1B55A4"/><path fill-rule="evenodd" clip-rule="evenodd" d="M18.162 15.325A6.969 6.969 0 0019 12c0-3.846-3.134-7-7-7a7 7 0 00-7 7 7 7 0 0010.325 6.162 7.232 7.232 0 002.837-2.837zm-4.448-5.206c0-.836.565-1.646.874-1.493.352.176-.264.963-.874 1.493zm-3.846.304c0-.672.663-1.948 1.068-1.813.478.16-.397 1.447-1.068 1.813zm-1.18 4.297c0 .325.179.619.484.605 1.045-.047 1.482-1.542 1.645-2.762-.917.448-2.13 1.283-2.13 2.157zm4.883-1.222c0-.61.529-1.12 1.221-1.12.896 0 1.364.773 1.364 1.607 0 .916-.818 1.97-1.977 1.97-1.405 0-2.093-1.278-2.093-2.336 0-1.486 1.018-2.117 1.445-2.34a.82.82 0 01-.203-.245c-.489.347-.933.652-1.868 1.182-.041.652-.107 1.363-.269 1.85-.37 1.137-1.084 1.89-2.019 1.89-.794 0-1.155-.668-1.155-1.279 0-.447.264-1.016.731-1.445.553-.495 1.16-.812 1.971-1.236l.167-.087c.02-.121.04-.244.06-.386-.224.203-.549.284-.814.284-.427 0-.773-.366-.854-.753-.57-.04-.997-.448-1.018-1.099 0-.468.184-.875.488-.875.123 0 .164.101.164.183 0 .029-.013.081-.03.149-.03.121-.072.291-.072.461 0 .265.121.61.448.61 0-1.056.772-2.42 1.688-2.42.61 0 .617.448.617.65 0 .957-.882 2.016-1.655 2.28.02.082.102.307.346.307.306 0 .672-.286.856-.51.081-.428.386-1.04.792-1.04.165 0 .245.123.245.266 0 .305-.335.702-.578.967-.06.297-.08.527-.08.617.712-.428 1.106-.669 1.636-1.055-.042-.142-.042-.306-.042-.468 0-.956.63-2.014 1.465-2.014.469 0 .713.325.713.691 0 .692-.59 1.302-1.425 1.934.061.162.16.302.301.374 0 0 .273-.097.543-.086.243.009.579.096.596.322.035.496-1.05.32-1.13.307h-.004c-.448.121-1.267.63-1.267 1.933 0 .875.489 1.787 1.344 1.787.65 0 1.23-.622 1.25-1.375 0-.488-.229-.961-.717-.961-.244 0-.49.175-.508.435-.014.221.089.339.182.445.075.085.143.163.143.28 0 .182-.142.264-.286.264-.406 0-.711-.407-.711-.915zm4.617.605c.023.007.035-.001.037-.008.004-.007.338-.906.327-2.095-.022-2.32-1.18-4.721-3.725-5.495-.528-.163-.977-.264-1.484-.264-.702 0-1.001.238-1.244.43-.165.131-.305.241-.527.241a.488.488 0 01-.51-.487c0-.47.55-.836 1.426-.834a4.59 4.59 0 011.55.253l.017.006c.006.001.018 0 .027-.02.006-.017 0-.031-.006-.036-.037-.03-.988-.355-2.076-.346-2.34.017-4.721 1.2-5.495 3.724-.162.528-.265.976-.265 1.485 0 .702.237 1.008.43 1.256.131.17.242.313.242.536a.481.481 0 01-.488.488c-.468 0-.834-.529-.834-1.425a5.4 5.4 0 01.239-1.552l.004-.014a.029.029 0 00-.021-.026c-.018-.006-.032 0-.037.006A6.8 6.8 0 005.447 12c-.001 2.36 1.2 4.74 3.725 5.514.528.163.976.265 1.485.265.701 0 1-.245 1.243-.443.166-.136.305-.25.528-.25.284 0 .509.225.509.51 0 .447-.53.814-1.425.814a5.12 5.12 0 01-1.565-.243c-.009-.005-.025.006-.03.02-.008.018 0 .035.01.04.228.103.995.325 2.074.325 2.339 0 4.74-1.18 5.494-3.724.162-.509.263-.977.263-1.465 0-.716-.238-1.02-.431-1.264-.13-.166-.24-.305-.24-.527 0-.306.204-.51.49-.51.467 0 .83.55.832 1.447.003.754-.2 1.422-.237 1.546l-.006.02c0 .012.004.02.022.026z" fill="#fff"/></svg>