<?xml version="1.0" standalone="no"?>
<!DOCTYPE svg PUBLIC "-//W3C//DTD SVG 20010904//EN"
 "http://www.w3.org/TR/2001/REC-SVG-20010904/DTD/svg10.dtd">
<svg version="1.0" xmlns="http://www.w3.org/2000/svg"
 width="131.000000pt" height="121.000000pt" viewBox="0 0 131.000000 121.000000"
 preserveAspectRatio="xMidYMid meet">
<metadata>
Created by potrace 1.10, written by Peter Selinger 2001-2011
</metadata>
<g transform="translate(0.000000,121.000000) scale(0.100000,-0.100000)"
fill="#ff0000" stroke="none">
<path d="M475 914 c-148 -32 -289 -124 -335 -218 -27 -56 -27 -136 0 -192 42
-85 158 -168 296 -211 47 -14 91 -18 224 -18 153 1 171 3 245 28 190 66 311
202 289 325 -22 119 -140 224 -314 277 -79 24 -313 30 -405 9z m367 -37 c145
-72 213 -208 177 -353 -11 -43 -12 -44 -53 -45 l-41 -2 37 -6 38 -6 -40 -50
c-23 -30 -63 -63 -97 -82 -64 -36 -66 -45 -3 -13 51 26 104 73 130 116 21 33
24 34 81 34 32 0 59 -4 59 -9 0 -11 -70 -69 -120 -98 -48 -29 -154 -64 -215
-71 -62 -7 -213 -7 -280 1 -151 17 -319 118 -366 220 -64 143 33 286 248 364
73 26 102 30 58 6 -52 -28 -102 -72 -132 -116 l-28 -42 -60 3 c-48 2 -56 0
-41 -9 10 -6 36 -9 58 -6 39 5 40 5 32 -21 -11 -35 -11 -149 0 -184 8 -27 8
-27 -51 -31 l-58 -3 62 -2 c58 -2 62 -4 83 -36 11 -19 36 -48 56 -65 36 -32
113 -75 120 -68 2 2 -14 12 -36 22 -39 18 -140 114 -140 134 0 5 12 12 28 14
21 3 20 4 -6 3 -31 -2 -33 1 -47 48 -8 27 -15 53 -15 58 0 4 23 8 50 8 30 0
50 4 50 11 0 7 -18 10 -50 7 -56 -3 -56 -3 -35 70 15 50 16 51 41 40 18 -9 27
-9 36 0 9 9 4 12 -20 12 -18 0 -32 5 -32 10 0 17 91 110 125 127 77 40 129 52
227 49 89 -2 103 -5 170 -39z m149 -31 c157 -80 225 -211 170 -331 l-18 -40
-62 3 c-53 3 -61 6 -56 20 4 10 9 34 12 55 l6 37 63 0 c36 0 64 4 64 10 0 6
-28 10 -64 10 l-63 0 -6 38 c-3 20 -8 44 -12 53 -5 14 1 16 43 11 31 -2 52 0
56 7 5 8 -11 11 -51 11 -58 0 -58 0 -93 48 -31 41 -62 66 -146 119 -33 21 100
-23 157 -51z"/>
<path d="M553 884 c-20 -18 -22 -22 -7 -15 21 10 52 41 41 41 -3 0 -19 -12
-34 -26z"/>
<path d="M720 907 c0 -2 15 -14 33 -27 l32 -23 -24 26 c-21 23 -41 35 -41 24z"/>
<path d="M410 830 c-17 -17 -19 -37 -19 -230 0 -196 2 -213 20 -231 18 -18 35
-19 242 -19 185 0 226 3 245 16 22 15 22 19 22 234 0 215 0 219 -22 235 -19
13 -59 15 -246 15 -205 -1 -225 -3 -242 -20z m105 -50 c10 0 28 9 40 20 23 22
55 18 55 -6 0 -20 69 -19 76 1 7 18 30 20 41 2 5 -8 31 -13 77 -12 48 0 70 -4
74 -13 3 -10 -12 -13 -67 -11 -40 1 -76 -2 -81 -7 -5 -5 -10 -80 -12 -167 l-3
-157 45 0 c25 0 55 -3 67 -6 18 -5 25 -1 34 22 l12 29 7 -30 c3 -16 3 -34 -1
-39 -10 -12 -188 -16 -195 -4 -3 5 0 15 6 23 6 8 8 19 4 26 -4 6 -9 41 -11 78
-5 74 -4 71 -29 75 -13 2 -21 16 -27 45 -5 26 -13 41 -20 38 -13 -4 -13 -17
-2 -59 5 -21 2 -29 -15 -38 -30 -16 -34 -8 -31 53 2 38 -1 49 -9 41 -6 -6 -10
-33 -8 -60 l3 -49 45 -3 c24 -2 50 -8 56 -13 12 -9 11 -145 0 -157 -11 -10
-120 -10 -133 1 -18 13 -16 82 2 97 11 9 22 9 50 0 42 -14 45 -27 8 -32 -41
-4 -44 -38 -5 -38 49 0 62 9 62 44 0 44 -16 56 -72 56 -57 0 -61 8 -56 115 3
62 6 71 26 80 34 15 27 35 -13 35 -46 0 -50 -17 -41 -184 4 -85 3 -142 -4
-160 -21 -57 -30 -13 -30 155 0 103 -4 178 -11 190 -8 16 -7 25 7 40 17 19 18
19 39 -1 12 -11 30 -20 40 -20z m152 34 c-3 -3 -12 -4 -19 -1 -8 3 -5 6 6 6
11 1 17 -2 13 -5z m163 -84 l55 -5 0 -60 0 -60 -53 -3 c-51 -3 -53 -4 -50 -30
3 -25 6 -27 50 -27 55 0 61 -4 52 -39 -7 -28 -24 -36 -24 -10 0 12 -9 14 -37
12 -35 -3 -38 -6 -41 -35 -4 -39 -32 -46 -32 -9 0 14 -4 36 -10 50 -6 16 -6
27 0 31 14 9 12 41 -2 66 -10 17 -10 23 0 26 14 5 17 63 2 63 -5 0 -10 6 -10
13 0 19 21 37 34 29 6 -4 36 -9 66 -12z m8 -258 c2 -7 -3 -12 -12 -12 -9 0
-16 7 -16 16 0 17 22 14 28 -4z"/>
<path d="M631 751 c-11 -7 -10 -11 7 -20 14 -8 22 -23 24 -49 5 -56 23 -40 23
21 0 44 -3 52 -20 55 -11 1 -26 -2 -34 -7z"/>
<path d="M787 694 c-4 -4 -7 -18 -7 -30 0 -26 26 -38 65 -28 21 5 26 11 23 33
-3 22 -9 26 -38 29 -20 2 -39 0 -43 -4z"/>
<path d="M943 719 c11 -7 23 -7 35 0 14 9 11 10 -18 10 -29 0 -32 -1 -17 -10z"/>
<path d="M140 600 c0 -6 27 -10 60 -10 33 0 60 4 60 10 0 6 -27 10 -60 10 -33
0 -60 -4 -60 -10z"/>
<path d="M930 600 c0 -5 20 -10 45 -10 25 0 45 5 45 10 0 6 -20 10 -45 10 -25
0 -45 -4 -45 -10z"/>
<path d="M539 327 c14 -18 51 -42 51 -33 0 3 -15 15 -32 27 -24 17 -29 18 -19
6z"/>
<path d="M745 315 c-16 -14 -25 -25 -19 -25 6 0 21 11 34 25 30 32 24 31 -15
0z"/>
<path d="M1301 774 c0 -11 3 -14 6 -6 3 7 2 16 -1 19 -3 4 -6 -2 -5 -13z"/>
<path d="M1302 730 c0 -14 2 -19 5 -12 2 6 2 18 0 25 -3 6 -5 1 -5 -13z"/>
<path d="M1301 674 c0 -11 3 -14 6 -6 3 7 2 16 -1 19 -3 4 -6 -2 -5 -13z"/>
<path d="M1301 614 c0 -11 3 -14 6 -6 3 7 2 16 -1 19 -3 4 -6 -2 -5 -13z"/>
<path d="M1301 564 c0 -11 3 -14 6 -6 3 7 2 16 -1 19 -3 4 -6 -2 -5 -13z"/>
<path d="M1301 434 c0 -11 3 -14 6 -6 3 7 2 16 -1 19 -3 4 -6 -2 -5 -13z"/>
</g>
</svg>
