<?xml version="1.0" standalone="no"?>
<!DOCTYPE svg PUBLIC "-//W3C//DTD SVG 20010904//EN"
 "http://www.w3.org/TR/2001/REC-SVG-20010904/DTD/svg10.dtd">
<svg version="1.0" xmlns="http://www.w3.org/2000/svg"
 width="263.000000pt" height="175.000000pt" viewBox="0 0 263.000000 175.000000"
 preserveAspectRatio="xMidYMid meet">
<metadata>
Created by potrace 1.10, written by Peter Selinger 2001-2011
</metadata>
<g transform="translate(0.000000,175.000000) scale(0.050000,-0.050000)"
fill="#0b5394" stroke="none">
<path d="M4040 2569 c-230 -64 -434 -238 -544 -464 -71 -146 -98 -521 -44
-612 23 -40 10 -62 284 447 117 216 124 220 402 212 305 -8 225 71 582 -577
235 -428 221 -421 338 -175 307 650 -316 1366 -1018 1169z"/>
<path d="M1400 1740 c0 -307 2 -320 40 -320 36 0 40 13 40 127 0 159 28 241
92 270 147 67 208 1 208 -227 0 -157 3 -170 40 -170 37 0 40 13 40 200 0 173
-5 205 -40 240 -49 49 -212 55 -271 11 -61 -47 -69 -38 -69 79 0 97 -5 110
-40 110 -38 0 -40 -13 -40 -320z"/>
<path d="M1995 2045 c-37 -71 -2 -615 40 -621 l45 -7 0 322 c0 304 -2 321 -39
321 -21 0 -42 -7 -46 -15z"/>
<path d="M4262 1882 c-54 -96 -113 -206 -129 -244 -17 -37 -77 -149 -133 -248
-226 -401 -228 -376 29 -453 290 -87 573 -23 837 190 37 29 -415 897 -480 922
-15 5 -65 -63 -124 -167z"/>
<path d="M1145 1987 c-14 -6 -25 -28 -25 -49 0 -21 -13 -38 -30 -38 -16 0 -30
-13 -30 -30 0 -16 13 -30 29 -30 24 0 31 -40 35 -195 7 -216 35 -256 161 -231
76 15 70 62 -10 70 l-65 6 -6 175 -6 175 73 0 c91 0 85 47 -8 56 -52 5 -63 15
-63 55 0 49 -8 55 -55 36z"/>
<path d="M189 1872 c-57 -42 -24 -58 68 -33 94 25 175 11 192 -33 18 -47 -20
-79 -123 -105 -198 -50 -271 -153 -175 -250 40 -39 249 -44 249 -6 0 16 -30
25 -83 25 -149 0 -160 111 -16 161 174 59 159 67 159 -80 0 -118 4 -131 40
-131 65 0 61 403 -4 449 -57 40 -254 41 -307 3z"/>
<path d="M728 1881 c-292 -125 -57 -563 240 -449 66 25 28 42 -87 40 -137 -2
-194 36 -205 138 l-6 60 175 6 175 6 -1 54 c-1 119 -163 200 -291 145z m178
-46 c18 -14 36 -47 39 -75 6 -64 -249 -80 -261 -17 -16 83 145 149 222 92z"/>
<path d="M2275 1861 c-155 -123 -108 -388 78 -439 256 -71 431 231 243 419
-75 75 -238 84 -321 20z m259 -64 c50 -48 64 -185 26 -256 -58 -109 -250 -76
-283 49 -52 191 124 332 257 207z"/>
<path d="M2769 1874 c-34 -89 2 -444 46 -450 43 -7 45 -1 45 156 0 201 50 273
175 253 96 -16 104 -34 105 -238 0 -175 0 -175 52 -175 l52 0 -7 202 c-6 183
-11 205 -54 240 -58 47 -215 51 -277 8 -37 -26 -43 -26 -53 0 -14 37 -71 39
-84 4z"/>
<path d="M1403 1155 c2 -72 6 -85 11 -40 11 81 39 84 56 5 18 -82 63 -76 79
11 8 41 22 65 34 57 11 -7 16 -29 11 -48 -5 -20 -1 -48 8 -63 11 -17 17 11 18
78 0 132 -42 142 -80 20 l-26 -85 -26 60 c-14 33 -27 71 -27 85 -1 14 -14 25
-31 25 -23 0 -29 -24 -27 -105z"/>
<path d="M1680 1160 l0 -100 75 3 c60 2 64 5 20 11 -66 10 -73 60 -10 72 l45
9 -46 2 c-33 2 -45 13 -40 38 5 23 22 33 51 29 25 -4 45 3 45 15 0 11 -31 21
-70 21 l-70 0 0 -100z"/>
<path d="M1884 1160 l-4 -100 79 0 c122 0 168 157 54 188 -108 29 -124 18
-129 -88z m125 53 c55 -40 27 -133 -39 -133 -43 0 -50 9 -50 67 0 96 24 114
89 66z"/>
<path d="M2120 1160 c0 -55 9 -100 20 -100 11 0 20 45 20 100 0 55 -9 100 -20
100 -11 0 -20 -45 -20 -100z"/>
<path d="M2255 1238 c-84 -49 -29 -180 74 -176 l61 3 -60 12 c-48 11 -61 25
-67 71 -7 64 27 97 82 80 19 -6 35 -1 35 11 0 27 -79 26 -125 -1z"/>
<path d="M2462 1170 c-48 -102 -50 -110 -22 -110 11 0 20 14 20 30 0 17 9 30
20 30 11 0 20 17 20 39 0 21 10 45 23 53 16 10 19 -2 9 -41 -9 -37 -7 -50 9
-41 12 8 26 -4 33 -28 6 -23 19 -42 30 -42 21 0 5 62 -37 145 -38 75 -56 70
-105 -35z"/>
<path d="M2660 1160 l0 -100 75 3 c60 2 64 5 20 11 -50 8 -55 16 -55 97 0 49
-9 89 -20 89 -11 0 -20 -45 -20 -100z"/>
<path d="M3040 1160 c0 -55 9 -100 20 -100 11 0 20 45 20 100 0 55 -9 100 -20
100 -11 0 -20 -45 -20 -100z"/>
<path d="M3140 1160 c0 -116 35 -136 44 -25 l6 75 47 -75 c64 -104 103 -99
103 14 0 110 -35 139 -44 36 l-6 -75 -50 75 c-70 104 -100 97 -100 -25z"/>
<path d="M3420 1220 c-65 -65 -19 -162 76 -158 42 2 45 5 14 12 -53 14 -90 45
-90 77 0 39 61 93 93 81 15 -6 27 -2 27 9 0 34 -79 20 -120 -21z"/>
</g>
</svg>
