<svg viewBox="0 0 24 24" fill="none" xmlns="http://www.w3.org/2000/svg"><g clip-path="url(#clip0)"><path d="M11.719 2H3.28A3.281 3.281 0 000 5.281v8.438A3.281 3.281 0 003.281 17h8.438A3.281 3.281 0 0015 13.719V5.28A3.281 3.281 0 0011.719 2z" fill="#2841C1"/><path fill-rule="evenodd" clip-rule="evenodd" d="M11.413 4.946l-.122-.4a.036.036 0 00-.069 0l-.121.4-.39-.155c-.032-.013-.063.025-.042.054l.237.345-.363.207a.036.036 0 00.015.068l.418.029-.065.413a.036.036 0 00.063.03l.283-.308.283.308c.024.027.068.006.062-.03l-.064-.413.417-.03a.036.036 0 00.016-.067l-.364-.207.238-.345c.02-.03-.01-.067-.043-.054l-.39.155zm-7.344 7.76l-.248-.82a.074.074 0 00-.142 0l-.248.82-.796-.317a.074.074 0 00-.089.11l.487.707-.745.425a.074.074 0 00.032.137l.855.06-.132.847a.074.074 0 00.127.061l.58-.63.58.63c.05.054.139.011.127-.061l-.132-.847.855-.06c.073-.005.095-.101.032-.138l-.745-.424.487-.706a.074.074 0 00-.088-.11l-.797.316zm4.517-4.488l.122.4.388-.154a.036.036 0 01.044.054l-.238.345.364.207a.036.036 0 01-.016.067l-.417.03.064.413a.036.036 0 01-.062.03l-.283-.308-.284.308a.036.036 0 01-.062-.03l.065-.413-.418-.03a.036.036 0 01-.015-.067l.363-.207-.237-.345a.036.036 0 01.043-.054l.389.155.121-.401c.01-.034.059-.034.07 0zm5.39-1.513l-.122-.401c-.01-.034-.06-.034-.07 0l-.12.4-.39-.154c-.033-.014-.063.024-.043.054l.238.344-.364.208a.036.036 0 00.015.067l.418.03-.064.413c-.006.036.038.057.062.03l.283-.308.283.308c.024.027.068.006.063-.03l-.065-.413.418-.03a.036.036 0 00.015-.067l-.364-.208.238-.344c.02-.03-.01-.068-.043-.054l-.389.155zm-2.685 6.078l.122.401.389-.155a.036.036 0 01.043.054l-.238.345.364.207a.036.036 0 01-.016.068l-.417.029.064.414c.006.035-.038.056-.062.03l-.283-.309-.284.309a.036.036 0 01-.062-.03l.065-.414-.418-.03a.036.036 0 01-.015-.066l.363-.208-.237-.345a.036.036 0 01.043-.054l.389.155.121-.4a.036.036 0 01.07 0zm.842-3.255l.098-.293a.041.041 0 01.079 0l.097.293.308.002c.04 0 .056.051.024.075l-.247.183.092.293a.041.041 0 01-.063.047l-.25-.18-.251.18a.042.042 0 01-.064-.046l.093-.294-.248-.183a.042.042 0 01.024-.075l.308-.002z" fill="#F5F5F5"/><path fill-rule="evenodd" clip-rule="evenodd" d="M7.5 2v.585l-2.764 1.81V2H7.5zM.813 3.118a3.276 3.276 0 011.95-1.077v2.355L.814 3.118zM.041 4.763c.034-.217.09-.427.165-.627l.958.627H.04zM0 6.737v.762l1.163-.762H0zm7.501.762v-.762H6.338l1.163.762zM7.5 9.5H4.736V7.104L7.5 8.914V9.5zm.002-4.737v-.762l-1.163.762H7.5zM0 8.915l2.763-1.81V9.5H0v-.585z" fill="#2841C1"/><path fill-rule="evenodd" clip-rule="evenodd" d="M7.5 4.763v.395H4.342V2h.395v2.396L7.5 2.586v.383L4.737 4.763h.725L7.5 3.44V4l-1.164.763H7.5zm-4.343-2.76a3.295 3.295 0 00-.394.038v2.355L.813 3.119a3.294 3.294 0 00-.318.428l1.873 1.216h-.725L.306 3.895a3.26 3.26 0 00-.1.24l.957.628H.04c-.02.13-.033.261-.038.395h3.155V2.003zm0 7.497h-.394V7.104L0 8.914v-.39l2.752-1.787h-.725L0 8.053v-.554l1.163-.762H0v-.395h3.158V9.5zm1.58 0h-.395V6.342H7.5v.395H6.336l1.164.762v.36L5.77 6.737h-.724L7.5 8.33v.585l-2.763-1.81V9.5z" fill="#F5F5F5"/><path fill-rule="evenodd" clip-rule="evenodd" d="M3.158 9.5h1.184V6.342H7.5V5.158H4.342V2h-1.06c-.042 0-.083.001-.124.003v3.155H.003A3.314 3.314 0 000 5.28v1.061h3.158V9.5zm-1.13-2.763L0 8.053v.47l2.752-1.786h-.725zM7.498 8.33L5.045 6.737h.725L7.5 7.859v.47zM2.367 4.763L.494 3.547c-.07.112-.133.228-.19.348l1.338.868h.725zM7.499 3.44L5.461 4.763h-.725L7.5 2.97v.471z" fill="#FF4B55"/><path fill-rule="evenodd" clip-rule="evenodd" d="M9.784 8.154h13.433c.285.334.504.725.637 1.154H9.147c.134-.429.352-.82.637-1.154zM9 10.462h15v1.154H9v-1.154zm15 2.308H9v1.153h15V12.77zM9 15.077h15v1.154H9v-1.154zm15 2.308H9v1.154h15v-1.154zM9.147 19.693h14.707c-.133.429-.352.82-.637 1.154H9.784a3.274 3.274 0 01-.637-1.154z" fill="#F5F5F5"/><path fill-rule="evenodd" clip-rule="evenodd" d="M20.719 7H12.28c-1 0-1.896.448-2.498 1.154h13.434A3.274 3.274 0 0020.719 7zM24 11.615H9v1.154h15v-1.154zm-.147-2.307c.096.308.147.635.147.974v.18H9v-.18c0-.34.051-.666.147-.974h14.706zM24 13.923H9v1.154h15v-1.154zm0 4.616v.18c0 .34-.051.666-.147.974H9.147A3.28 3.28 0 019 18.719v-.18h15zm-.783 2.307H9.783A3.274 3.274 0 0012.281 22h8.438c1 0 1.896-.448 2.498-1.154zM9 16.231h15v1.154H9V16.23z" fill="#FA4051"/><path d="M17 7h-4.75C10.455 7 9 8.47 9 10.281v4.796h8V7z" fill="#1939C9"/><path fill-rule="evenodd" clip-rule="evenodd" d="M11.613 7.721l.062.187.197.002c.025 0 .036.032.015.047l-.158.117.06.188a.027.027 0 01-.041.03l-.16-.115-.16.114a.027.027 0 01-.04-.03l.058-.187-.158-.117a.026.026 0 01.016-.047l.196-.002.063-.187a.027.027 0 01.05 0zm-1.743.541a.027.027 0 00.041.03l.16-.115.16.115a.027.027 0 00.04-.03l-.058-.187.158-.117a.027.027 0 00-.016-.048l-.196-.002-.034-.1a3.299 3.299 0 00-.241.233l.046.034-.06.187zm.226 1.016l.063.187.196.001c.026 0 .036.033.016.048l-.158.117.059.187a.027.027 0 01-.04.03l-.16-.115-.16.115a.027.027 0 01-.042-.03l.06-.187-.158-.117a.027.027 0 01.015-.048l.197-.001.062-.187c.008-.024.042-.024.05 0zm.063 1.913l-.063-.186c-.008-.025-.042-.025-.05 0l-.062.186-.197.002a.027.027 0 00-.015.048l.158.117-.06.187a.027.027 0 00.041.03l.16-.115.16.115c.021.014.049-.006.041-.03l-.06-.188.159-.116a.027.027 0 00-.016-.048l-.196-.002zm-.063 1.4l.063.187.196.002c.026 0 .036.032.016.047l-.158.117.059.188a.026.026 0 01-.04.03l-.16-.115-.16.114a.026.026 0 01-.042-.03l.06-.187-.158-.117a.027.027 0 01.015-.047l.197-.002.062-.187c.008-.024.042-.024.05 0zm.063 1.63l-.063-.187c-.008-.024-.042-.024-.05 0l-.062.187-.197.002a.027.027 0 00-.015.047l.158.117-.06.188a.027.027 0 00.041.03l.16-.115.16.114a.027.027 0 00.041-.03l-.06-.187.159-.117a.027.027 0 00-.016-.047l-.196-.002zm.694-5.762l.062.186.197.002c.026 0 .036.032.016.048l-.159.116.06.188a.027.027 0 01-.041.03l-.16-.115-.16.114a.027.027 0 01-.04-.03l.059-.187-.159-.116a.027.027 0 01.016-.048l.197-.002.062-.186a.027.027 0 01.05 0zm.063 1.912l-.063-.186c-.008-.024-.042-.024-.05 0l-.062.186-.197.002a.027.027 0 00-.016.048l.159.117-.06.187a.026.026 0 00.041.03l.16-.115.16.115a.026.026 0 00.04-.03l-.059-.187.159-.117a.027.027 0 00-.016-.048l-.197-.002zm-.063 1.454l.063.187.196.001c.026 0 .036.033.016.048l-.159.117.06.188a.027.027 0 01-.04.03l-.161-.115-.16.114a.027.027 0 01-.04-.03l.059-.187-.159-.117a.026.026 0 01.016-.048l.197-.001.062-.187c.008-.024.042-.024.05 0zm.063 1.66l-.063-.186c-.008-.024-.042-.024-.05 0l-.062.186-.197.002a.026.026 0 00-.016.048l.159.117-.06.187c-.007.024.02.044.041.03l.16-.115.16.115c.02.014.049-.006.04-.03l-.059-.188.159-.116a.026.026 0 00-.016-.048l-.197-.002zm.76-4.02l-.063-.187a.027.027 0 00-.05 0l-.063.187-.196.001a.026.026 0 00-.016.048l.158.117-.059.187a.027.027 0 00.04.03l.16-.115.16.115a.027.027 0 00.042-.03l-.06-.187.159-.117a.027.027 0 00-.016-.048l-.197-.001zm-.063 1.54l.062.186.197.002c.025 0 .036.033.015.048l-.158.117.06.187a.027.027 0 01-.041.03l-.16-.115-.16.115a.027.027 0 01-.04-.03l.058-.188-.158-.116a.027.027 0 01.016-.048l.196-.002.063-.186a.027.027 0 01.05 0zm.062 1.773l-.062-.187a.027.027 0 00-.05 0l-.063.187-.196.002a.027.027 0 00-.016.047l.158.117-.059.188a.026.026 0 00.04.03l.16-.115.16.114a.026.026 0 00.042-.03l-.06-.187.159-.117a.027.027 0 00-.016-.047l-.197-.002zm-.062 1.256l.062.187.197.002c.025 0 .036.032.015.047l-.158.117.06.188a.027.027 0 01-.041.03l-.16-.115-.16.114a.027.027 0 01-.04-.03l.058-.187-.158-.117a.027.027 0 01.016-.047l.196-.002.063-.187a.027.027 0 01.05 0zm.818-5.389l-.062-.186a.027.027 0 00-.05 0l-.063.186-.196.002a.027.027 0 00-.016.048l.158.116-.06.188a.027.027 0 00.042.03l.16-.115.16.114a.027.027 0 00.04-.03l-.059-.187.158-.116a.026.026 0 00-.015-.048l-.197-.002zm-.062 1.54l.062.186.197.002c.025 0 .036.033.015.048l-.158.117.06.187a.026.026 0 01-.041.03l-.16-.115-.16.115c-.021.015-.049-.005-.041-.03l.06-.187-.159-.117a.027.027 0 01.016-.048l.196-.002.063-.186a.027.027 0 01.05 0zm.062 1.827l-.062-.187a.027.027 0 00-.05 0l-.063.187-.196.001a.026.026 0 00-.016.048l.158.117-.06.188c-.007.024.02.044.042.03l.16-.115.16.114a.027.027 0 00.04-.03l-.059-.187.158-.117a.026.026 0 00-.015-.048l-.197-.001zm-.062 1.287l.062.186.197.002c.025 0 .036.033.015.048l-.158.117.06.187a.026.026 0 01-.041.03l-.16-.115-.16.115a.027.027 0 01-.041-.03l.06-.188-.159-.116a.026.026 0 01.016-.048l.196-.002.063-.186a.027.027 0 01.05 0zm.822-5.39l-.062-.188c-.008-.024-.043-.024-.05 0l-.063.187-.197.002a.026.026 0 00-.015.047l.158.117-.06.188a.027.027 0 00.041.03l.16-.115.16.114a.027.027 0 00.041-.03l-.06-.187.16-.117a.027.027 0 00-.017-.047l-.196-.002zm-.062 1.369l.062.187.196.001c.026 0 .037.033.016.048l-.158.117.06.187a.027.027 0 01-.041.03l-.16-.115-.16.115a.027.027 0 01-.041-.03l.059-.187-.158-.117a.027.027 0 01.015-.048l.197-.002.062-.186a.027.027 0 01.05 0zm.062 1.913l-.062-.186a.026.026 0 00-.05 0l-.063.186-.197.002a.027.027 0 00-.015.048l.158.117-.06.187a.027.027 0 00.041.03l.16-.115.16.115c.021.014.049-.006.041-.03l-.06-.188.16-.116a.027.027 0 00-.017-.048l-.196-.002zm-.062 1.4l.062.187.196.002c.026 0 .037.032.016.047l-.158.117.06.188a.026.026 0 01-.041.03l-.16-.115-.16.114a.026.026 0 01-.041-.03l.059-.187-.158-.117a.027.027 0 01.015-.047l.197-.002.062-.187a.026.026 0 01.05 0zm.062 1.63l-.062-.187a.026.026 0 00-.05 0l-.063.187-.197.002a.027.027 0 00-.015.047l.158.117-.06.188c-.007.024.02.044.041.03l.16-.115.16.114a.027.027 0 00.041-.03l-.06-.187.16-.117a.027.027 0 00-.017-.047l-.196-.002zm.694-5.762l.063.186.196.002c.026 0 .036.032.016.048l-.158.116.059.188a.027.027 0 01-.04.03l-.16-.115-.16.114a.027.027 0 01-.042-.03l.06-.187-.158-.116a.027.027 0 01.015-.048l.197-.002.062-.186a.027.027 0 01.05 0zm.063 1.912l-.063-.186a.027.027 0 00-.05 0l-.062.186-.197.002a.027.027 0 00-.015.048l.158.117-.06.187a.026.026 0 00.041.03l.16-.115.16.115a.026.026 0 00.041-.03l-.06-.187.159-.117a.027.027 0 00-.016-.048l-.196-.002zm-.063 1.454l.063.187.196.001c.026 0 .036.033.016.048l-.158.117.059.188a.027.027 0 01-.04.03l-.16-.115-.16.114a.027.027 0 01-.042-.03l.06-.187-.158-.117a.026.026 0 01.015-.048l.197-.001.062-.187a.027.027 0 01.05 0zm.063 1.66l-.063-.186a.027.027 0 00-.05 0l-.062.186-.197.002a.026.026 0 00-.015.048l.158.117-.06.187c-.007.024.02.044.041.03l.16-.115.16.115c.021.014.049-.006.041-.03l-.06-.188.159-.116a.026.026 0 00-.016-.048l-.196-.002zm.695-5.764l.063.187.196.002c.026 0 .036.032.016.047l-.159.117.06.188a.026.026 0 01-.04.03l-.16-.115-.16.114a.027.027 0 01-.042-.03l.06-.187-.159-.117a.026.026 0 01.016-.047l.197-.002.062-.187c.008-.024.042-.024.05 0zm.063 1.744l-.063-.187c-.008-.024-.042-.024-.05 0l-.062.187-.197.001a.027.027 0 00-.016.048l.159.117-.06.187a.027.027 0 00.041.03l.16-.115.16.115a.026.026 0 00.04-.03l-.059-.187.159-.117a.027.027 0 00-.016-.048l-.196-.001zm-.063 1.54l.063.186.196.002c.026 0 .036.033.016.048l-.159.117.06.187a.026.026 0 01-.04.03l-.16-.115-.16.115a.027.027 0 01-.042-.03l.06-.188-.159-.116a.027.027 0 01.016-.048l.197-.002.062-.186c.008-.025.042-.025.05 0zm.063 1.773l-.063-.187c-.008-.024-.042-.024-.05 0l-.062.187-.197.002a.027.027 0 00-.016.047l.159.117-.06.188a.026.026 0 00.041.03l.16-.115.16.114a.026.026 0 00.04-.03l-.059-.187.159-.117a.027.027 0 00-.016-.047l-.196-.002zm-.063 1.256l.063.187.196.002c.026 0 .036.032.016.047l-.159.117.06.188a.026.026 0 01-.04.03l-.16-.115-.16.114a.027.027 0 01-.042-.03l.06-.187-.159-.117a.027.027 0 01.016-.047l.197-.002.062-.187c.008-.024.042-.024.05 0zm.818-5.389L15.4 8.46a.027.027 0 00-.05 0l-.063.186-.196.002a.027.027 0 00-.016.048l.159.116-.06.188a.027.027 0 00.04.03l.161-.115.16.114a.027.027 0 00.04-.03l-.059-.187.159-.116a.026.026 0 00-.016-.048l-.197-.002zm-.062 1.54l.062.186.197.002c.026 0 .036.033.016.048l-.159.117.06.187a.026.026 0 01-.041.03l-.16-.115-.16.115a.026.026 0 01-.04-.03l.059-.187-.159-.117a.027.027 0 01.016-.048l.197-.002.062-.186a.027.027 0 01.05 0zm.062 1.827l-.062-.187a.027.027 0 00-.05 0l-.063.187-.196.001a.026.026 0 00-.016.048l.159.117-.06.188a.027.027 0 00.04.03l.161-.115.16.114a.027.027 0 00.04-.03l-.059-.187.159-.117a.026.026 0 00-.016-.048l-.197-.001zm-.062 1.287l.062.186.197.002c.026 0 .036.033.016.048l-.159.117.06.187c.007.024-.02.044-.041.03l-.16-.115-.16.115c-.02.014-.049-.006-.04-.03l.059-.188-.159-.116a.026.026 0 01.016-.048l.197-.002.062-.186a.027.027 0 01.05 0zm.821-5.39l-.062-.188c-.008-.024-.042-.024-.05 0l-.063.187-.196.002a.026.026 0 00-.016.047l.158.117-.059.188a.027.027 0 00.04.03l.16-.115.16.114a.027.027 0 00.041-.03l-.059-.187.158-.117a.026.026 0 00-.015-.047l-.197-.002zm-.062 1.369l.062.187.197.001c.025 0 .036.033.015.048l-.158.117.06.187a.027.027 0 01-.041.03l-.16-.115-.16.115a.027.027 0 01-.041-.03l.06-.187-.159-.117a.026.026 0 01.016-.048l.196-.001.063-.187c.008-.024.042-.024.05 0zm.062 1.913l-.062-.186c-.008-.025-.042-.025-.05 0l-.063.186-.196.002a.027.027 0 00-.016.048l.158.117-.059.187a.027.027 0 00.04.03l.16-.115.16.115a.027.027 0 00.041-.03l-.059-.188.158-.116a.027.027 0 00-.015-.048l-.197-.002zm-.062 1.4l.062.187.197.002c.025 0 .036.032.015.047l-.158.117.06.188a.026.026 0 01-.041.03l-.16-.115-.16.114a.026.026 0 01-.041-.03l.06-.187-.159-.117a.027.027 0 01.016-.047l.196-.002.063-.187c.008-.024.042-.024.05 0zm.062 1.63l-.062-.187c-.008-.024-.042-.024-.05 0l-.063.187-.196.002a.027.027 0 00-.016.047l.158.117-.059.188c-.008.024.02.044.04.03l.16-.115.16.114c.021.015.05-.005.041-.03l-.059-.187.158-.117a.027.027 0 00-.015-.047l-.197-.002z" fill="#F5F5F5"/></g><defs><clipPath id="clip0"><path d="M0 0h24v24H0V0z" fill="#fff"/></clipPath></defs></svg>
