<svg viewBox="0 0 25 24" fill="none" xmlns="http://www.w3.org/2000/svg"><g clip-path="url(#clip0)"><path d="M11.719 17H3.28A3.281 3.281 0 010 13.719V5.28A3.281 3.281 0 013.281 2h8.438A3.281 3.281 0 0115 5.281v8.438A3.281 3.281 0 0111.719 17z" fill="#2841C1"/><path fill-rule="evenodd" clip-rule="evenodd" d="M0 5.393v.609l2.327 1.524H0v.79h6.316V2h-.79v4.791L.52 3.511c-.195.302-.341.64-.428 1L0 5.393zM.519 15.49a3.273 3.273 0 01-.298-.586l-.2-.812A3.316 3.316 0 010 13.719v-.72l2.327-1.525H0v-.79h6.316V17h-.79V12.21L.52 15.489zm14.48-2.492v.72l-.115.867a3.266 3.266 0 01-.403.905l-5.008-3.281V17h-.79v-6.316H15v.79h-2.326l2.326 1.524zm-.518-9.488c.116.18.214.373.293.575l.203.81c.014.127.022.256.022.386v.72l-2.326 1.525h2.326v.79H8.684V2h.79v4.791l5.007-3.28z" fill="#F6F6F6"/><path fill-rule="evenodd" clip-rule="evenodd" d="M8.684 2H6.316v6.316H0v2.368h6.316V17h2.368v-6.316H15V8.316H8.684V2zm-4.63 9.474L.022 14.092c.033.283.1.555.2.812l5.284-3.43h-1.45zm10.83 3.11l-4.792-3.11h1.45L15 13.719c0 .3-.04.59-.116.866zM4.737 7.527L.09 4.511c-.06.247-.091.505-.091.77v.112l3.287 2.133h1.45zm10.241-2.63l-4.053 2.63h-1.45l5.301-3.44c.1.255.169.527.202.81z" fill="#FB4B4E"/><path d="M21 7h-9v15h9V7z" fill="#F6F6F6"/><path fill-rule="evenodd" clip-rule="evenodd" d="M12.137 7c-.046 0-.092.001-.137.003L12.137 7zM12 21.996c-1.669-.075-3-1.514-3-3.278v-8.437c0-1.764 1.331-3.203 3-3.278v14.993zm.137.003L12 21.996c.045.002.091.003.137.003zM20.864 7l.136.003A3.054 3.054 0 0020.864 7zm.136.003c1.67.074 3.001 1.513 3.001 3.278v8.437c0 1.812-1.404 3.281-3.137 3.281l.135-.003L21 7.003zm-1.396 7.755l-1.535.877a.374.374 0 00-.165.455l.132.35-1.316-.112a.122.122 0 00-.132.126l.041 1.407h-.259l.042-1.407a.122.122 0 00-.133-.126l-1.315.113.131-.351a.373.373 0 00-.164-.455l-1.534-.877.352-.176a.259.259 0 00.14-.266l-.114-.859.65.19a.259.259 0 00.324-.193l.062-.281.61.714c.085.099.246.023.224-.105l-.26-1.515.398.109a.259.259 0 00.297-.128l.42-.787v-.001.001l.42.787c.057.107.18.16.297.128l.399-.11-.261 1.516c-.022.128.14.204.224.105l.61-.714.062.28a.259.259 0 00.325.193l.65-.189-.115.86a.259.259 0 00.14.265l.352.176z" fill="#FB4B4E"/></g><defs><clipPath id="clip0"><path d="M0 0h24.001v24H0V0z" fill="#fff"/></clipPath></defs></svg>
