<svg viewBox="0 0 24 24" fill="none" xmlns="http://www.w3.org/2000/svg"><path d="M11.719 2H3.28A3.281 3.281 0 000 5.281v8.438A3.281 3.281 0 003.281 17h8.438A3.281 3.281 0 0015 13.719V5.28A3.281 3.281 0 0011.719 2z" fill="#2841C1"/><path fill-rule="evenodd" clip-rule="evenodd" d="M11.413 4.946l-.122-.4a.036.036 0 00-.069 0l-.121.4-.39-.155c-.032-.013-.063.025-.042.054l.237.345-.363.207a.036.036 0 00.015.068l.418.029-.065.413a.036.036 0 00.063.03l.283-.308.283.308c.024.027.068.006.062-.03l-.064-.413.417-.03a.036.036 0 00.016-.067l-.364-.207.238-.345c.02-.03-.01-.067-.043-.054l-.39.155zm-7.344 7.76l-.248-.82a.074.074 0 00-.142 0l-.248.82-.796-.317a.074.074 0 00-.089.11l.487.707-.745.425a.074.074 0 00.032.137l.855.06-.132.847a.074.074 0 00.127.061l.58-.63.58.63c.05.054.139.011.127-.061l-.132-.847.855-.06c.073-.005.095-.101.032-.138l-.745-.424.487-.706a.074.074 0 00-.088-.11l-.797.316zm4.517-4.488l.122.4.388-.154a.036.036 0 01.044.054l-.238.345.364.207a.036.036 0 01-.016.067l-.417.03.064.413a.036.036 0 01-.062.03l-.283-.308-.284.308a.036.036 0 01-.062-.03l.065-.413-.418-.03a.036.036 0 01-.015-.067l.363-.207-.237-.345a.036.036 0 01.043-.054l.389.155.121-.401c.01-.034.059-.034.07 0zm5.39-1.513l-.122-.401c-.01-.034-.06-.034-.07 0l-.12.4-.39-.154c-.033-.014-.063.024-.043.054l.238.344-.364.208a.036.036 0 00.015.067l.418.03-.064.413c-.006.036.038.057.062.03l.283-.308.283.308c.024.027.068.006.063-.03l-.065-.413.418-.03a.036.036 0 00.015-.067l-.364-.208.238-.344c.02-.03-.01-.068-.043-.054l-.389.155zm-2.685 6.078l.122.401.389-.155a.036.036 0 01.043.054l-.238.345.364.207a.036.036 0 01-.016.068l-.417.029.064.414c.006.035-.038.056-.062.03l-.283-.309-.284.309a.036.036 0 01-.062-.03l.065-.414-.418-.03a.036.036 0 01-.015-.066l.363-.208-.237-.345a.036.036 0 01.043-.054l.389.155.121-.4a.036.036 0 01.07 0zm.842-3.255l.098-.293a.041.041 0 01.079 0l.097.293.308.002c.04 0 .056.051.024.075l-.247.183.092.293a.041.041 0 01-.063.047l-.25-.18-.251.18a.042.042 0 01-.064-.046l.093-.294-.248-.183a.042.042 0 01.024-.075l.308-.002z" fill="#F5F5F5"/><path fill-rule="evenodd" clip-rule="evenodd" d="M7.5 2v.585l-2.764 1.81V2H7.5zM.813 3.118a3.276 3.276 0 011.95-1.077v2.355L.814 3.118zM.041 4.763c.034-.217.09-.427.165-.627l.958.627H.04zM0 6.737v.762l1.163-.762H0zm7.501.762v-.762H6.338l1.163.762zM7.5 9.5H4.736V7.104L7.5 8.914V9.5zm.002-4.737v-.762l-1.163.762H7.5zM0 8.915l2.763-1.81V9.5H0v-.585z" fill="#2841C1"/><path fill-rule="evenodd" clip-rule="evenodd" d="M7.5 4.763v.395H4.342V2h.395v2.396L7.5 2.586v.383L4.737 4.763h.725L7.5 3.44V4l-1.164.763H7.5zm-4.343-2.76a3.295 3.295 0 00-.394.038v2.355L.813 3.119a3.294 3.294 0 00-.318.428l1.873 1.216h-.725L.306 3.895a3.26 3.26 0 00-.1.24l.957.628H.04c-.02.13-.033.261-.038.395h3.155V2.003zm0 7.497h-.394V7.104L0 8.914v-.39l2.752-1.787h-.725L0 8.053v-.554l1.163-.762H0v-.395h3.158V9.5zm1.58 0h-.395V6.342H7.5v.395H6.336l1.164.762v.36L5.77 6.737h-.724L7.5 8.33v.585l-2.763-1.81V9.5z" fill="#F5F5F5"/><path fill-rule="evenodd" clip-rule="evenodd" d="M3.158 9.5h1.184V6.342H7.5V5.158H4.342V2h-1.06c-.042 0-.083.001-.124.003v3.155H.003A3.314 3.314 0 000 5.28v1.061h3.158V9.5zm-1.13-2.763L0 8.053v.47l2.752-1.786h-.725zM7.498 8.33L5.045 6.737h.725L7.5 7.859v.47zM2.367 4.763L.494 3.547c-.07.112-.133.228-.19.348l1.338.868h.725zM7.499 3.44L5.461 4.763h-.725L7.5 2.97v.471z" fill="#FF4B55"/><path fill-rule="evenodd" clip-rule="evenodd" d="M13.736 7h-1.455A3.281 3.281 0 009 10.281V18.72A3.281 3.281 0 0012.281 22h8.438A3.281 3.281 0 0024 18.719V10.28A3.281 3.281 0 0020.719 7h-6.983z" fill="#2841C1"/><path fill-rule="evenodd" clip-rule="evenodd" d="M16.5 9.763v.395h-3.158V7h.394v2.396l2.764-1.81v.384l-2.764 1.793h.726L16.5 8.44v.561l-1.164.762H16.5zm-4.343-2.76a3.297 3.297 0 00-.395.038v2.355L9.813 8.119a3.294 3.294 0 00-.318.428l1.873 1.216h-.725l-1.337-.868a3.26 3.26 0 00-.1.24l.957.628H9.04c-.02.13-.033.261-.038.395h3.155V7.003zm0 7.497h-.394v-2.396L9 13.914v-.39l2.752-1.787h-.725L9 13.053v-.554l1.163-.762H9v-.395h3.158V14.5zm1.58 0h-.395v-3.158H16.5v.395h-1.164l1.164.762v.36l-1.73-1.122h-.724L16.5 13.33v.585l-2.764-1.81V14.5z" fill="#F6F6F6"/><path fill-rule="evenodd" clip-rule="evenodd" d="M12.158 14.5h1.184v-3.158H16.5v-1.184h-3.158V7h-1.06c-.042 0-.083.001-.124.003v3.155H9.003A3.323 3.323 0 009 10.28v1.061h3.158V14.5zm-1.13-2.763L9 13.053v.47l2.752-1.786h-.725zm5.471 1.593l-2.454-1.593h.725l1.73 1.122v.47zm-5.132-3.567L9.494 8.547c-.07.112-.133.228-.19.348l1.338.868h.725zM16.5 8.44L14.46 9.763h-.725L16.5 7.97v.471z" fill="#FF4B55"/><path d="M19.59 19.927a.053.053 0 01-.03-.01l-.306-.219-.306.22a.052.052 0 01-.06-.001.052.052 0 01-.02-.058l.114-.358-.303-.224a.052.052 0 01.03-.093l.377-.003.119-.357a.052.052 0 01.049-.035c.022 0 .042.014.049.035l.119.357.376.003a.052.052 0 01.03.093l-.302.224.113.358a.052.052 0 01-.049.068z" fill="#FF4B55"/><path d="M19.253 18.84l.13.392.414.003-.333.246.125.394-.336-.24-.336.24.124-.394-.332-.246.413-.003.13-.392zm0-.103a.104.104 0 00-.098.07l-.108.322-.339.003a.103.103 0 00-.06.187l.272.201-.102.323a.103.103 0 00.159.116l.276-.197.276.197a.103.103 0 00.12 0 .103.103 0 00.039-.116l-.103-.323.273-.201a.103.103 0 00-.06-.187l-.34-.003-.107-.322a.104.104 0 00-.098-.07z" fill="#F5F5F5"/><path d="M19.59 14.84a.052.052 0 01-.03-.01l-.306-.218-.306.219a.052.052 0 01-.08-.058l.114-.359-.303-.223a.052.052 0 01.03-.093l.377-.004.119-.356a.052.052 0 01.049-.036c.022 0 .042.014.049.036l.119.356.376.003c.022 0 .042.015.049.036a.052.052 0 01-.019.058l-.302.223.113.359a.052.052 0 01-.049.067z" fill="#FF4B55"/><path d="M19.253 13.754l.13.392.414.003-.333.245.125.394-.336-.24-.336.24.124-.394-.332-.245.413-.003.13-.392zm0-.104a.104.104 0 00-.098.07l-.108.323-.339.002a.103.103 0 00-.06.187l.272.202-.102.323a.103.103 0 00.159.115l.276-.197.276.197a.104.104 0 00.159-.115l-.103-.323.273-.202a.103.103 0 00-.06-.187l-.34-.002-.107-.322a.104.104 0 00-.098-.07z" fill="#F5F5F5"/><path d="M21.4 16.748a.052.052 0 01-.03-.01l-.306-.218-.306.219a.052.052 0 01-.06 0 .052.052 0 01-.02-.058l.114-.359-.302-.223a.052.052 0 01-.019-.058.052.052 0 01.05-.036l.375-.002.12-.357a.052.052 0 01.098 0l.119.357.376.002a.052.052 0 01.03.094l-.303.223.114.359a.052.052 0 01-.05.067z" fill="#FF4B55"/><path d="M21.063 15.662l.131.392.413.003-.332.246.125.393-.337-.24-.336.24.125-.393-.332-.246.413-.003.13-.392zm0-.103a.103.103 0 00-.098.07l-.107.322-.34.003a.103.103 0 00-.06.186l.273.202-.102.323a.103.103 0 00.158.116l.276-.197.276.197a.103.103 0 00.16-.116l-.103-.323.273-.202a.103.103 0 00-.06-.186l-.34-.003-.107-.322a.103.103 0 00-.099-.07z" fill="#F5F5F5"/><path d="M17.78 17.266a.052.052 0 01-.03-.01l-.307-.219-.306.22a.052.052 0 01-.06-.001.052.052 0 01-.02-.058l.114-.358-.302-.224a.052.052 0 01-.019-.057.052.052 0 01.049-.036l.376-.003.12-.357a.052.052 0 01.048-.035c.022 0 .042.014.05.035l.118.357.377.003c.022 0 .041.014.048.036.007.02 0 .044-.018.057l-.303.224.114.358a.052.052 0 01-.05.068z" fill="#FF4B55"/><path d="M17.442 16.18l.131.391.413.003-.332.246.124.394-.336-.24-.336.24.125-.394-.333-.246.413-.003.131-.392zm0-.104a.103.103 0 00-.098.07l-.107.322-.34.003a.104.104 0 00-.06.186l.273.202-.102.323a.103.103 0 00.158.116l.276-.197.276.197a.103.103 0 00.159-.116l-.102-.323.273-.202a.104.104 0 00-.061-.186l-.34-.003-.107-.322a.103.103 0 00-.098-.07z" fill="#F5F5F5"/></svg>
