<svg viewBox="0 0 24 24" fill="none" xmlns="http://www.w3.org/2000/svg"><path fill-rule="evenodd" clip-rule="evenodd" d="M.784 3.154h13.433c.285.334.504.725.637 1.154H.147c.134-.429.352-.82.637-1.154zM0 5.462h15v1.154H0V5.462zM15 7.77H0v1.153h15V7.77zM0 10.077h15v1.154H0v-1.154zm15 2.308H0v1.154h15v-1.154zM.147 14.693h14.707a3.27 3.27 0 0 1-.637 1.154H.784a3.275 3.275 0 0 1-.637-1.154z" fill="#F5F5F5"/><path fill-rule="evenodd" clip-rule="evenodd" d="M11.719 2H3.28c-1 0-1.896.448-2.498 1.154h13.434A3.274 3.274 0 0 0 11.719 2zM15 6.615H0V7.77h15V6.615zm-.147-2.307c.096.308.147.635.147.974v.18H0v-.18c0-.34.051-.666.147-.974h14.706zM15 8.923H0v1.154h15V8.923zm0 4.616v.18c0 .34-.051.666-.147.974H.147A3.28 3.28 0 0 1 0 13.719v-.18h15zm-.783 2.307H.783A3.274 3.274 0 0 0 3.281 17h8.438c1 0 1.896-.448 2.498-1.154zM0 11.231h15v1.154H0V11.23z" fill="#FA4051"/><path d="M8 2H3.25C1.455 2 0 3.47 0 5.281v4.796h8V2z" fill="#1939C9"/><path fill-rule="evenodd" clip-rule="evenodd" d="m2.613 2.721.062.187.197.002c.025 0 .036.032.015.047l-.158.117.06.188a.027.027 0 0 1-.041.03l-.16-.115-.16.114a.027.027 0 0 1-.041-.03l.06-.187-.16-.117a.026.026 0 0 1 .016-.047l.197-.002.062-.187a.027.027 0 0 1 .05 0zM.87 3.262a.027.027 0 0 0 .04.03l.161-.115.16.115a.027.027 0 0 0 .04-.03l-.059-.187.159-.117a.027.027 0 0 0-.016-.048l-.197-.002-.033-.1a3.295 3.295 0 0 0-.241.233l.046.034-.06.187zm.226 1.016.062.187.197.001c.026 0 .036.033.016.048l-.159.117.06.187a.027.027 0 0 1-.041.03l-.16-.115-.16.115a.027.027 0 0 1-.04-.03l.059-.187-.159-.117a.027.027 0 0 1 .016-.048l.197-.001.062-.187a.027.027 0 0 1 .05 0zm.062 1.913-.062-.186a.027.027 0 0 0-.05 0l-.062.186-.197.002a.027.027 0 0 0-.016.048l.159.117-.06.187a.027.027 0 0 0 .04.03l.161-.115.16.115a.027.027 0 0 0 .04-.03l-.059-.187.159-.117a.027.027 0 0 0-.016-.048l-.197-.002zm-.062 1.4.062.187.197.002c.026 0 .036.032.016.047l-.159.117.06.188a.027.027 0 0 1-.041.03l-.16-.115-.16.114a.027.027 0 0 1-.04-.03l.059-.187-.159-.117a.027.027 0 0 1 .016-.047l.197-.002.062-.187a.027.027 0 0 1 .05 0zm.062 1.63-.062-.187a.027.027 0 0 0-.05 0l-.062.187-.197.002a.027.027 0 0 0-.016.047l.159.117-.06.188a.027.027 0 0 0 .04.03l.161-.115.16.114a.027.027 0 0 0 .04-.03l-.059-.187.159-.117a.027.027 0 0 0-.016-.047l-.197-.002zm.695-5.762.062.186.197.002c.025 0 .036.032.015.048l-.158.116.06.188a.027.027 0 0 1-.041.03l-.16-.115-.16.115a.027.027 0 0 1-.04-.03l.058-.188-.158-.116a.027.027 0 0 1 .016-.048l.196-.002.063-.186a.027.027 0 0 1 .05 0zm.062 1.913-.062-.187a.027.027 0 0 0-.05 0l-.063.187-.196.001a.027.027 0 0 0-.016.048l.158.117-.059.187a.027.027 0 0 0 .04.03l.16-.115.16.115a.027.027 0 0 0 .042-.03l-.06-.187.158-.117a.027.027 0 0 0-.015-.048l-.197-.002zm-.062 1.453.062.187.197.001c.025 0 .036.033.015.048l-.158.117.06.188a.027.027 0 0 1-.041.03l-.16-.115-.16.114a.027.027 0 0 1-.04-.03l.058-.187-.158-.117a.027.027 0 0 1 .016-.048l.196-.001.063-.187a.027.027 0 0 1 .05 0zm.062 1.66L1.853 8.3a.027.027 0 0 0-.05 0l-.063.186-.196.002a.027.027 0 0 0-.016.048l.158.116-.059.188a.027.027 0 0 0 .04.03l.16-.115.16.115a.027.027 0 0 0 .042-.03l-.06-.188.158-.116a.027.027 0 0 0-.015-.048l-.197-.002zm.76-4.02-.062-.187a.027.027 0 0 0-.05 0l-.063.187-.197.001a.027.027 0 0 0-.015.048l.158.117-.06.187a.027.027 0 0 0 .042.03l.16-.115.16.115a.027.027 0 0 0 .04-.03l-.059-.187.158-.117a.027.027 0 0 0-.015-.048l-.197-.001zm-.062 1.54.062.186.197.002c.025 0 .036.033.015.048l-.158.117.06.187a.027.027 0 0 1-.041.03l-.16-.115-.16.115a.027.027 0 0 1-.041-.03l.06-.187-.16-.117a.027.027 0 0 1 .016-.048L2.5 6.19l.062-.186a.027.027 0 0 1 .05 0zm.062 1.773-.062-.187a.027.027 0 0 0-.05 0l-.063.187-.197.002a.027.027 0 0 0-.015.047l.158.117-.06.188a.027.027 0 0 0 .042.03l.16-.115.16.114a.027.027 0 0 0 .04-.03l-.059-.187.158-.117a.027.027 0 0 0-.015-.047l-.197-.002zm-.062 1.256.062.187.197.002c.025 0 .036.032.015.047l-.158.117.06.188a.027.027 0 0 1-.041.03l-.16-.115-.16.114a.027.027 0 0 1-.041-.03l.06-.187-.16-.117a.027.027 0 0 1 .016-.047L2.5 9.22l.062-.187a.027.027 0 0 1 .05 0zm.818-5.389-.062-.186a.027.027 0 0 0-.05 0l-.063.186-.197.002a.027.027 0 0 0-.015.048l.158.116-.06.188a.027.027 0 0 0 .041.03l.16-.115.16.115a.027.027 0 0 0 .041-.03l-.06-.188.16-.116a.026.026 0 0 0-.016-.048l-.197-.002zm-.062 1.54.062.187.197.001c.025 0 .036.033.015.048l-.158.117.06.187a.027.027 0 0 1-.042.03l-.16-.115-.16.115a.027.027 0 0 1-.04-.03l.059-.187-.158-.117a.027.027 0 0 1 .015-.048l.197-.002.062-.186a.027.027 0 0 1 .05 0zm.062 1.827-.062-.187a.027.027 0 0 0-.05 0l-.063.187-.197.001a.027.027 0 0 0-.015.048l.158.117-.06.188a.027.027 0 0 0 .041.03l.16-.115.16.114a.027.027 0 0 0 .041-.03l-.06-.187.16-.117a.027.027 0 0 0-.016-.048l-.197-.001zm-.062 1.287.062.186.197.002c.025 0 .036.032.015.048l-.158.116.06.188a.027.027 0 0 1-.042.03l-.16-.115-.16.115a.027.027 0 0 1-.04-.03l.059-.188-.158-.116a.027.027 0 0 1 .015-.048l.197-.002.062-.186a.027.027 0 0 1 .05 0zm.822-5.39-.063-.188a.027.027 0 0 0-.05 0l-.062.187-.197.002a.026.026 0 0 0-.015.047l.158.117-.06.188a.027.027 0 0 0 .041.03l.16-.115.16.114a.027.027 0 0 0 .04-.03l-.058-.187.158-.117a.026.026 0 0 0-.016-.047l-.196-.002zm-.063 1.369.063.187.196.001c.026 0 .036.033.016.048l-.158.117.059.187a.027.027 0 0 1-.04.03l-.16-.115-.16.115a.027.027 0 0 1-.042-.03l.06-.187-.158-.117a.027.027 0 0 1 .015-.048l.197-.002.062-.186a.027.027 0 0 1 .05 0zm.063 1.913-.063-.186a.027.027 0 0 0-.05 0l-.062.186-.197.002a.027.027 0 0 0-.015.048l.158.117-.06.187a.027.027 0 0 0 .041.03l.16-.115.16.115a.027.027 0 0 0 .04-.03l-.058-.187.158-.117a.027.027 0 0 0-.016-.048l-.196-.002zm-.063 1.4.063.187.196.002c.026 0 .036.032.016.047l-.158.117.059.188a.027.027 0 0 1-.04.03l-.16-.115-.16.114a.027.027 0 0 1-.042-.03l.06-.187-.158-.117a.027.027 0 0 1 .015-.047l.197-.002.062-.187a.027.027 0 0 1 .05 0zm.063 1.63-.063-.187a.027.027 0 0 0-.05 0l-.062.187-.197.002a.027.027 0 0 0-.015.047l.158.117-.06.188a.027.027 0 0 0 .041.03l.16-.115.16.114a.027.027 0 0 0 .04-.03l-.058-.187.158-.117a.027.027 0 0 0-.016-.047l-.196-.002zm.694-5.762.062.186.197.002c.026 0 .036.032.016.048L5 3.81l.06.188a.027.027 0 0 1-.04.03l-.161-.115-.16.115a.027.027 0 0 1-.04-.03l.059-.188-.159-.116a.027.027 0 0 1 .016-.048l.197-.002.062-.186a.027.027 0 0 1 .05 0zm.062 1.913-.062-.187a.027.027 0 0 0-.05 0l-.062.187-.197.001a.027.027 0 0 0-.016.048l.159.117-.06.187a.027.027 0 0 0 .041.03l.16-.115.16.115a.027.027 0 0 0 .04-.03l-.059-.187.159-.117a.027.027 0 0 0-.016-.048l-.197-.002zm-.062 1.453.062.187.197.001c.026 0 .036.033.016.048L5 7.178l.06.188a.027.027 0 0 1-.04.03l-.16-.116-.16.114a.027.027 0 0 1-.04-.03l.059-.187-.159-.117a.027.027 0 0 1 .016-.048l.197-.001.062-.187a.026.026 0 0 1 .05 0zm.062 1.66L4.885 8.3a.027.027 0 0 0-.05 0l-.062.186-.197.002a.027.027 0 0 0-.016.048l.159.116-.06.188a.027.027 0 0 0 .041.03l.16-.115.16.115a.027.027 0 0 0 .04-.03l-.059-.188.159-.116a.027.027 0 0 0-.016-.048l-.197-.002zm.696-5.764.062.187.197.002c.025 0 .036.032.016.047l-.159.117.06.188a.027.027 0 0 1-.041.03l-.16-.115-.16.114a.027.027 0 0 1-.04-.03l.058-.187-.158-.117a.026.026 0 0 1 .016-.047l.196-.002.063-.187a.026.026 0 0 1 .05 0zm.062 1.744-.062-.187a.026.026 0 0 0-.05 0l-.063.187-.196.001a.027.027 0 0 0-.016.048l.158.117-.059.187a.027.027 0 0 0 .04.03l.16-.115.16.115a.027.027 0 0 0 .042-.03l-.06-.187.159-.117a.027.027 0 0 0-.016-.048l-.197-.001zm-.062 1.54.062.186.197.002c.025 0 .036.033.016.048l-.159.117.06.187a.027.027 0 0 1-.041.03l-.16-.115-.16.115a.027.027 0 0 1-.04-.03l.058-.187-.158-.117a.027.027 0 0 1 .016-.048l.196-.002.063-.186a.026.026 0 0 1 .05 0zm.062 1.773-.062-.187a.026.026 0 0 0-.05 0l-.063.187-.196.002a.027.027 0 0 0-.016.047l.158.117-.059.188a.027.027 0 0 0 .04.03l.16-.115.16.114a.027.027 0 0 0 .042-.03l-.06-.187.159-.117a.027.027 0 0 0-.016-.047l-.197-.002zm-.062 1.256.062.187.197.002c.025 0 .036.032.016.047l-.159.117.06.188a.027.027 0 0 1-.041.03l-.16-.115-.16.114a.027.027 0 0 1-.04-.03l.058-.187-.158-.117a.027.027 0 0 1 .016-.047l.196-.002.063-.187a.026.026 0 0 1 .05 0zm.818-5.389L6.4 3.46a.027.027 0 0 0-.05 0l-.063.186-.196.002a.027.027 0 0 0-.016.048l.158.116-.06.188a.027.027 0 0 0 .04.03l.16-.115.16.115A.027.027 0 0 0 6.574 4l-.059-.188.158-.116a.026.026 0 0 0-.015-.048l-.197-.002zM6.4 5.185l.062.187.197.001c.025 0 .036.033.015.048l-.158.117.06.187a.027.027 0 0 1-.041.03l-.16-.115-.16.115a.027.027 0 0 1-.041-.03l.06-.187-.159-.117a.027.027 0 0 1 .016-.048l.196-.002.063-.186a.027.027 0 0 1 .05 0zm.062 1.827L6.4 6.825a.026.026 0 0 0-.05 0l-.063.187-.196.001a.027.027 0 0 0-.016.048l.158.117-.059.188a.027.027 0 0 0 .04.03l.16-.115.16.114a.027.027 0 0 0 .041-.03l-.059-.187.158-.117a.027.027 0 0 0-.015-.048l-.197-.001zM6.4 8.299l.062.186.197.002c.025 0 .036.032.015.048l-.158.116.06.188a.027.027 0 0 1-.041.03l-.16-.115-.16.115a.027.027 0 0 1-.041-.03l.06-.188-.159-.116a.027.027 0 0 1 .016-.048l.196-.002.063-.186a.027.027 0 0 1 .05 0zm.82-5.39-.061-.188c-.008-.024-.043-.024-.05 0l-.063.187-.197.002a.026.026 0 0 0-.015.047l.158.117-.06.188a.027.027 0 0 0 .041.03l.16-.115.16.114a.027.027 0 0 0 .041-.03l-.06-.187.16-.117a.027.027 0 0 0-.016-.047l-.197-.002zm-.061 1.369.062.187.197.001c.025 0 .036.033.015.048l-.158.117.06.187a.027.027 0 0 1-.041.03l-.16-.115-.16.115a.027.027 0 0 1-.041-.03l.06-.187-.16-.117a.027.027 0 0 1 .016-.048l.197-.001.062-.187c.008-.024.043-.024.05 0zM7.22 6.19l-.062-.186c-.008-.024-.043-.024-.05 0l-.063.186-.197.002a.027.027 0 0 0-.015.048l.158.117-.06.187a.027.027 0 0 0 .041.03l.16-.115.16.115a.027.027 0 0 0 .041-.03l-.06-.187.16-.117a.027.027 0 0 0-.016-.048L7.22 6.19zm-.062 1.4.062.187.197.002c.025 0 .036.032.015.047l-.158.117.06.188a.027.027 0 0 1-.041.03l-.16-.115-.16.114a.027.027 0 0 1-.041-.03l.06-.187-.16-.117a.027.027 0 0 1 .016-.047l.197-.002.062-.187c.008-.024.043-.024.05 0zm.062 1.63-.062-.187c-.008-.024-.043-.024-.05 0l-.063.187-.197.002a.027.027 0 0 0-.015.047l.158.117-.06.188a.027.027 0 0 0 .041.03l.16-.115.16.114a.027.027 0 0 0 .041-.03l-.06-.187.16-.117a.027.027 0 0 0-.016-.047L7.22 9.22z" fill="#F5F5F5"/><g clip-path="url(#a)"><path d="M9.126 9.373a3.301 3.301 0 0 0-.126.908v1.46h15v-1.46a3.33 3.33 0 0 0-.126-.908H9.126zM9 18.719c0 .313.044.618.126.908h14.745c.082-.287.126-.592.126-.908v-1.46H9v1.46z" fill="#F6F6F6"/><path d="M12.103 22.009h9.046a3.328 3.328 0 0 0 2.974-2.37H9.126a3.328 3.328 0 0 0 2.977 2.37zm9.047-15h-9.046a3.328 3.328 0 0 0-2.974 2.37h14.997a3.328 3.328 0 0 0-2.977-2.37z" fill="#FB4B4E"/><path d="M24 11.74H9v5.52h15v-5.52z" fill="#2841C1"/></g><defs><clipPath id="a"><path fill="#fff" transform="translate(9 7)" d="M0 0h15v15H0z"/></clipPath></defs></svg>
