<svg viewBox="0 0 24 24" fill="none" xmlns="http://www.w3.org/2000/svg"><path d="M2 6a4 4 0 014-4h12a4 4 0 014 4v12a4 4 0 01-4 4H6a4 4 0 01-4-4V6z" fill="#F6F6F6"/><path d="M7.93 12c0-.455.078-.89.215-1.298L5.735 8.9a6.83 6.83 0 00-.735 3.1c0 1.116.264 2.166.736 3.101l2.41-1.8A4.104 4.104 0 017.93 12z" fill="#FFE15A"/><path d="M5.736 8.898l2.41 1.8c.556-1.648 2.138-2.834 4.017-2.834a4.2 4.2 0 012.637.922l2.084-2.036A7.225 7.225 0 0012.163 5c-2.83 0-5.265 1.585-6.427 3.898z" fill="#FB4B4E"/><path d="M12.163 10.727v2.705h3.841c-.358 1.718-1.855 2.704-3.841 2.704-1.882 0-3.468-1.19-4.021-2.841l-2.41 1.804c1.166 2.316 3.598 3.9 6.43 3.9C15.745 19 19 16.455 19 12c0-.413-.065-.858-.163-1.272h-6.674z" fill="#34A853"/><path d="M12.162 10.727v2.705h3.842a3.161 3.161 0 01-1.462 2.093l2.289 1.731c1.312-1.196 2.168-2.975 2.168-5.256 0-.414-.065-.86-.162-1.273h-6.675z" fill="#4285F4"/></svg>
