<svg viewBox="0 0 24 24" fill="none" xmlns="http://www.w3.org/2000/svg"><g clip-path="url(#clip0)"><path fill-rule="evenodd" clip-rule="evenodd" d="M4.736 2H3.281A3.281 3.281 0 000 5.281V13.72A3.281 3.281 0 003.281 17h8.438A3.281 3.281 0 0015 13.719V5.28A3.281 3.281 0 0011.719 2H4.736z" fill="#2841C1"/><path fill-rule="evenodd" clip-rule="evenodd" d="M7.5 4.763v.395H4.342V2h.395v2.396L7.5 2.586v.384L4.737 4.763h.725L7.5 3.44V4l-1.164.763H7.5zm-4.343-2.76a3.295 3.295 0 00-.394.038v2.355L.813 3.119a3.294 3.294 0 00-.318.428l1.873 1.216h-.725L.306 3.895a3.26 3.26 0 00-.1.24l.957.628H.04c-.02.13-.033.261-.038.395h3.155V2.003zm0 7.497h-.394V7.104L0 8.914v-.39l2.752-1.787h-.725L0 8.053v-.554l1.163-.762H0v-.395h3.158V9.5zm1.58 0h-.395V6.342H7.5v.395H6.336l1.164.762v.36L5.77 6.737h-.724L7.5 8.33v.585l-2.763-1.81V9.5z" fill="#F6F6F6"/><path fill-rule="evenodd" clip-rule="evenodd" d="M3.158 9.5h1.184V6.342H7.5V5.158H4.342V2h-1.06c-.042 0-.083.001-.124.003v3.155H.003A3.314 3.314 0 000 5.28v1.061h3.158V9.5zm-1.13-2.763L0 8.053v.47l2.752-1.786h-.725zM7.498 8.33L5.045 6.737h.725L7.5 7.859v.47zM2.367 4.763L.494 3.547c-.07.112-.133.228-.19.348l1.338.868h.725zM7.499 3.44L5.461 4.763h-.725L7.5 2.97v.471z" fill="#FF4B55"/><path d="M10.59 14.927a.053.053 0 01-.03-.01l-.306-.219-.306.22a.053.053 0 01-.06-.001.052.052 0 01-.02-.058l.114-.358-.303-.223a.052.052 0 01.03-.093l.377-.004.119-.357a.052.052 0 01.049-.035c.022 0 .042.014.049.035l.119.357.376.003a.052.052 0 01.03.094l-.302.223.113.358a.052.052 0 01-.049.068z" fill="#FF4B55"/><path d="M10.253 13.84l.13.392.414.003-.333.246.125.394-.336-.24-.336.24.124-.394-.332-.246.413-.003.13-.392zm0-.103a.104.104 0 00-.098.07l-.108.322-.339.003a.103.103 0 00-.06.187l.272.201-.102.324a.103.103 0 00.159.115l.276-.197.276.197a.103.103 0 00.12 0 .103.103 0 00.039-.115l-.103-.324.273-.201a.103.103 0 00-.06-.187l-.34-.003-.107-.322a.104.104 0 00-.098-.07z" fill="#F5F5F5"/><path d="M10.59 9.84a.052.052 0 01-.03-.01l-.306-.218-.306.219a.052.052 0 01-.06 0 .052.052 0 01-.02-.058l.114-.359-.303-.223a.052.052 0 01-.018-.058.052.052 0 01.049-.036l.376-.003.119-.356a.052.052 0 01.049-.036c.022 0 .042.015.049.036l.119.356.376.003c.022 0 .042.015.049.036.007.021 0 .044-.019.058l-.302.223.113.359a.052.052 0 01-.049.067z" fill="#FF4B55"/><path d="M10.253 8.754l.13.392.414.003-.333.245.125.394-.336-.24-.336.24.124-.394-.332-.245.413-.003.13-.392zm0-.104a.104.104 0 00-.098.07l-.108.323-.339.002a.103.103 0 00-.06.187l.272.201-.102.324a.104.104 0 00.159.115l.276-.197.276.197a.103.103 0 00.159-.115l-.103-.324.273-.201a.103.103 0 00-.06-.187l-.34-.002-.107-.322a.104.104 0 00-.098-.07z" fill="#F5F5F5"/><path d="M12.4 11.748a.052.052 0 01-.03-.01l-.306-.218-.306.219a.052.052 0 01-.06 0 .052.052 0 01-.02-.058l.114-.359-.302-.223a.052.052 0 01-.019-.058.052.052 0 01.05-.036l.375-.002.12-.357a.052.052 0 01.098 0l.118.357.377.002a.052.052 0 01.03.094l-.303.223.114.359a.052.052 0 01-.05.067z" fill="#FF4B55"/><path d="M12.063 10.662l.131.392.413.003-.332.246.124.393-.336-.24-.336.24.125-.393-.332-.246.413-.003.13-.392zm0-.103a.103.103 0 00-.098.07l-.107.322-.34.003a.103.103 0 00-.06.186l.273.202-.102.323a.103.103 0 00.158.116l.276-.197.276.197a.103.103 0 00.16-.116l-.103-.323.273-.202a.103.103 0 00-.06-.186l-.34-.003-.107-.322a.103.103 0 00-.099-.07z" fill="#F5F5F5"/><path d="M8.78 12.266a.052.052 0 01-.03-.01l-.307-.219-.306.22a.052.052 0 01-.08-.058l.114-.36-.302-.223a.052.052 0 01-.019-.057.052.052 0 01.049-.036l.376-.003.12-.357a.052.052 0 01.048-.035c.023 0 .042.014.05.035l.118.357.377.003c.022 0 .041.014.048.036.007.02 0 .044-.018.057l-.303.224.114.358a.052.052 0 01-.05.068z" fill="#FF4B55"/><path d="M8.442 11.18l.131.391.413.003-.332.246.124.394-.336-.24-.336.24.125-.394-.333-.246.414-.003.13-.392zm0-.104a.104.104 0 00-.098.07l-.107.322-.34.003a.104.104 0 00-.06.187l.273.201-.103.323a.103.103 0 00.16.116l.275-.197.276.197a.103.103 0 00.121 0 .103.103 0 00.038-.116l-.102-.323.273-.201a.103.103 0 00-.061-.187l-.34-.003-.107-.322a.104.104 0 00-.098-.07z" fill="#F5F5F5"/><path fill-rule="evenodd" clip-rule="evenodd" d="M9.784 8.154h13.433c.285.334.504.725.637 1.154H9.147c.134-.429.352-.82.637-1.154zM9 10.462h15v1.154H9v-1.154zm15 2.308H9v1.153h15V12.77zM9 15.077h15v1.154H9v-1.154zm15 2.308H9v1.154h15v-1.154zM9.147 19.693h14.707c-.133.429-.352.82-.637 1.154H9.784a3.274 3.274 0 01-.637-1.154z" fill="#F5F5F5"/><path fill-rule="evenodd" clip-rule="evenodd" d="M20.719 7H12.28c-1 0-1.896.448-2.498 1.154h13.434A3.274 3.274 0 0020.719 7zM24 11.615H9v1.154h15v-1.154zm-.147-2.307c.096.308.147.635.147.974v.18H9v-.18c0-.34.051-.666.147-.974h14.706zM24 13.923H9v1.154h15v-1.154zm0 4.616v.18c0 .34-.051.666-.147.974H9.147A3.28 3.28 0 019 18.719v-.18h15zm-.783 2.307H9.783A3.274 3.274 0 0012.281 22h8.438c1 0 1.896-.448 2.498-1.154zM9 16.231h15v1.154H9V16.23z" fill="#FA4051"/><path d="M17 7h-4.75C10.455 7 9 8.47 9 10.281v4.796h8V7z" fill="#1939C9"/><path fill-rule="evenodd" clip-rule="evenodd" d="M11.613 7.721l.062.187.197.002c.025 0 .036.032.015.047l-.158.117.06.188a.027.027 0 01-.041.03l-.16-.115-.16.114a.027.027 0 01-.04-.03l.058-.187-.158-.117a.026.026 0 01.016-.047l.196-.002.063-.187a.027.027 0 01.05 0zm-1.743.541a.027.027 0 00.041.03l.16-.115.16.115a.027.027 0 00.04-.03l-.058-.187.158-.117a.027.027 0 00-.016-.048l-.196-.002-.034-.1a3.299 3.299 0 00-.241.233l.046.034-.06.187zm.226 1.016l.063.187.196.001c.026 0 .036.033.016.048l-.158.117.059.187a.027.027 0 01-.04.03l-.16-.115-.16.115a.027.027 0 01-.042-.03l.06-.187-.158-.117a.027.027 0 01.015-.048l.197-.001.062-.187c.008-.024.042-.024.05 0zm.063 1.913l-.063-.186c-.008-.025-.042-.025-.05 0l-.062.186-.197.002a.027.027 0 00-.015.048l.158.117-.06.187a.027.027 0 00.041.03l.16-.115.16.115c.021.014.049-.006.041-.03l-.06-.188.159-.116a.027.027 0 00-.016-.048l-.196-.002zm-.063 1.4l.063.187.196.002c.026 0 .036.032.016.047l-.158.117.059.188a.026.026 0 01-.04.03l-.16-.115-.16.114a.026.026 0 01-.042-.03l.06-.187-.158-.117a.027.027 0 01.015-.047l.197-.002.062-.187c.008-.024.042-.024.05 0zm.063 1.63l-.063-.187c-.008-.024-.042-.024-.05 0l-.062.187-.197.002a.027.027 0 00-.015.047l.158.117-.06.188a.027.027 0 00.041.03l.16-.115.16.114a.027.027 0 00.041-.03l-.06-.187.159-.117a.027.027 0 00-.016-.047l-.196-.002zm.694-5.762l.062.186.197.002c.026 0 .036.032.016.048l-.159.116.06.188a.027.027 0 01-.041.03l-.16-.115-.16.114a.027.027 0 01-.04-.03l.059-.187-.159-.116a.027.027 0 01.016-.048l.197-.002.062-.186a.027.027 0 01.05 0zm.063 1.912l-.063-.186c-.008-.024-.042-.024-.05 0l-.062.186-.197.002a.027.027 0 00-.016.048l.159.117-.06.187a.026.026 0 00.041.03l.16-.115.16.115a.026.026 0 00.04-.03l-.059-.187.159-.117a.027.027 0 00-.016-.048l-.197-.002zm-.063 1.454l.063.187.196.001c.026 0 .036.033.016.048l-.159.117.06.188a.027.027 0 01-.04.03l-.161-.115-.16.114a.027.027 0 01-.04-.03l.059-.187-.159-.117a.026.026 0 01.016-.048l.197-.001.062-.187c.008-.024.042-.024.05 0zm.063 1.66l-.063-.186c-.008-.024-.042-.024-.05 0l-.062.186-.197.002a.026.026 0 00-.016.048l.159.117-.06.187c-.007.024.02.044.041.03l.16-.115.16.115c.02.014.049-.006.04-.03l-.059-.188.159-.116a.026.026 0 00-.016-.048l-.197-.002zm.76-4.02l-.063-.187a.027.027 0 00-.05 0l-.063.187-.196.001a.026.026 0 00-.016.048l.158.117-.059.187a.027.027 0 00.04.03l.16-.115.16.115a.027.027 0 00.042-.03l-.06-.187.159-.117a.027.027 0 00-.016-.048l-.197-.001zm-.063 1.54l.062.186.197.002c.025 0 .036.033.015.048l-.158.117.06.187a.027.027 0 01-.041.03l-.16-.115-.16.115a.027.027 0 01-.04-.03l.058-.188-.158-.116a.027.027 0 01.016-.048l.196-.002.063-.186a.027.027 0 01.05 0zm.062 1.773l-.062-.187a.027.027 0 00-.05 0l-.063.187-.196.002a.027.027 0 00-.016.047l.158.117-.059.188a.026.026 0 00.04.03l.16-.115.16.114a.026.026 0 00.042-.03l-.06-.187.159-.117a.027.027 0 00-.016-.047l-.197-.002zm-.062 1.256l.062.187.197.002c.025 0 .036.032.015.047l-.158.117.06.188a.027.027 0 01-.041.03l-.16-.115-.16.114a.027.027 0 01-.04-.03l.058-.187-.158-.117a.027.027 0 01.016-.047l.196-.002.063-.187a.027.027 0 01.05 0zm.818-5.389l-.062-.186a.027.027 0 00-.05 0l-.063.186-.196.002a.027.027 0 00-.016.048l.158.116-.06.188a.027.027 0 00.042.03l.16-.115.16.114a.027.027 0 00.04-.03l-.059-.187.158-.116a.026.026 0 00-.015-.048l-.197-.002zm-.062 1.54l.062.186.197.002c.025 0 .036.033.015.048l-.158.117.06.187a.026.026 0 01-.041.03l-.16-.115-.16.115c-.021.015-.049-.005-.041-.03l.06-.187-.159-.117a.027.027 0 01.016-.048l.196-.002.063-.186a.027.027 0 01.05 0zm.062 1.827l-.062-.187a.027.027 0 00-.05 0l-.063.187-.196.001a.026.026 0 00-.016.048l.158.117-.06.188c-.007.024.02.044.042.03l.16-.115.16.114a.027.027 0 00.04-.03l-.059-.187.158-.117a.026.026 0 00-.015-.048l-.197-.001zm-.062 1.287l.062.186.197.002c.025 0 .036.033.015.048l-.158.117.06.187a.026.026 0 01-.041.03l-.16-.115-.16.115a.027.027 0 01-.041-.03l.06-.188-.159-.116a.026.026 0 01.016-.048l.196-.002.063-.186a.027.027 0 01.05 0zm.822-5.39l-.062-.188c-.008-.024-.043-.024-.05 0l-.063.187-.197.002a.026.026 0 00-.015.047l.158.117-.06.188a.027.027 0 00.041.03l.16-.115.16.114a.027.027 0 00.041-.03l-.06-.187.16-.117a.027.027 0 00-.017-.047l-.196-.002zm-.062 1.369l.062.187.196.001c.026 0 .037.033.016.048l-.158.117.06.187a.027.027 0 01-.041.03l-.16-.115-.16.115a.027.027 0 01-.041-.03l.059-.187-.158-.117a.027.027 0 01.015-.048l.197-.002.062-.186a.027.027 0 01.05 0zm.062 1.913l-.062-.186a.026.026 0 00-.05 0l-.063.186-.197.002a.027.027 0 00-.015.048l.158.117-.06.187a.027.027 0 00.041.03l.16-.115.16.115c.021.014.049-.006.041-.03l-.06-.188.16-.116a.027.027 0 00-.017-.048l-.196-.002zm-.062 1.4l.062.187.196.002c.026 0 .037.032.016.047l-.158.117.06.188a.026.026 0 01-.041.03l-.16-.115-.16.114a.026.026 0 01-.041-.03l.059-.187-.158-.117a.027.027 0 01.015-.047l.197-.002.062-.187a.026.026 0 01.05 0zm.062 1.63l-.062-.187a.026.026 0 00-.05 0l-.063.187-.197.002a.027.027 0 00-.015.047l.158.117-.06.188c-.007.024.02.044.041.03l.16-.115.16.114a.027.027 0 00.041-.03l-.06-.187.16-.117a.027.027 0 00-.017-.047l-.196-.002zm.694-5.762l.063.186.196.002c.026 0 .036.032.016.048l-.158.116.059.188a.027.027 0 01-.04.03l-.16-.115-.16.114a.027.027 0 01-.042-.03l.06-.187-.158-.116a.027.027 0 01.015-.048l.197-.002.062-.186a.027.027 0 01.05 0zm.063 1.912l-.063-.186a.027.027 0 00-.05 0l-.062.186-.197.002a.027.027 0 00-.015.048l.158.117-.06.187a.026.026 0 00.041.03l.16-.115.16.115a.026.026 0 00.041-.03l-.06-.187.159-.117a.027.027 0 00-.016-.048l-.196-.002zm-.063 1.454l.063.187.196.001c.026 0 .036.033.016.048l-.158.117.059.188a.027.027 0 01-.04.03l-.16-.115-.16.114a.027.027 0 01-.042-.03l.06-.187-.158-.117a.026.026 0 01.015-.048l.197-.001.062-.187a.027.027 0 01.05 0zm.063 1.66l-.063-.186a.027.027 0 00-.05 0l-.062.186-.197.002a.026.026 0 00-.015.048l.158.117-.06.187c-.007.024.02.044.041.03l.16-.115.16.115c.021.014.049-.006.041-.03l-.06-.188.159-.116a.026.026 0 00-.016-.048l-.196-.002zm.695-5.764l.063.187.196.002c.026 0 .036.032.016.047l-.159.117.06.188a.026.026 0 01-.04.03l-.16-.115-.16.114a.027.027 0 01-.042-.03l.06-.187-.159-.117a.026.026 0 01.016-.047l.197-.002.062-.187c.008-.024.042-.024.05 0zm.063 1.744l-.063-.187c-.008-.024-.042-.024-.05 0l-.062.187-.197.001a.027.027 0 00-.016.048l.159.117-.06.187a.027.027 0 00.041.03l.16-.115.16.115a.026.026 0 00.04-.03l-.059-.187.159-.117a.027.027 0 00-.016-.048l-.196-.001zm-.063 1.54l.063.186.196.002c.026 0 .036.033.016.048l-.159.117.06.187a.026.026 0 01-.04.03l-.16-.115-.16.115a.027.027 0 01-.042-.03l.06-.188-.159-.116a.027.027 0 01.016-.048l.197-.002.062-.186c.008-.025.042-.025.05 0zm.063 1.773l-.063-.187c-.008-.024-.042-.024-.05 0l-.062.187-.197.002a.027.027 0 00-.016.047l.159.117-.06.188a.026.026 0 00.041.03l.16-.115.16.114a.026.026 0 00.04-.03l-.059-.187.159-.117a.027.027 0 00-.016-.047l-.196-.002zm-.063 1.256l.063.187.196.002c.026 0 .036.032.016.047l-.159.117.06.188a.026.026 0 01-.04.03l-.16-.115-.16.114a.027.027 0 01-.042-.03l.06-.187-.159-.117a.027.027 0 01.016-.047l.197-.002.062-.187c.008-.024.042-.024.05 0zm.818-5.389L15.4 8.46a.027.027 0 00-.05 0l-.063.186-.196.002a.027.027 0 00-.016.048l.159.116-.06.188a.027.027 0 00.04.03l.161-.115.16.114a.027.027 0 00.04-.03l-.059-.187.159-.116a.026.026 0 00-.016-.048l-.197-.002zm-.062 1.54l.062.186.197.002c.026 0 .036.033.016.048l-.159.117.06.187a.026.026 0 01-.041.03l-.16-.115-.16.115a.026.026 0 01-.04-.03l.059-.187-.159-.117a.027.027 0 01.016-.048l.197-.002.062-.186a.027.027 0 01.05 0zm.062 1.827l-.062-.187a.027.027 0 00-.05 0l-.063.187-.196.001a.026.026 0 00-.016.048l.159.117-.06.188a.027.027 0 00.04.03l.161-.115.16.114a.027.027 0 00.04-.03l-.059-.187.159-.117a.026.026 0 00-.016-.048l-.197-.001zm-.062 1.287l.062.186.197.002c.026 0 .036.033.016.048l-.159.117.06.187c.007.024-.02.044-.041.03l-.16-.115-.16.115c-.02.014-.049-.006-.04-.03l.059-.188-.159-.116a.026.026 0 01.016-.048l.197-.002.062-.186a.027.027 0 01.05 0zm.821-5.39l-.062-.188c-.008-.024-.042-.024-.05 0l-.063.187-.196.002a.026.026 0 00-.016.047l.158.117-.059.188a.027.027 0 00.04.03l.16-.115.16.114a.027.027 0 00.041-.03l-.059-.187.158-.117a.026.026 0 00-.015-.047l-.197-.002zm-.062 1.369l.062.187.197.001c.025 0 .036.033.015.048l-.158.117.06.187a.027.027 0 01-.041.03l-.16-.115-.16.115a.027.027 0 01-.041-.03l.06-.187-.159-.117a.026.026 0 01.016-.048l.196-.001.063-.187c.008-.024.042-.024.05 0zm.062 1.913l-.062-.186c-.008-.025-.042-.025-.05 0l-.063.186-.196.002a.027.027 0 00-.016.048l.158.117-.059.187a.027.027 0 00.04.03l.16-.115.16.115a.027.027 0 00.041-.03l-.059-.188.158-.116a.027.027 0 00-.015-.048l-.197-.002zm-.062 1.4l.062.187.197.002c.025 0 .036.032.015.047l-.158.117.06.188a.026.026 0 01-.041.03l-.16-.115-.16.114a.026.026 0 01-.041-.03l.06-.187-.159-.117a.027.027 0 01.016-.047l.196-.002.063-.187c.008-.024.042-.024.05 0zm.062 1.63l-.062-.187c-.008-.024-.042-.024-.05 0l-.063.187-.196.002a.027.027 0 00-.016.047l.158.117-.059.188c-.008.024.02.044.04.03l.16-.115.16.114c.021.015.05-.005.041-.03l-.059-.187.158-.117a.027.027 0 00-.015-.047l-.197-.002z" fill="#F5F5F5"/></g><defs><clipPath id="clip0"><path d="M0 0h24v24H0V0z" fill="#fff"/></clipPath></defs></svg>
