<svg viewBox="0 0 24 24" fill="none" xmlns="http://www.w3.org/2000/svg"><path d="M2 6a4 4 0 014-4h12a4 4 0 014 4v12a4 4 0 01-4 4H6a4 4 0 01-4-4V6z" fill="#1B55A4"/><path d="M9.715 12.953s-.506.035-.854.072c-.444.046-1.276.187-1.756.355-.145.049-.438.168-.463.312-.026.15.068.267.175.388.061.07.408.395.505.475.408.33 1.235.842 1.845 1.09.209.085.555.206.555.206s-.026-.96-.02-1.905c.002-.5.013-.993.013-.993zm9.278.382c.03.258-.04.745-.05.81a3.8 3.8 0 01-.156.531 5.972 5.972 0 01-.281.548c-.166.29-.56.752-.795.949-.87.733-2.22 1.15-3.376 1.288a8.842 8.842 0 01-2.519-.072 21.999 21.999 0 01-.711-.146s.001.166-.013.283a1.172 1.172 0 01-.07.238c-.062.122-.16.184-.305.21-.174.033-.359.043-.52-.023-.264-.11-.36-.35-.405-.627-.037-.223-.077-.61-.077-.61s-.197-.09-.362-.17a9.37 9.37 0 01-1.408-.84 16.875 16.875 0 01-.729-.595c-.31-.285-.588-.57-.8-.937-.166-.285-.213-.54-.088-.842.174-.421.795-.74 1.22-.921.313-.134 1.283-.443 1.687-.5a5.2 5.2 0 00.504-.09.085.085 0 00.018-.015c.009-.013.024-.431.021-.584-.003-.15.115-1.136.153-1.345.02-.114.108-.548.198-.662.058-.076.162-.071.246-.02.463.28.603 1.25.637 1.745.02.301.031.754.031.754s.53-.015.857-.007c.317.008.667.057.996.108.422.065 1.243.24 1.714.473.389.19.752.514.869.855.11.313.093.53-.074.812-.186.32-.54.556-.9.575-.107.007-.509-.045-.633-.138-.049-.038-.046-.105-.01-.15.013-.017.2-.113.312-.17a.712.712 0 00.144-.1c.093-.08.176-.166.167-.268-.013-.132-.157-.214-.294-.266-.644-.249-1.928-.456-2.55-.492-.242-.013-.587-.025-.587-.025l.072 3.336s.286.054.511.09c.13.018.677.066.822.07 1.108.028 2.345-.068 3.361-.536.446-.204.856-.458 1.165-.803.41-.456.624-1.08.567-1.731-.062-.713-.577-1.557-.988-2.072-1.086-1.36-2.947-2.478-4.584-3.133-1.672-.669-3.324-1.054-5.099-1.119-.457-.016-1.455.007-1.958.143-.073.02-.145.043-.212.057a.61.61 0 00-.159.064.94.94 0 00-.025.024s.031.017.06.03c.054.023.28.036.395.056.104.02.213.073.255.148.041.07.047.125-.002.184-.115.136-.545.112-.734.084-.196-.031-.441-.09-.486-.256-.052-.197.043-.39.147-.567.208-.357.505-.542.942-.658a9.854 9.854 0 011.987-.304c1.325-.048 2.579.177 3.862.557.734.216 1.697.578 2.4.909.505.236 1.3.673 1.748.958.141.09.966.68 1.094.784.268.213.618.519.87.764.49.473 1.1 1.197 1.397 1.771.07.139.126.274.217.434.032.054.168.381.19.476.022.093.055.231.06.236.007.05.069.33.064.44z" fill="#fff"/></svg>
