<svg fill="none" xmlns="http://www.w3.org/2000/svg" viewBox="0 0 24 24"><path d="M2 6a4 4 0 014-4h12a4 4 0 014 4v12a4 4 0 01-4 4H6a4 4 0 01-4-4V6z" fill="#008DE4"/><path d="M13.132 12.735c-.149-.789.041-1.641.576-2.221.419-.454.975-.652 1.56-.647.674.009 1.282.344 1.684.912l-.448.465c-.34-.497-.87-.804-1.459-.727-.57.076-1.01.463-1.2 1.054-.256.79.002 1.771.734 2.157.431.229.973.22 1.37-.083.235-.18.505-.492.505-.754h-1.095v-.722h1.774l-.002.125c-.004.277-.008.53-.084.805a1.912 1.912 0 01-2.083 1.421c-.9-.098-1.651-.839-1.832-1.785z" fill="#fff"/><path fill-rule="evenodd" clip-rule="evenodd" d="M7.554 14.326h-.687s1.457-3.204 1.951-4.32h.216c.535 1.252 1.856 4.32 1.856 4.32-.229.005-.687 0-.687 0l-.437-1.075H8.008l-.454 1.075zm.732-1.796h1.207l-.59-1.31-.617 1.31z" fill="#fff"/><path d="M12.313 14.333h-.677v-4.327h.677v4.327z" fill="#fff"/><path fill-rule="evenodd" clip-rule="evenodd" d="M4.5 7.5v9.4h15V7.5h-15zm1 8.4V8.5h13v7.4h-13z" fill="#fff"/></svg>