<!-- by TradingView --><svg width="56" height="56" xmlns="http://www.w3.org/2000/svg"><path d="M0 28C0 12.536 12.536 0 28 0s28 12.536 28 28-12.536 28-28 28S0 43.464 0 28z" fill="#26B6EA"/><path d="M16 14.768L27.931 8 40 14.768v26.26L27.931 48 16 41.029v-26.26z" fill="#fff"/><path d="M19 15.404L28 10l9 5.404-9 5.25-9-5.25zM18.001 26v-9l8 4.524-8 4.476zM29 32.5v-9l8 4.525-8 4.475zM38 26v-9l-8 4.524L38 26zM26.997 32.5v-9l-8 4.525 8 4.475z" fill="#26B6EA"/><path d="M18 40V29.562L28 35l10-5.438V40l-10 6-10-6z" fill="#26B6EA"/><path d="M11 43.186V37h2v5.206l5 2.577V47l-7-3.814zM45 12.814V19h-2v-5.206l-5-2.578V9l7 3.814z" fill="#fff"/></svg>