<svg viewBox="0 0 24 24" fill="none" xmlns="http://www.w3.org/2000/svg"><path fill-rule="evenodd" clip-rule="evenodd" d="M4.736 2H3.281A3.281 3.281 0 000 5.281V13.72A3.281 3.281 0 003.281 17h8.438A3.281 3.281 0 0015 13.719V5.28A3.281 3.281 0 0011.719 2H4.736z" fill="#2841C1"/><path fill-rule="evenodd" clip-rule="evenodd" d="M7.5 4.763v.395H4.342V2h.395v2.396L7.5 2.586v.384L4.737 4.763h.725L7.5 3.44V4l-1.164.763H7.5zm-4.343-2.76a3.295 3.295 0 00-.394.038v2.355L.813 3.119a3.294 3.294 0 00-.318.428l1.873 1.216h-.725L.306 3.895a3.26 3.26 0 00-.1.24l.957.628H.04c-.02.13-.033.261-.038.395h3.155V2.003zm0 7.497h-.394V7.104L0 8.914v-.39l2.752-1.787h-.725L0 8.053v-.554l1.163-.762H0v-.395h3.158V9.5zm1.58 0h-.395V6.342H7.5v.395H6.336l1.164.762v.36L5.77 6.737h-.724L7.5 8.33v.585l-2.763-1.81V9.5z" fill="#F6F6F6"/><path fill-rule="evenodd" clip-rule="evenodd" d="M3.158 9.5h1.184V6.342H7.5V5.158H4.342V2h-1.06c-.042 0-.083.001-.124.003v3.155H.003A3.314 3.314 0 000 5.28v1.061h3.158V9.5zm-1.13-2.763L0 8.053v.47l2.752-1.786h-.725zM7.498 8.33L5.045 6.737h.725L7.5 7.859v.47zM2.367 4.763L.494 3.547c-.07.112-.133.228-.19.348l1.338.868h.725zM7.499 3.44L5.461 4.763h-.725L7.5 2.97v.471z" fill="#FF4B55"/><path d="M10.59 14.927a.053.053 0 01-.03-.01l-.306-.219-.306.22a.053.053 0 01-.06-.001.052.052 0 01-.02-.058l.114-.358-.303-.223a.052.052 0 01.03-.093l.377-.004.119-.357a.052.052 0 01.049-.035c.022 0 .042.014.049.035l.119.357.376.003a.052.052 0 01.03.094l-.302.223.113.358a.052.052 0 01-.049.068z" fill="#FF4B55"/><path d="M10.253 13.84l.13.392.414.003-.333.246.125.394-.336-.24-.336.24.124-.394-.332-.246.413-.003.13-.392zm0-.103a.104.104 0 00-.098.07l-.108.322-.339.003a.103.103 0 00-.06.187l.272.201-.102.324a.103.103 0 00.159.115l.276-.197.276.197a.103.103 0 00.12 0 .103.103 0 00.039-.115l-.103-.324.273-.201a.103.103 0 00-.06-.187l-.34-.003-.107-.322a.104.104 0 00-.098-.07z" fill="#F5F5F5"/><path d="M10.59 9.84a.052.052 0 01-.03-.01l-.306-.218-.306.219a.052.052 0 01-.06 0 .052.052 0 01-.02-.058l.114-.359-.303-.223a.052.052 0 01-.018-.058.052.052 0 01.049-.036l.376-.003.119-.356a.052.052 0 01.049-.036c.022 0 .042.015.049.036l.119.356.376.003c.022 0 .042.015.049.036.007.021 0 .044-.019.058l-.302.223.113.359a.052.052 0 01-.049.067z" fill="#FF4B55"/><path d="M10.253 8.754l.13.392.414.003-.333.245.125.394-.336-.24-.336.24.124-.394-.332-.245.413-.003.13-.392zm0-.104a.104.104 0 00-.098.07l-.108.323-.339.002a.103.103 0 00-.06.187l.272.201-.102.324a.104.104 0 00.159.115l.276-.197.276.197a.103.103 0 00.159-.115l-.103-.324.273-.201a.103.103 0 00-.06-.187l-.34-.002-.107-.322a.104.104 0 00-.098-.07z" fill="#F5F5F5"/><path d="M12.4 11.748a.052.052 0 01-.03-.01l-.306-.218-.306.219a.052.052 0 01-.06 0 .052.052 0 01-.02-.058l.114-.359-.302-.223a.052.052 0 01-.019-.058.052.052 0 01.05-.036l.375-.002.12-.357a.052.052 0 01.098 0l.118.357.377.002a.052.052 0 01.03.094l-.303.223.114.359a.052.052 0 01-.05.067z" fill="#FF4B55"/><path d="M12.063 10.662l.131.392.413.003-.332.246.124.393-.336-.24-.336.24.125-.393-.332-.246.413-.003.13-.392zm0-.103a.103.103 0 00-.098.07l-.107.322-.34.003a.103.103 0 00-.06.186l.273.202-.102.323a.103.103 0 00.158.116l.276-.197.276.197a.103.103 0 00.16-.116l-.103-.323.273-.202a.103.103 0 00-.06-.186l-.34-.003-.107-.322a.103.103 0 00-.099-.07z" fill="#F5F5F5"/><path d="M8.78 12.266a.052.052 0 01-.03-.01l-.307-.219-.306.22a.052.052 0 01-.08-.058l.114-.36-.302-.223a.052.052 0 01-.019-.057.052.052 0 01.049-.036l.376-.003.12-.357a.052.052 0 01.048-.035c.023 0 .042.014.05.035l.118.357.377.003c.022 0 .041.014.048.036.007.02 0 .044-.018.057l-.303.224.114.358a.052.052 0 01-.05.068z" fill="#FF4B55"/><path d="M8.442 11.18l.131.391.413.003-.332.246.124.394-.336-.24-.336.24.125-.394-.333-.246.414-.003.13-.392zm0-.104a.104.104 0 00-.098.07l-.107.322-.34.003a.104.104 0 00-.06.187l.273.201-.103.323a.103.103 0 00.16.116l.275-.197.276.197a.103.103 0 00.121 0 .103.103 0 00.038-.116l-.102-.323.273-.201a.103.103 0 00-.061-.187l-.34-.003-.107-.322a.104.104 0 00-.098-.07z" fill="#F5F5F5"/><path d="M20.719 7H12.28A3.281 3.281 0 009 10.281v8.438A3.281 3.281 0 0012.281 22h8.438A3.281 3.281 0 0024 18.719V10.28A3.281 3.281 0 0020.719 7z" fill="#F6F6F6"/><path d="M16.5 18a3.5 3.5 0 100-7 3.5 3.5 0 000 7z" fill="#FB4B4E"/></svg>
