<svg viewBox="0 0 24 24" fill="none" xmlns="http://www.w3.org/2000/svg"><path fill-rule="evenodd" clip-rule="evenodd" d="M.784 3.154h13.433c.285.334.504.725.637 1.154H.147c.134-.429.352-.82.637-1.154zM0 5.462h15v1.154H0V5.462zM15 7.77H0v1.153h15V7.77zM0 10.077h15v1.154H0v-1.154zm15 2.308H0v1.154h15v-1.154zM.147 14.693h14.707c-.133.429-.352.82-.637 1.154H.784a3.274 3.274 0 01-.637-1.154z" fill="#F5F5F5"/><path fill-rule="evenodd" clip-rule="evenodd" d="M11.719 2H3.28c-1 0-1.896.448-2.498 1.154h13.434A3.274 3.274 0 0011.719 2zM15 6.615H0V7.77h15V6.615zm-.147-2.307c.096.308.147.635.147.974v.18H0v-.18c0-.34.051-.666.147-.974h14.706zM15 8.923H0v1.154h15V8.923zm0 4.616v.18c0 .34-.051.666-.147.974H.147A3.28 3.28 0 010 13.719v-.18h15zm-.783 2.307H.783A3.274 3.274 0 003.281 17h8.438c1 0 1.896-.448 2.498-1.154zM0 11.231h15v1.154H0V11.23z" fill="#FA4051"/><path d="M8 2H3.25C1.455 2 0 3.47 0 5.281v4.796h8V2z" fill="#1939C9"/><path fill-rule="evenodd" clip-rule="evenodd" d="M2.613 2.721l.062.187.197.002c.025 0 .036.032.015.047l-.158.117.06.188a.027.027 0 01-.041.03l-.16-.115-.16.114a.027.027 0 01-.04-.03l.058-.187-.158-.117a.026.026 0 01.016-.047l.196-.002.063-.187a.027.027 0 01.05 0zM.87 3.262a.027.027 0 00.041.03l.16-.115.16.115a.027.027 0 00.04-.03l-.058-.187.158-.117a.027.027 0 00-.016-.048l-.196-.002-.034-.1a3.297 3.297 0 00-.241.233l.046.034-.06.187zm.226 1.016l.063.187.196.001c.026 0 .036.033.016.048l-.158.117.059.187a.027.027 0 01-.04.03l-.16-.115-.16.115a.027.027 0 01-.042-.03l.06-.187-.158-.117a.027.027 0 01.015-.048l.197-.001.062-.187a.027.027 0 01.05 0zM1.16 6.19l-.063-.186a.027.027 0 00-.05 0l-.062.186-.197.002a.027.027 0 00-.015.048l.158.117-.06.187a.027.027 0 00.041.03l.16-.115.16.115a.027.027 0 00.041-.03l-.06-.187.159-.117a.027.027 0 00-.016-.048L1.16 6.19zm-.063 1.4l.063.187.196.002c.026 0 .036.032.016.047l-.158.117.059.188a.027.027 0 01-.04.03l-.16-.115-.16.114a.027.027 0 01-.042-.03l.06-.187-.158-.117a.027.027 0 01.015-.047l.197-.002.062-.187a.027.027 0 01.05 0zm.063 1.63l-.063-.187a.027.027 0 00-.05 0l-.062.187-.197.002a.027.027 0 00-.015.047l.158.117-.06.188a.027.027 0 00.041.03l.16-.115.16.114a.027.027 0 00.041-.03l-.06-.187.159-.117a.027.027 0 00-.016-.047L1.16 9.22zm.694-5.762l.062.186.197.002c.026 0 .036.032.016.048l-.159.116.06.188a.027.027 0 01-.041.03l-.16-.115-.16.115a.027.027 0 01-.04-.03l.059-.188-.159-.116a.026.026 0 01.016-.048l.197-.002.062-.186a.027.027 0 01.05 0zm.062 1.913l-.062-.187a.027.027 0 00-.05 0l-.062.187-.197.001a.027.027 0 00-.016.048l.159.117-.06.187a.027.027 0 00.041.03l.16-.115.16.115a.027.027 0 00.04-.03l-.059-.187.159-.117a.027.027 0 00-.016-.048l-.197-.002zm-.062 1.453l.062.187.197.001c.026 0 .036.033.016.048l-.159.117.06.188a.027.027 0 01-.04.03l-.161-.115-.16.114a.027.027 0 01-.04-.03l.059-.187-.159-.117a.027.027 0 01.016-.048l.197-.001.062-.187a.027.027 0 01.05 0zm.062 1.66L1.853 8.3a.027.027 0 00-.05 0l-.062.186-.197.002a.027.027 0 00-.016.048l.159.116-.06.188a.027.027 0 00.041.03l.16-.115.16.115a.027.027 0 00.04-.03l-.059-.188.159-.116a.027.027 0 00-.016-.048l-.197-.002zm.76-4.02l-.062-.187a.027.027 0 00-.05 0l-.063.187-.196.001a.027.027 0 00-.016.048l.158.117-.059.187a.027.027 0 00.04.03l.16-.115.16.115a.027.027 0 00.042-.03l-.06-.187.158-.117a.027.027 0 00-.015-.048l-.197-.001zm-.062 1.54l.062.186.197.002c.025 0 .036.033.015.048l-.158.117.06.187a.027.027 0 01-.041.03l-.16-.115-.16.115a.027.027 0 01-.04-.03l.058-.187-.158-.117a.027.027 0 01.016-.048L2.5 6.19l.063-.186a.027.027 0 01.05 0zm.062 1.773l-.062-.187a.027.027 0 00-.05 0l-.063.187-.196.002a.027.027 0 00-.016.047l.158.117-.059.188a.027.027 0 00.04.03l.16-.115.16.114a.027.027 0 00.042-.03l-.06-.187.158-.117a.027.027 0 00-.015-.047l-.197-.002zm-.062 1.256l.062.187.197.002c.025 0 .036.032.015.047l-.158.117.06.188a.027.027 0 01-.041.03l-.16-.115-.16.114a.027.027 0 01-.04-.03l.058-.187-.158-.117a.027.027 0 01.016-.047L2.5 9.22l.063-.187a.027.027 0 01.05 0zm.818-5.389L3.37 3.46a.027.027 0 00-.05 0l-.063.186-.196.002a.027.027 0 00-.016.048l.158.116-.06.188a.027.027 0 00.042.03l.16-.115.16.115a.027.027 0 00.04-.03l-.059-.188.158-.116a.026.026 0 00-.015-.048l-.197-.002zm-.062 1.54l.062.187.197.001c.025 0 .036.033.015.048l-.158.117.06.187a.027.027 0 01-.041.03l-.16-.115-.16.115a.027.027 0 01-.041-.03l.06-.187-.159-.117a.027.027 0 01.016-.048l.196-.002.062-.186a.027.027 0 01.05 0zm.062 1.827l-.062-.187c-.008-.024-.042-.024-.05 0l-.063.187-.196.001a.027.027 0 00-.016.048l.158.117-.06.188a.027.027 0 00.042.03l.16-.115.16.114a.027.027 0 00.04-.03l-.059-.187.158-.117a.027.027 0 00-.015-.048l-.197-.001zM3.37 8.299l.062.186.197.002c.025 0 .036.032.015.048l-.158.116.06.188a.027.027 0 01-.041.03l-.16-.115-.16.115a.027.027 0 01-.041-.03l.06-.188-.159-.116a.027.027 0 01.016-.048l.196-.002.062-.186a.027.027 0 01.05 0zm.822-5.39l-.062-.188a.027.027 0 00-.05 0l-.063.187-.197.002a.026.026 0 00-.015.047l.158.117-.06.188a.027.027 0 00.041.03l.16-.115.16.114a.027.027 0 00.041-.03l-.06-.187.16-.117a.026.026 0 00-.016-.047l-.197-.002zm-.062 1.369l.062.187.197.001c.025 0 .036.033.015.048l-.158.117.06.187a.027.027 0 01-.042.03l-.16-.115-.16.115a.027.027 0 01-.04-.03l.059-.187-.158-.117a.027.027 0 01.015-.048l.197-.002.062-.186a.027.027 0 01.05 0zM4.19 6.19l-.062-.186a.027.027 0 00-.05 0l-.063.186-.197.002a.027.027 0 00-.015.048l.158.117-.06.187a.027.027 0 00.041.03l.16-.115.16.115a.027.027 0 00.041-.03l-.06-.187.16-.117a.027.027 0 00-.016-.048L4.19 6.19zm-.062 1.4l.062.187.197.002c.025 0 .036.032.015.047l-.158.117.06.188a.027.027 0 01-.042.03l-.16-.115-.16.114a.027.027 0 01-.04-.03l.059-.187-.158-.117a.027.027 0 01.015-.047l.197-.002.062-.187a.027.027 0 01.05 0zm.062 1.63l-.062-.187a.027.027 0 00-.05 0l-.063.187-.197.002a.027.027 0 00-.015.047l.158.117-.06.188a.027.027 0 00.041.03l.16-.115.16.114a.027.027 0 00.041-.03l-.06-.187.16-.117a.027.027 0 00-.016-.047L4.19 9.22zm.694-5.762l.063.186.196.002c.026 0 .036.032.016.048l-.158.116L5.06 4a.027.027 0 01-.04.03l-.16-.115-.16.115a.027.027 0 01-.041-.03l.059-.188-.158-.116a.027.027 0 01.015-.048l.197-.002.062-.186c.008-.025.042-.025.05 0zm.063 1.913l-.063-.187c-.008-.024-.042-.024-.05 0l-.062.187-.197.001a.027.027 0 00-.015.048l.158.117-.06.187a.027.027 0 00.041.03l.16-.115.16.115a.027.027 0 00.041-.03l-.06-.187.159-.117a.027.027 0 00-.016-.048l-.196-.002zm-.063 1.453l.063.187.196.001c.026 0 .036.033.016.048l-.158.117.059.188a.027.027 0 01-.04.03l-.16-.115-.16.114a.027.027 0 01-.041-.03l.059-.187-.158-.117a.027.027 0 01.015-.048l.197-.001.062-.187c.008-.024.042-.024.05 0zm.063 1.66L4.885 8.3c-.008-.025-.042-.025-.05 0l-.062.186-.197.002a.027.027 0 00-.015.048l.158.116-.06.188a.027.027 0 00.041.03l.16-.115.16.115a.027.027 0 00.041-.03l-.06-.188.159-.116a.027.027 0 00-.016-.048l-.196-.002zm.695-5.764l.063.187.196.002c.026 0 .036.032.016.047l-.158.117.059.188a.027.027 0 01-.04.03l-.16-.115-.16.114a.027.027 0 01-.042-.03l.06-.187-.159-.117a.026.026 0 01.016-.047l.197-.002.062-.187c.008-.024.042-.024.05 0zm.063 1.744l-.063-.187a.027.027 0 00-.05 0l-.062.187-.197.001a.027.027 0 00-.016.048l.159.117-.06.187a.027.027 0 00.041.03l.16-.115.16.115a.027.027 0 00.04-.03l-.058-.187.158-.117a.027.027 0 00-.016-.048l-.196-.001zm-.063 1.54l.063.186.196.002c.026 0 .036.033.016.048l-.158.117.059.187a.027.027 0 01-.04.03l-.16-.115-.16.115a.027.027 0 01-.042-.03l.06-.187-.159-.117a.027.027 0 01.016-.048l.197-.002.062-.186a.027.027 0 01.05 0zm.063 1.773l-.063-.187a.027.027 0 00-.05 0l-.062.187-.197.002a.027.027 0 00-.016.047l.159.117-.06.188a.027.027 0 00.041.03l.16-.115.16.114a.027.027 0 00.04-.03l-.058-.187.158-.117a.027.027 0 00-.016-.047l-.196-.002zm-.063 1.256l.063.187.196.002c.026 0 .036.032.016.047l-.158.117.059.188a.027.027 0 01-.04.03l-.16-.115-.16.114a.027.027 0 01-.042-.03l.06-.187-.159-.117a.027.027 0 01.016-.047l.197-.002.062-.187a.027.027 0 01.05 0zm.818-5.389L6.4 3.46a.027.027 0 00-.05 0l-.062.186-.197.002a.027.027 0 00-.016.048l.159.116-.06.188a.027.027 0 00.04.03l.161-.115.16.115a.027.027 0 00.04-.03l-.059-.188.159-.116a.026.026 0 00-.016-.048l-.197-.002zM6.4 5.185l.062.187.197.001c.026 0 .036.033.016.048l-.159.117.06.187a.027.027 0 01-.041.03l-.16-.115-.16.115a.027.027 0 01-.04-.03l.059-.187-.159-.117a.027.027 0 01.016-.048l.197-.002.062-.186a.027.027 0 01.05 0zm.062 1.827L6.4 6.825a.027.027 0 00-.05 0l-.062.187-.197.001a.027.027 0 00-.016.048l.159.117-.06.188a.027.027 0 00.04.03l.161-.115.16.114a.027.027 0 00.04-.03l-.059-.187.159-.117a.027.027 0 00-.016-.048l-.197-.001zM6.4 8.299l.062.186.197.002c.026 0 .036.032.016.048l-.159.116.06.188a.027.027 0 01-.041.03l-.16-.115-.16.115a.027.027 0 01-.04-.03l.059-.188-.159-.116a.027.027 0 01.016-.048l.197-.002.062-.186a.027.027 0 01.05 0zm.821-5.39l-.062-.188c-.008-.024-.042-.024-.05 0l-.063.187-.196.002a.026.026 0 00-.016.047l.158.117-.059.188a.027.027 0 00.04.03l.16-.115.16.114a.027.027 0 00.042-.03l-.06-.187.158-.117a.027.027 0 00-.015-.047l-.197-.002zm-.062 1.369l.062.187.197.001c.025 0 .036.033.015.048l-.158.117.06.187a.027.027 0 01-.041.03l-.16-.115-.16.115a.027.027 0 01-.041-.03l.06-.187-.159-.117a.027.027 0 01.016-.048l.196-.001.063-.187a.027.027 0 01.05 0zM7.22 6.19l-.062-.186a.027.027 0 00-.05 0l-.063.186-.196.002a.027.027 0 00-.016.048l.158.117-.059.187a.027.027 0 00.04.03l.16-.115.16.115a.027.027 0 00.042-.03l-.06-.187.158-.117a.027.027 0 00-.015-.048L7.22 6.19zm-.062 1.4l.062.187.197.002c.025 0 .036.032.015.047l-.158.117.06.188a.027.027 0 01-.041.03l-.16-.115-.16.114a.027.027 0 01-.041-.03l.06-.187-.159-.117a.027.027 0 01.016-.047l.196-.002.063-.187a.027.027 0 01.05 0zm.062 1.63l-.062-.187a.027.027 0 00-.05 0l-.063.187-.196.002a.027.027 0 00-.016.047l.158.117-.059.188a.027.027 0 00.04.03l.16-.115.16.114a.027.027 0 00.042-.03l-.06-.187.158-.117a.027.027 0 00-.015-.047L7.22 9.22z" fill="#F5F5F5"/><path d="M12.281 7A3.281 3.281 0 009 10.281v8.438A3.281 3.281 0 0012.281 22H14V7h-1.719z" fill="#7FAD1B"/><path d="M19 7h-5v15h5V7z" fill="#F6F6F6"/><path d="M20.72 7H19v15h1.719A3.281 3.281 0 0024 18.719V10.28A3.281 3.281 0 0020.72 7z" fill="#FB4B4E"/><path d="M16.946 14.731l-.446.223v.223h.223l.223-.446z" fill="#FFD250"/><path d="M16.499 15.735a.111.111 0 01-.112-.112v-.446a.111.111 0 11.223 0v.446c0 .062-.05.112-.111.112z" fill="#00C3A0"/><path d="M16.5 15.289c-.439 0-.862-.17-1.192-.476a.112.112 0 01.152-.163c.289.268.658.416 1.04.416.38 0 .75-.148 1.038-.416a.112.112 0 01.152.163c-.33.307-.753.476-1.19.476z" fill="#00C3A0"/><path d="M16.5 15.735c-.286 0-.563-.083-.8-.242l.123-.185c.402.267.952.267 1.354 0l.124.185a1.443 1.443 0 01-.8.242z" fill="#00AADC"/><path d="M16.323 14.23l-.247.38-.041.126.64-.149-.352-.357z" fill="#732D37"/><path d="M15.818 14.858c-.295 0-.648-.248-.742-.8l.22-.038c.078.46.36.616.53.615.052-.001.107-.019.11-.056.006-.044.007-.054-.11-.094a.403.403 0 01-.185-.103c-.204-.233.072-.48.205-.598.023-.021.033-.039.03-.046-.007-.018-.05-.047-.1-.047-.142 0-.25-.08-.28-.21a.298.298 0 01.145-.333l.102.198c-.027.014-.038.054-.03.083.002.012.009.039.063.039.136 0 .266.08.308.191.019.047.046.17-.09.291-.146.131-.234.23-.185.285a.316.316 0 00.089.039c.1.034.287.097.26.33-.016.148-.148.25-.326.254h-.014z" fill="#AAD264"/><path d="M16.723 13.616s.223-.446-.223-.669c0 0 1.561-.223 1.338 1.784-.146-.117-.364-.33-.441-.502l-.674-.39v-.223z" fill="#874150"/><path d="M16.5 14.062l1.115.67-.446.222-.669-.669v-.223z" fill="#732D37"/><path d="M16.054 13.393c.123 0 .223.1.223.223a.437.437 0 00-.082.505l.05.1c.021.043.049.081.082.115l.619.618v-.308c0-.384-.09-.762-.261-1.106a.669.669 0 00-.599-.37h-.032v.223z" fill="#783C46"/><path d="M16.054 13.17l-.223.223v.223s.265-.134.355-.177c.062-.03.05-.1.015-.135a16.017 16.017 0 00-.147-.134z" fill="#FFD250"/><path d="M16.5 16.181a1.898 1.898 0 01-1.896-1.896h.223c0 .923.75 1.673 1.672 1.673.923 0 1.673-.75 1.673-1.673h.223c0 1.046-.85 1.896-1.896 1.896z" fill="#AAD264"/><path d="M14.84 15.098a.151.151 0 100-.302.151.151 0 000 .302zM15.174 15.633a.151.151 0 100-.303.151.151 0 000 .303zM15.717 16.037a.151.151 0 100-.303.151.151 0 000 .303zM18.177 15.098a.151.151 0 100-.302.151.151 0 000 .302zM17.842 15.633a.151.151 0 100-.303.151.151 0 000 .303zM17.299 16.037a.151.151 0 100-.303.151.151 0 000 .303z" fill="#FFE15A"/><path d="M16.612 15.847h-.223a.223.223 0 110-.447h.223a.223.223 0 010 .447z" fill="#FFB478"/><path d="M17.397 14.23c.074.218.232.418.441.501.223-2.007-1.338-1.784-1.338-1.784 1.115 0 .897 1.283.897 1.283z" fill="#9B4B5A"/></svg>
