<svg viewBox="0 0 24 24" fill="none" xmlns="http://www.w3.org/2000/svg"><path d="M2 6a4 4 0 014-4h12a4 4 0 014 4v12a4 4 0 01-4 4H6a4 4 0 01-4-4V6z" fill="#F6F6F6"/><path d="M7.12 12.905c1.657-.35 1.43-2.301 1.382-2.727-.082-.658-.867-1.806-1.933-1.714-1.342.118-1.538 2.024-1.538 2.024-.182.883.434 2.768 2.088 2.417zm3.078-3.27c.915 0 1.654-1.037 1.654-2.318 0-1.282-.74-2.317-1.654-2.317C9.282 5 8.54 6.035 8.54 7.317c0 1.28.741 2.318 1.657 2.318zm3.945.152c1.225.158 2.01-1.127 2.166-2.1.16-.973-.63-2.104-1.496-2.298-.869-.197-1.954 1.171-2.051 2.064-.12 1.092.157 2.18 1.38 2.334zm4.85 1.636c0-.465-.391-1.87-1.851-1.87-1.463 0-1.657 1.326-1.657 2.262 0 .893.076 2.14 1.893 2.1 1.814-.039 1.616-2.023 1.616-2.491zm-1.851 4.09s-1.894-1.441-3-2.999c-1.5-2.296-3.629-1.361-4.34-.195-.71 1.17-1.814 1.908-1.972 2.104-.159.192-2.287 1.322-1.814 3.387.473 2.063 2.132 2.024 2.132 2.024s1.223.118 2.64-.194a5.654 5.654 0 012.644.076s3.315 1.093 4.221-1.01c.907-2.102-.511-3.194-.511-3.194z" fill="#0A48B6"/><path d="M10.492 13.504v1.386H9.344s-1.148.093-1.55 1.372c-.14.854.124 1.357.17 1.465.047.107.417.732 1.349.915h2.154V13.52l-.975-.015zm-.017 4.297h-.868s-.605-.03-.79-.715c-.094-.304.015-.654.063-.792.044-.138.247-.457.665-.58h.93v2.087zM11.995 15.014v2.698s.045.67 1.008.916h2.479v-3.614h-1.07v2.713H13.39s-.327-.047-.388-.305v-2.424l-1.008.016z" fill="#fff"/></svg>
