<svg viewBox="0 0 24 24" fill="none" xmlns="http://www.w3.org/2000/svg"><path d="M2 6a4 4 0 014-4h12a4 4 0 014 4v12a4 4 0 01-4 4H6a4 4 0 01-4-4V6z" fill="#F6F6F6"/><path d="M3.85 9.75c-.701 0-1.35.121-1.85.422v3.886c.457.266 1.082.41 1.89.41 2.371 0 2.523-1.415 2.523-1.415H5.264s-.246.762-1.444.762c-.975 0-1.677-.597-1.677-1.435h4.39v-.525c0-.829-.58-2.106-2.683-2.106zm-.04.67c.929 0 1.562.517 1.562 1.29H2.169c0-.821.826-1.29 1.641-1.29z" fill="#FB4B4E"/><path d="M6.532 8.007v5.558c0 .315-.025.758-.025.758h1.096s.04-.318.04-.609c0 0 .54.768 2.012.768 1.55 0 2.603-.975 2.603-2.373 0-1.3-.967-2.346-2.6-2.346-1.53 0-2.005.748-2.005.748V8.008h-1.12zm2.843 2.443c1.053 0 1.722.708 1.722 1.659 0 1.019-.773 1.686-1.714 1.686-1.124 0-1.73-.796-1.73-1.677 0-.822.544-1.668 1.722-1.668z" fill="#0064D2"/><path d="M14.98 9.75c-2.332 0-2.482 1.157-2.482 1.342h1.161s.061-.676 1.241-.676c.768 0 1.362.319 1.362.93v.218H14.9c-1.807 0-2.762.48-2.762 1.453 0 .957.883 1.478 2.075 1.478 1.627 0 2.15-.815 2.15-.815 0 .324.028.643.028.643h1.032s-.04-.395-.04-.649v-2.188c0-1.435-1.277-1.737-2.402-1.737zm1.282 2.468v.29c0 .379-.258 1.32-1.776 1.32-.83 0-1.187-.375-1.187-.811 0-.794 1.2-.8 2.963-.8z" fill="#FFC223"/><path d="M16.758 9.93h1.306l1.875 3.406 1.87-3.405H22v1.766l-2.414 4.296h-1.242l.984-1.69-2.57-4.372z" fill="#81BC06"/></svg>
