<svg viewBox="0 0 24 24" fill="none" xmlns="http://www.w3.org/2000/svg"><path d="M2 6a4 4 0 014-4h12a4 4 0 014 4v12a4 4 0 01-4 4H6a4 4 0 01-4-4V6z" fill="#FB4B4E"/><path fill-rule="evenodd" clip-rule="evenodd" d="M9.94 11.49c.12-.126.857-.103.857-.23 0-.063-.375-.147-.435-.147-.482 0-.844-.004-1.868.378-.12-1.082-.241-2.418-.241-3.5 0-1.146.24-2.164.24-2.418 0-.191.061-.318.061-.382 0-.127-.06-.191-.18-.191C7.288 5 5 6.782 5 9.455c0 1.909.663 2.8 1.807 3.945-.662 1.146-1.265 2.545-1.265 3.818 0 .891.18 1.591.844 1.591 1.325 0 2.289-2.864 2.289-4.964 0-.636 0-.954-.06-1.59.421-.51.843-.573 1.325-.764zm-2.29 1.528c.121.7.181 1.464.181 2.037 0 1.336-.421 2.863-1.144 2.863-.301 0-.482-.318-.542-.827 0-1.655.722-3.055 1.506-4.073zm.482-7.509c0 .064-.18.446-.421 1.146a9.87 9.87 0 00-.482 2.99c0 .7.18 1.719.301 2.673l-.422.573c-.662-.827-1.084-1.845-1.084-3.5 0-2.291 1.325-3.946 2.108-3.882z" fill="#fff"/><path fill-rule="evenodd" clip-rule="evenodd" d="M16.145 13.018c.12.7.18 1.464.18 2.036 0 1.337-.421 2.864-1.144 2.864-.301 0-.482-.318-.542-.827 0-1.655.723-3.055 1.506-4.073zm.422-7.51c0 .065-.181.446-.422 1.146a9.868 9.868 0 00-.482 2.991c0 .7.18 1.719.301 2.673l-.421.573c-.663-.828-1.085-1.846-1.085-3.5.06-2.291 1.386-3.946 2.109-3.882zm3.253 4.074c.12-.128.18-.255.18-.319 0-.063-.12-.063-.18-.063-.482 0-1.567.7-2.892 2.1-.12-1.082-.241-2.164-.241-3.246 0-1.145.241-2.163.301-2.418 0-.19.06-.318.06-.382 0-.127-.06-.19-.18-.19-1.085 0-3.374 1.781-3.374 4.454 0 1.082.241 1.845.603 2.545h-.362c-.421 0-.783.128-1.024.191V12c0-.573-.12-1.4-.361-1.655 0 0-.06-.063-.12-.063-.121 0-.242.063-.362.127-.18.064-.301.19-.301.19s0 .065.06.128c.12.127.361.446.421 1.082a2.166 2.166 0 00-1.626-.7c-.783 0-1.024.382-1.024.764 0 .7.904 1.081 2.048 1.081.18 0 .422-.063.663-.127v.573c0 .254.06.445.18.445.241 0 .362-.445.362-1.145a4.23 4.23 0 011.145-.191c.18 0 .36 0 .602.064.24.318.542.636.843 1.018-.662 1.145-1.265 2.545-1.265 3.818 0 .89.18 1.59.844 1.59 1.325 0 2.289-2.863 2.289-4.963 0-.636 0-1.272-.06-1.909a21.07 21.07 0 011.385-1.336l1.386-1.21zm-7.952 2.672h-.603c-.482 0-.903-.19-.903-.509 0-.19.06-.318.361-.318.422.064.783.382 1.145.827z" fill="#fff"/></svg>
