<svg viewBox="0 0 24 24" fill="none" xmlns="http://www.w3.org/2000/svg"><path d="M2 6a4 4 0 014-4h12a4 4 0 014 4v12a4 4 0 01-4 4H6a4 4 0 01-4-4V6z" fill="#2F3037"/><path d="M9.008 15.514c.32-.283.375-.634.375-.948v-1.323H7.645v1.794c0 .257-.195.465-.436.465-.242 0-.422-.208-.422-.465V9.956c0-.257.18-.465.422-.465.24 0 .436.208.436.465v1.805h1.736V9.888c0-1.035-.637-1.886-2.187-1.888C5.602 8 5 8.855 5 9.89v5.306c0 1.026.767 1.801 1.747 1.801h.538l1.723-1.482zM15.859 15.723V9.892h-1.2V8.174H19v1.718h-1.205v7.095h-.514l-1.421-1.264z" fill="#fff"/><path d="M16.636 17l-4.226-3.763L8.03 17h8.606z" fill="#FFC223"/><path d="M11.943 12.224l.467-2.54.466 2.54h-.933zm1.673-4.04h-2.421l-1.41 6.723 2.626-2.253 2.739 2.438-1.534-6.909z" fill="#fff"/></svg>
