<?xml version="1.0" encoding="UTF-8"?>
<!DOCTYPE svg PUBLIC "-//W3C//DTD SVG 1.1//EN" "http://www.w3.org/Graphics/SVG/1.1/DTD/svg11.dtd">
<!-- Creator: CorelDRAW X5 -->
<svg xmlns="http://www.w3.org/2000/svg" xml:space="preserve" width="1.40437in" height="1.40447in" style="shape-rendering:geometricPrecision; text-rendering:geometricPrecision; image-rendering:optimizeQuality; fill-rule:evenodd; clip-rule:evenodd"
viewBox="0 0 916 916"
 xmlns:xlink="http://www.w3.org/1999/xlink">
 <defs>
  <style type="text/css">
   <![CDATA[
    .fil0 {fill:#1D9AB9}
    .fil1 {fill:#2FBEBD}
   ]]>
  </style>
 </defs>
 <g id="Layer_x0020_1">
  <metadata id="CorelCorpID_0Corel-Layer"/>
  <g id="_425724152">
   <path class="fil0" d="M484 739l-14 -47c-40,5 -84,36 -116,56 -30,18 -84,37 -93,70 17,20 181,96 214,98 17,-20 9,-21 12,-48 116,-16 146,-23 237,-78 204,-121 221,-401 161,-438 -22,42 -11,250 -237,346 -51,22 -100,37 -165,40z"/>
   <path class="fil1" d="M423 49c-165,18 -260,83 -328,161 -36,41 -65,94 -81,155 -14,51 -29,178 16,200 8,-13 22,-113 38,-151 57,-130 188,-225 363,-235l14 45c42,-1 80,-32 112,-51 33,-20 80,-38 98,-67 -16,-31 -184,-101 -215,-104 -20,30 -2,23 -17,49z"/>
   <path class="fil0" d="M322 712l82 -45c2,-41 0,-83 1,-125 1,-45 4,-89 -66,-67 -35,11 -20,201 -17,237z"/>
   <path class="fil0" d="M197 785l81 -44c4,-43 6,-133 -5,-172l-73 0c-13,42 -7,170 -3,216z"/>
   <g>
    <path class="fil0" d="M502 377l-166 1c-120,1 -76,-14 -191,111 -75,82 -134,124 -79,162 26,-10 149,-156 183,-194 36,-39 48,-26 131,-26 172,-1 136,15 221,-81l105 -118c35,-34 9,-15 55,-12l18 -103c-24,-1 -95,19 -107,30 -35,31 44,-6 -35,79 -45,49 -92,104 -135,151z"/>
    <path class="fil0" d="M699 609c44,-19 83,-64 84,-121 1,-59 1,-130 -3,-189l-80 -3 -1 312z"/>
    <path class="fil0" d="M574 675c35,-1 57,-17 84,-30 -7,-161 30,-236 -60,-220 -30,5 -26,7 -27,37l2 212z"/>
    <path class="fil0" d="M450 645c58,21 19,-2 69,35l13 9c0,-53 7,-168 -7,-214l-71 0c-15,38 -10,128 -3,169z"/>
   </g>
  </g>
 </g>
</svg>
