<svg width="1280" height="692" viewBox="0 0 1280 692" fill="none" xmlns="http://www.w3.org/2000/svg">
<g clip-path="url(#clip0)">
<path d="M1279.64 -12H0V692H1279.64V-12Z" fill="white"/>
<path d="M1208.55 692V254.099L1279.64 261.204V692H1208.55ZM1137.46 692V288.976L1208.55 254.099V692H1137.46ZM1066.37 692H995.279V314.165L1066.37 279.288L1137.46 288.976V692H1066.37ZM924.188 692H853.096V313.519L924.188 289.622L995.279 314.165V692H924.188ZM782.005 692H710.914V330.312L782.005 306.415L853.096 313.519V692H782.005ZM639.822 692H568.731V358.084L639.822 323.207L710.914 330.312V692H639.822ZM497.64 692H426.548V383.273L497.64 348.396L568.731 358.084V692H497.64ZM355.457 692H284.365V382.628L355.457 358.73L426.548 383.273V692H355.457ZM213.274 692H142.183V410.4L213.274 375.523L284.365 382.628V692H213.274ZM71.0914 692H0V436.235L71.0914 400.712L142.183 410.4V692H71.0914Z" fill="#EDF2F7"/>
<path d="M70.1219 400.389L141.213 410.723" stroke="#CFDBEC"/>
<path d="M496.67 348.073L567.761 358.407" stroke="#CFDBEC"/>
<path d="M1065.4 278.965L1136.49 289.299" stroke="#CFDBEC"/>
<path d="M213.597 375.846L284.689 382.95" stroke="#CFDBEC"/>
<path d="M782.328 306.738L853.419 313.842" stroke="#CFDBEC"/>
<path d="M640.145 323.53L711.237 330.635" stroke="#CFDBEC"/>
<path d="M1208.88 254.422L1279.97 261.527" stroke="#CFDBEC"/>
<path d="M142.506 410.723L213.597 375.2" stroke="#CFDBEC"/>
<path d="M569.054 358.407L640.145 322.884" stroke="#CFDBEC"/>
<path d="M1137.78 289.299L1208.88 253.776" stroke="#CFDBEC"/>
<path d="M0.322615 435.912L71.414 400.389" stroke="#CFDBEC"/>
<path d="M426.871 383.596L497.963 348.073" stroke="#CFDBEC"/>
<path d="M995.602 314.488L1066.69 278.965" stroke="#CFDBEC"/>
<path d="M284.689 382.95L355.78 358.407" stroke="#CFDBEC"/>
<path d="M853.419 313.842L924.511 289.299" stroke="#CFDBEC"/>
<path d="M355.78 359.053L426.871 382.95" stroke="#CFDBEC"/>
<path d="M924.511 289.945L995.602 313.842" stroke="#CFDBEC"/>
<path d="M711.237 330.635L782.328 306.738" stroke="#CFDBEC"/>
<path d="M213.274 378.106C214.702 378.106 215.859 376.95 215.859 375.523C215.859 374.096 214.702 372.939 213.274 372.939C211.846 372.939 210.689 374.096 210.689 375.523C210.689 376.95 211.846 378.106 213.274 378.106Z" fill="#CFDBEC"/>
<path d="M639.822 325.791C641.25 325.791 642.407 324.634 642.407 323.207C642.407 321.781 641.25 320.624 639.822 320.624C638.394 320.624 637.237 321.781 637.237 323.207C637.237 324.634 638.394 325.791 639.822 325.791Z" fill="#CFDBEC"/>
<path d="M1208.55 256.683C1209.98 256.683 1211.14 255.526 1211.14 254.099C1211.14 252.672 1209.98 251.516 1208.55 251.516C1207.13 251.516 1205.97 252.672 1205.97 254.099C1205.97 255.526 1207.13 256.683 1208.55 256.683Z" fill="#CFDBEC"/>
<path d="M142.183 412.983C143.61 412.983 144.768 411.827 144.768 410.4C144.768 408.973 143.61 407.816 142.183 407.816C140.755 407.816 139.598 408.973 139.598 410.4C139.598 411.827 140.755 412.983 142.183 412.983Z" fill="#CFDBEC"/>
<path d="M568.731 360.668C570.159 360.668 571.316 359.511 571.316 358.084C571.316 356.658 570.159 355.501 568.731 355.501C567.303 355.501 566.146 356.658 566.146 358.084C566.146 359.511 567.303 360.668 568.731 360.668Z" fill="#CFDBEC"/>
<path d="M1137.46 291.56C1138.89 291.56 1140.05 290.403 1140.05 288.976C1140.05 287.549 1138.89 286.393 1137.46 286.393C1136.03 286.393 1134.88 287.549 1134.88 288.976C1134.88 290.403 1136.03 291.56 1137.46 291.56Z" fill="#CFDBEC"/>
<path d="M355.457 361.314C356.885 361.314 358.042 360.157 358.042 358.73C358.042 357.303 356.885 356.147 355.457 356.147C354.029 356.147 352.872 357.303 352.872 358.73C352.872 360.157 354.029 361.314 355.457 361.314Z" fill="#CFDBEC"/>
<path d="M924.188 292.206C925.615 292.206 926.773 291.049 926.773 289.622C926.773 288.195 925.615 287.039 924.188 287.039C922.76 287.039 921.603 288.195 921.603 289.622C921.603 291.049 922.76 292.206 924.188 292.206Z" fill="#CFDBEC"/>
<path d="M426.548 385.857C427.976 385.857 429.133 384.7 429.133 383.273C429.133 381.847 427.976 380.69 426.548 380.69C425.12 380.69 423.963 381.847 423.963 383.273C423.963 384.7 425.12 385.857 426.548 385.857Z" fill="#CFDBEC"/>
<path d="M995.279 316.749C996.707 316.749 997.864 315.592 997.864 314.165C997.864 312.738 996.707 311.582 995.279 311.582C993.851 311.582 992.694 312.738 992.694 314.165C992.694 315.592 993.851 316.749 995.279 316.749Z" fill="#CFDBEC"/>
<path d="M782.005 308.998C783.433 308.998 784.59 307.842 784.59 306.415C784.59 304.988 783.433 303.831 782.005 303.831C780.577 303.831 779.42 304.988 779.42 306.415C779.42 307.842 780.577 308.998 782.005 308.998Z" fill="#CFDBEC"/>
<path d="M71.0914 403.295C72.5191 403.295 73.6765 402.139 73.6765 400.712C73.6765 399.285 72.5191 398.128 71.0914 398.128C69.6636 398.128 68.5062 399.285 68.5062 400.712C68.5062 402.139 69.6636 403.295 71.0914 403.295Z" fill="#CFDBEC"/>
<path d="M497.64 350.98C499.067 350.98 500.225 349.823 500.225 348.396C500.225 346.97 499.067 345.813 497.64 345.813C496.212 345.813 495.054 346.97 495.054 348.396C495.054 349.823 496.212 350.98 497.64 350.98Z" fill="#CFDBEC"/>
<path d="M1066.37 281.872C1067.8 281.872 1068.96 280.715 1068.96 279.288C1068.96 277.861 1067.8 276.705 1066.37 276.705C1064.94 276.705 1063.79 277.861 1063.79 279.288C1063.79 280.715 1064.94 281.872 1066.37 281.872Z" fill="#CFDBEC"/>
<path d="M284.365 385.211C285.793 385.211 286.951 384.054 286.951 382.628C286.951 381.201 285.793 380.044 284.365 380.044C282.938 380.044 281.78 381.201 281.78 382.628C281.78 384.054 282.938 385.211 284.365 385.211Z" fill="#CFDBEC"/>
<path d="M853.096 316.103C854.524 316.103 855.682 314.946 855.682 313.519C855.682 312.092 854.524 310.936 853.096 310.936C851.669 310.936 850.511 312.092 850.511 313.519C850.511 314.946 851.669 316.103 853.096 316.103Z" fill="#CFDBEC"/>
<path d="M710.914 332.895C712.341 332.895 713.499 331.739 713.499 330.312C713.499 328.885 712.341 327.728 710.914 327.728C709.486 327.728 708.328 328.885 708.328 330.312C708.328 331.739 709.486 332.895 710.914 332.895Z" fill="#CFDBEC"/>
</g>
<defs>
<clipPath id="clip0">
<rect width="1280" height="704" fill="white" transform="translate(0 -12)"/>
</clipPath>
</defs>
</svg>
